<svg width="109" height="51" viewBox="0 0 109 51" fill="none" xmlns="http://www.w3.org/2000/svg">
<circle opacity="0.5" cx="54.5001" cy="13" r="10.8333" stroke="#338CFF" stroke-width="1.5"/>
<path d="M57.75 13L54.5 13M54.5 13L51.25 13M54.5 13L54.5 9.75M54.5 13L54.5 16.25" stroke="#338CFF" stroke-width="1.5" stroke-linecap="round"/>
<path d="M28.2409 45H26.8432L29.9838 36.2727H31.5051L34.6458 45H33.248L30.7807 37.858H30.7125L28.2409 45ZM28.4753 41.5824H33.0094V42.6903H28.4753V41.5824ZM38.1486 45.1278C37.6202 45.1278 37.1486 44.9929 36.7338 44.723C36.3219 44.4503 35.998 44.0625 35.7623 43.5597C35.5293 43.054 35.4128 42.4474 35.4128 41.7401C35.4128 41.0327 35.5307 40.4276 35.7665 39.9247C36.0051 39.4219 36.3319 39.0369 36.7466 38.7699C37.1614 38.5028 37.6316 38.3693 38.1571 38.3693C38.5634 38.3693 38.8901 38.4375 39.1373 38.5739C39.3873 38.7074 39.5804 38.8636 39.7168 39.0426C39.856 39.2216 39.964 39.3793 40.0407 39.5156H40.1174V36.2727H41.3915V45H40.1472V43.9815H40.0407C39.964 44.1207 39.8532 44.2798 39.7083 44.4588C39.5662 44.6378 39.3702 44.794 39.1202 44.9276C38.8702 45.0611 38.5463 45.1278 38.1486 45.1278ZM38.4299 44.0412C38.7963 44.0412 39.106 43.9446 39.3588 43.7514C39.6145 43.5554 39.8077 43.2841 39.9384 42.9375C40.0719 42.5909 40.1387 42.1875 40.1387 41.7273C40.1387 41.2727 40.0733 40.875 39.9426 40.5341C39.812 40.1932 39.6202 39.9276 39.3674 39.7372C39.1145 39.5469 38.802 39.4517 38.4299 39.4517C38.0463 39.4517 37.7267 39.5511 37.4711 39.75C37.2154 39.9489 37.0222 40.2202 36.8915 40.5639C36.7637 40.9077 36.6998 41.2955 36.6998 41.7273C36.6998 42.1648 36.7651 42.5582 36.8958 42.9077C37.0265 43.2571 37.2196 43.5341 37.4753 43.7386C37.7338 43.9403 38.052 44.0412 38.4299 44.0412ZM45.6603 45.1278C45.1319 45.1278 44.6603 44.9929 44.2456 44.723C43.8336 44.4503 43.5098 44.0625 43.274 43.5597C43.041 43.054 42.9245 42.4474 42.9245 41.7401C42.9245 41.0327 43.0424 40.4276 43.2782 39.9247C43.5169 39.4219 43.8436 39.0369 44.2583 38.7699C44.6731 38.5028 45.1433 38.3693 45.6689 38.3693C46.0751 38.3693 46.4018 38.4375 46.649 38.5739C46.899 38.7074 47.0922 38.8636 47.2285 39.0426C47.3677 39.2216 47.4757 39.3793 47.5524 39.5156H47.6291V36.2727H48.9032V45H47.6589V43.9815H47.5524C47.4757 44.1207 47.3649 44.2798 47.22 44.4588C47.0779 44.6378 46.8819 44.794 46.6319 44.9276C46.3819 45.0611 46.0581 45.1278 45.6603 45.1278ZM45.9416 44.0412C46.3081 44.0412 46.6177 43.9446 46.8706 43.7514C47.1262 43.5554 47.3194 43.2841 47.4501 42.9375C47.5836 42.5909 47.6504 42.1875 47.6504 41.7273C47.6504 41.2727 47.585 40.875 47.4544 40.5341C47.3237 40.1932 47.1319 39.9276 46.8791 39.7372C46.6262 39.5469 46.3137 39.4517 45.9416 39.4517C45.5581 39.4517 45.2385 39.5511 44.9828 39.75C44.7271 39.9489 44.5339 40.2202 44.4032 40.5639C44.2754 40.9077 44.2115 41.2955 44.2115 41.7273C44.2115 42.1648 44.2768 42.5582 44.4075 42.9077C44.5382 43.2571 44.7314 43.5341 44.987 43.7386C45.2456 43.9403 45.5637 44.0412 45.9416 44.0412ZM53.9998 36.2727H55.5978L58.3762 43.0568H58.4785L61.2569 36.2727H62.8549V45H61.6021V38.6847H61.5211L58.9473 44.9872H57.9075L55.3336 38.6804H55.2527V45H53.9998V36.2727ZM67.4242 45.1321C66.8105 45.1321 66.275 44.9915 65.8176 44.7102C65.3603 44.429 65.0051 44.0355 64.7523 43.5298C64.4995 43.0241 64.373 42.4332 64.373 41.7571C64.373 41.0781 64.4995 40.4844 64.7523 39.9759C65.0051 39.4673 65.3603 39.0724 65.8176 38.7912C66.275 38.5099 66.8105 38.3693 67.4242 38.3693C68.0378 38.3693 68.5733 38.5099 69.0307 38.7912C69.4881 39.0724 69.8432 39.4673 70.0961 39.9759C70.3489 40.4844 70.4753 41.0781 70.4753 41.7571C70.4753 42.4332 70.3489 43.0241 70.0961 43.5298C69.8432 44.0355 69.4881 44.429 69.0307 44.7102C68.5733 44.9915 68.0378 45.1321 67.4242 45.1321ZM67.4284 44.0625C67.8262 44.0625 68.1557 43.9574 68.4171 43.7472C68.6784 43.5369 68.8716 43.2571 68.9966 42.9077C69.1245 42.5582 69.1884 42.1733 69.1884 41.7528C69.1884 41.3352 69.1245 40.9517 68.9966 40.6023C68.8716 40.25 68.6784 39.9673 68.4171 39.7543C68.1557 39.5412 67.8262 39.4347 67.4284 39.4347C67.0279 39.4347 66.6955 39.5412 66.4313 39.7543C66.1699 39.9673 65.9753 40.25 65.8475 40.6023C65.7225 40.9517 65.66 41.3352 65.66 41.7528C65.66 42.1733 65.7225 42.5582 65.8475 42.9077C65.9753 43.2571 66.1699 43.5369 66.4313 43.7472C66.6955 43.9574 67.0279 44.0625 67.4284 44.0625ZM71.8975 45V38.4545H73.1291V39.4943H73.1973C73.3166 39.142 73.5268 38.8651 73.8279 38.6634C74.1319 38.4588 74.4757 38.3565 74.8592 38.3565C74.9387 38.3565 75.0325 38.3594 75.1404 38.3651C75.2512 38.3707 75.3379 38.3778 75.4004 38.3864V39.6051C75.3493 39.5909 75.2583 39.5753 75.1277 39.5582C74.997 39.5384 74.8663 39.5284 74.7356 39.5284C74.4345 39.5284 74.166 39.5923 73.9302 39.7202C73.6973 39.8452 73.5126 40.0199 73.3762 40.2443C73.2399 40.4659 73.1717 40.7187 73.1717 41.0028V45H71.8975ZM79.0897 45.1321C78.4448 45.1321 77.8894 44.9943 77.4235 44.7188C76.9604 44.4403 76.6025 44.0497 76.3496 43.5469C76.0996 43.0412 75.9746 42.4489 75.9746 41.7699C75.9746 41.0994 76.0996 40.5085 76.3496 39.9972C76.6025 39.4858 76.9547 39.0866 77.4064 38.7997C77.861 38.5128 78.3922 38.3693 79.0002 38.3693C79.3695 38.3693 79.7275 38.4304 80.074 38.5526C80.4206 38.6747 80.7317 38.8665 81.0073 39.1278C81.2828 39.3892 81.5002 39.7287 81.6593 40.1463C81.8184 40.5611 81.8979 41.0653 81.8979 41.6591V42.1108H76.6948V41.1562H80.6493C80.6493 40.821 80.5811 40.5241 80.4448 40.2656C80.3084 40.0043 80.1167 39.7983 79.8695 39.6477C79.6252 39.4972 79.3382 39.4219 79.0087 39.4219C78.6507 39.4219 78.3382 39.5099 78.0712 39.6861C77.807 39.8594 77.6025 40.0866 77.4576 40.3679C77.3155 40.6463 77.2445 40.9489 77.2445 41.2756V42.0213C77.2445 42.4588 77.3212 42.831 77.4746 43.1378C77.6309 43.4446 77.8482 43.679 78.1266 43.8409C78.405 44 78.7303 44.0795 79.1025 44.0795C79.3439 44.0795 79.5641 44.0455 79.763 43.9773C79.9618 43.9062 80.1337 43.8011 80.2786 43.6619C80.4235 43.5227 80.5343 43.3509 80.611 43.1463L81.8169 43.3636C81.7203 43.7187 81.5471 44.0298 81.2971 44.2969C81.0499 44.5611 80.7388 44.767 80.3638 44.9148C79.9917 45.0597 79.5669 45.1321 79.0897 45.1321Z" fill="#338CFF"/>
</svg>
