<svg width="31" height="30" viewBox="0 0 31 30" fill="none" xmlns="http://www.w3.org/2000/svg">
<g opacity="0.8" clip-path="url(#clip0_243_5134)">
<path d="M20.4728 3.0804L23.2412 4.5332C26.2195 6.09616 27.7087 6.87764 28.5356 8.28193C29.3625 9.68621 29.3625 11.4337 29.3625 14.9286V15.0905C29.3625 18.5854 29.3625 20.3328 28.5356 21.7371C27.7087 23.1414 26.2195 23.9229 23.2412 25.4858L20.4728 26.9386C18.0426 28.2139 16.8276 28.8515 15.5205 28.8515C14.2134 28.8515 12.9984 28.2139 10.5682 26.9386L7.79982 25.4858C4.82148 23.9229 3.3323 23.1414 2.50539 21.7371C1.67847 20.3328 1.67847 18.5854 1.67847 15.0905V14.9286C1.67847 11.4337 1.67847 9.68621 2.50539 8.28193C3.3323 6.87764 4.82148 6.09616 7.79982 4.5332L10.5682 3.0804C12.9984 1.80512 14.2134 1.16748 15.5205 1.16748C16.8276 1.16748 18.0426 1.80512 20.4728 3.0804Z" stroke="#338CFF" stroke-width="1.48307" stroke-linecap="round"/>
<path d="M28.3737 8.32081L22.6612 11.1125M15.5204 14.6021L2.66711 8.32081M15.5204 14.6021V27.8625M15.5204 14.6021C15.5204 14.6021 19.4373 12.6879 21.9471 11.4614C22.2259 11.3252 22.6612 11.1125 22.6612 11.1125M22.6612 11.1125V15.9979M22.6612 11.1125L9.09377 4.1333" stroke="#338CFF" stroke-width="1.48307" stroke-linecap="round"/>
</g>
<defs>
<clipPath id="clip0_243_5134">
<rect width="29.6615" height="29.6615" fill="white" transform="translate(0.689697 0.178711)"/>
</clipPath>
</defs>
</svg>
