<svg width="37" height="36" viewBox="0 0 37 36" fill="none" xmlns="http://www.w3.org/2000/svg">
<path d="M30.6682 16.4394H33.735C33.735 8.77196 27.7961 2.98926 19.9189 2.98926V5.97851C26.1477 5.97851 30.6682 10.3772 30.6682 16.4394Z" fill="#1B1C57"/>
<path d="M19.9352 11.9574C23.1599 11.9574 24.5354 13.2981 24.5354 16.4413H27.6022C27.6022 11.6211 24.8804 8.96814 19.9352 8.96814V11.9574ZM25.1825 20.0926C24.8879 19.8316 24.5007 19.6924 24.1027 19.7044C23.7047 19.7164 23.3271 19.8786 23.0495 20.1569L19.3801 23.8352C18.4968 23.6707 16.7211 23.1312 14.8933 21.3541C13.0655 19.571 12.5119 17.8357 12.3478 16.9808L16.1185 13.4027C16.4043 13.1323 16.5711 12.7642 16.5834 12.3762C16.5957 11.9882 16.4526 11.6107 16.1844 11.3237L10.5185 5.25101C10.2502 4.96308 9.87731 4.78843 9.47904 4.76415C9.08078 4.73987 8.68849 4.86787 8.38549 5.12097L5.05798 7.90247C4.79287 8.16181 4.63463 8.50697 4.61329 8.87248C4.59028 9.24614 4.15173 18.0973 11.1932 24.9636C17.336 30.9496 25.0307 31.3875 27.1499 31.3875C27.4596 31.3875 27.6498 31.3785 27.7004 31.3755C28.0753 31.3551 28.4292 31.2002 28.694 30.9406L31.5462 27.6958C31.806 27.4006 31.9376 27.0184 31.913 26.6302C31.8884 26.242 31.7095 25.8785 31.4143 25.6168L25.1825 20.0926Z" fill="#1B1C57"/>
</svg>
