<svg width="25" height="25" viewBox="0 0 25 25" fill="none" xmlns="http://www.w3.org/2000/svg">
<path d="M4.81445 18.3232C4.81445 17.2624 5.23588 16.245 5.98603 15.4948C6.73617 14.7447 7.75359 14.3232 8.81445 14.3232H16.8145C17.8753 14.3232 18.8927 14.7447 19.6429 15.4948C20.393 16.245 20.8145 17.2624 20.8145 18.3232C20.8145 18.8537 20.6037 19.3624 20.2287 19.7375C19.8536 20.1125 19.3449 20.3232 18.8145 20.3232H6.81445C6.28402 20.3232 5.77531 20.1125 5.40024 19.7375C5.02517 19.3624 4.81445 18.8537 4.81445 18.3232Z" stroke="#CACED8" stroke-width="2" stroke-linejoin="round"/>
<path d="M12.8145 10.3232C14.4713 10.3232 15.8145 8.9801 15.8145 7.32324C15.8145 5.66639 14.4713 4.32324 12.8145 4.32324C11.1576 4.32324 9.81445 5.66639 9.81445 7.32324C9.81445 8.9801 11.1576 10.3232 12.8145 10.3232Z" stroke="#CACED8" stroke-width="2"/>
</svg>
