<svg width="20" height="21" viewBox="0 0 20 21" fill="none" xmlns="http://www.w3.org/2000/svg">
<path d="M2.72843 13.7041C2.02015 12.7839 1.66602 12.3238 1.66602 10.9577C1.66602 9.59154 2.02015 9.13145 2.72843 8.21129C4.14265 6.37398 6.51444 4.29102 9.99935 4.29102C13.4843 4.29102 15.856 6.37398 17.2703 8.21129C17.9785 9.13145 18.3327 9.59154 18.3327 10.9577C18.3327 12.3238 17.9785 12.7839 17.2703 13.7041C15.856 15.5414 13.4843 17.6243 9.99935 17.6243C6.51444 17.6243 4.14265 15.5414 2.72843 13.7041Z" stroke="#1B1C57" stroke-width="1.5"/>
<path d="M12.5 10.9575C12.5 12.3382 11.3807 13.4575 10 13.4575C8.61929 13.4575 7.5 12.3382 7.5 10.9575C7.5 9.57681 8.61929 8.45752 10 8.45752C11.3807 8.45752 12.5 9.57681 12.5 10.9575Z" stroke="#1B1C57" stroke-width="1.5"/>
</svg>
