<svg width="26" height="31" viewBox="0 0 26 31" fill="none" xmlns="http://www.w3.org/2000/svg">
<path fill-rule="evenodd" clip-rule="evenodd" d="M0.019043 13.0019C0.019043 6.11943 5.77034 0.556641 12.7271 0.556641C19.7035 0.556641 25.4548 6.11943 25.4548 13.0019C25.4548 16.47 24.1935 19.6898 22.1175 22.4188C19.8272 25.4291 17.0044 28.0519 13.827 30.1106C13.0998 30.5864 12.4435 30.6223 11.6454 30.1106C8.44986 28.0519 5.62701 25.4291 3.35637 22.4188C1.27884 19.6898 0.019043 16.47 0.019043 13.0019ZM8.53915 13.3893C8.53915 15.6949 10.4205 17.5083 12.7274 17.5083C15.0358 17.5083 16.9353 15.6949 16.9353 13.3893C16.9353 11.1017 15.0358 9.20003 12.7274 9.20003C10.4205 9.20003 8.53915 11.1017 8.53915 13.3893Z" fill="#69B99D"/>
</svg>
