<svg width="17" height="17" viewBox="0 0 17 17" fill="none" xmlns="http://www.w3.org/2000/svg">
<path d="M9.20829 6.37533H7.79163V4.95866H9.20829M9.20829 12.042H7.79163V7.79199H9.20829M8.49996 1.41699C7.56976 1.41699 6.64867 1.60021 5.78928 1.95618C4.9299 2.31215 4.14903 2.8339 3.49129 3.49165C2.1629 4.82004 1.41663 6.62171 1.41663 8.50033C1.41663 10.3789 2.1629 12.1806 3.49129 13.509C4.14903 14.1667 4.9299 14.6885 5.78928 15.0445C6.64867 15.4004 7.56976 15.5837 8.49996 15.5837C10.3786 15.5837 12.1802 14.8374 13.5086 13.509C14.837 12.1806 15.5833 10.3789 15.5833 8.50033C15.5833 7.57013 15.4001 6.64904 15.0441 5.78965C14.6881 4.93026 14.1664 4.1494 13.5086 3.49165C12.8509 2.8339 12.07 2.31215 11.2106 1.95618C10.3512 1.60021 9.43016 1.41699 8.49996 1.41699Z" fill="#C1C1C1"/>
</svg>
