<svg width="20" height="21" viewBox="0 0 20 21" fill="none" xmlns="http://www.w3.org/2000/svg">
<path fill-rule="evenodd" clip-rule="evenodd" d="M8.94301 1.84178C10.4081 1.08855 12.1427 1.08855 13.6078 1.84178C14.3333 2.21475 14.9914 2.87896 16.0848 3.98249C16.1168 4.01485 16.1493 4.04759 16.1821 4.0807C16.2146 4.11346 16.2467 4.14583 16.2784 4.17783C17.3731 5.28209 18.031 5.94579 18.4002 6.67681C19.1448 8.15132 19.1448 9.89583 18.4002 11.3703C18.031 12.1014 17.3731 12.7651 16.2784 13.8693C16.2466 13.9013 16.2146 13.9337 16.1821 13.9664L13.0869 17.0895C12.8245 17.3543 12.6495 17.531 12.4758 17.6654C11.2793 18.5918 9.61389 18.5918 8.41737 17.6654C8.24373 17.531 8.06872 17.3543 7.80633 17.0895L7.73644 17.019C7.47381 16.7541 7.2988 16.5775 7.16567 16.4025C6.25039 15.1989 6.25039 13.5265 7.16567 12.323C7.29879 12.1479 7.4738 11.9714 7.73641 11.7065C7.74787 11.695 7.7595 11.6832 7.7713 11.6713L10.1302 9.29121C10.3732 9.04605 10.7689 9.04428 11.0141 9.28726C11.2592 9.53024 11.261 9.92597 11.018 10.1711L8.65913 12.5512C8.34909 12.8641 8.23756 12.9785 8.16064 13.0797C7.5854 13.8361 7.5854 14.8894 8.16064 15.6458C8.23756 15.747 8.34909 15.8614 8.65913 16.1742C8.96923 16.4871 9.08257 16.5996 9.18261 16.677C9.92859 17.2546 10.9646 17.2546 11.7106 16.677C11.8106 16.5996 11.924 16.4871 12.2341 16.1742L15.2943 13.0865C16.5149 11.8549 17.0159 11.3385 17.2844 10.8069C17.8501 9.6867 17.8501 8.36045 17.2844 7.24027C17.0159 6.70866 16.5149 6.19227 15.2943 4.96062C14.0732 3.72854 13.5619 3.2237 13.0363 2.95347C11.9298 2.38465 10.621 2.38465 9.51454 2.95347C8.98891 3.2237 8.47764 3.72854 7.25654 4.96062L4.14853 8.09658C3.46324 8.78803 3.1799 9.07738 2.99088 9.35103C2.05903 10.7001 2.05903 12.4933 2.99088 13.8423C3.1799 14.1159 3.46324 14.4053 4.14853 15.0968C4.39151 15.3419 4.38974 15.7376 4.14457 15.9806C3.89941 16.2236 3.50368 16.2218 3.2607 15.9767L3.20648 15.922C2.59162 15.3017 2.22252 14.9293 1.96239 14.5527C0.735192 12.7761 0.735191 10.4172 1.96239 8.6406C2.22252 8.26402 2.59162 7.89165 3.20649 7.27135C3.22435 7.25333 3.24242 7.2351 3.2607 7.21666L6.36871 4.0807C6.40153 4.04759 6.43396 4.01485 6.46602 3.9825C7.55943 2.87896 8.21753 2.21475 8.94301 1.84178Z" fill="#494979"/>
</svg>
