<svg width="17" height="17" viewBox="0 0 17 17" fill="none" xmlns="http://www.w3.org/2000/svg">
<path d="M14.5973 5.80433L10.9799 2.22442L12.1715 1.03112C12.4978 0.704385 12.8987 0.541016 13.3742 0.541016C13.8491 0.541016 14.2497 0.704385 14.576 1.03112L15.7676 2.22442C16.0939 2.55116 16.2641 2.94552 16.2783 3.4075C16.2925 3.86891 16.1364 4.26298 15.8102 4.58972L14.5973 5.80433ZM1.57478 16.0966C1.33362 16.0966 1.13161 16.0147 0.968763 15.8511C0.805343 15.688 0.723633 15.4857 0.723633 15.2442V12.8363C0.723633 12.7226 0.744911 12.6127 0.787469 12.5064C0.830026 12.3996 0.893862 12.3036 0.978976 12.2183L9.74577 3.43904L13.3631 7.06156L4.59634 15.8409C4.51123 15.9261 4.41561 15.99 4.30951 16.0326C4.20283 16.0753 4.09275 16.0966 3.97926 16.0966H1.57478Z" fill="#338CFF"/>
</svg>
