<svg width="16" height="16" viewBox="0 0 16 16" fill="none" xmlns="http://www.w3.org/2000/svg">
<path d="M13.2292 2.77083L12.4881 2.65569C12.4513 2.89215 12.5296 3.13195 12.6988 3.30116C12.868 3.47037 13.1078 3.54868 13.3443 3.51194L13.2292 2.77083ZM12.1927 5.66344L12.7528 5.16463C12.6155 5.01047 12.4207 4.91971 12.2144 4.91375C12.008 4.90778 11.8084 4.98713 11.6624 5.13311L12.1927 5.66344ZM5.66344 12.1927L5.13311 11.6624C4.98713 11.8084 4.90778 12.008 4.91375 12.2144C4.91971 12.4207 5.01047 12.6155 5.16463 12.7528L5.66344 12.1927ZM2.77083 13.2292L3.51194 13.3443C3.54868 13.1078 3.47037 12.868 3.30116 12.6988C3.13195 12.5296 2.89215 12.4513 2.65569 12.4881L2.77083 13.2292ZM3.80728 10.3366L3.2472 10.8354C3.38449 10.9895 3.57926 11.0803 3.78561 11.0863C3.99196 11.0922 4.19164 11.0129 4.33761 10.8669L3.80728 10.3366ZM10.3366 3.80728L10.8669 4.33761C11.0129 4.19164 11.0922 3.99196 11.0863 3.78561C11.0803 3.57926 10.9895 3.38449 10.8354 3.2472L10.3366 3.80728ZM13.9703 2.88597C13.9899 2.75974 14 2.6308 14 2.5H12.5C12.5 2.55343 12.4959 2.60538 12.4881 2.65569L13.9703 2.88597ZM13.5 2C13.3692 2 13.2403 2.01011 13.114 2.02972L13.3443 3.51194C13.3946 3.50412 13.4466 3.5 13.5 3.5V2ZM16 4.5C16 3.11929 14.8807 2 13.5 2V3.5C14.0523 3.5 14.5 3.94772 14.5 4.5H16ZM13.5 7C14.8807 7 16 5.88071 16 4.5H14.5C14.5 5.05228 14.0523 5.5 13.5 5.5V7ZM11.6326 6.16224C12.0894 6.67517 12.7573 7 13.5 7V5.5C13.203 5.5 12.937 5.3715 12.7528 5.16463L11.6326 6.16224ZM6.19377 12.723L12.723 6.19377L11.6624 5.13311L5.13311 11.6624L6.19377 12.723ZM7 13.5C7 12.7573 6.67517 12.0894 6.16224 11.6326L5.16463 12.7528C5.3715 12.937 5.5 13.203 5.5 13.5H7ZM4.5 16C5.88071 16 7 14.8807 7 13.5H5.5C5.5 14.0523 5.05228 14.5 4.5 14.5V16ZM2 13.5C2 14.8807 3.11929 16 4.5 16V14.5C3.94772 14.5 3.5 14.0523 3.5 13.5H2ZM2.02972 13.114C2.01011 13.2403 2 13.3692 2 13.5H3.5C3.5 13.4466 3.50412 13.3946 3.51194 13.3443L2.02972 13.114ZM2.5 14C2.6308 14 2.75974 13.9899 2.88597 13.9703L2.65569 12.4881C2.60538 12.4959 2.55343 12.5 2.5 12.5V14ZM0 11.5C0 12.8807 1.11929 14 2.5 14V12.5C1.94772 12.5 1.5 12.0523 1.5 11.5H0ZM2.5 9C1.11929 9 0 10.1193 0 11.5H1.5C1.5 10.9477 1.94772 10.5 2.5 10.5V9ZM4.36736 9.83776C3.91055 9.32483 3.24272 9 2.5 9V10.5C2.79697 10.5 3.06296 10.6285 3.2472 10.8354L4.36736 9.83776ZM9.80623 3.27695L3.27695 9.80623L4.33761 10.8669L10.8669 4.33761L9.80623 3.27695ZM9 2.5C9 3.24272 9.32483 3.91055 9.83776 4.36736L10.8354 3.2472C10.6285 3.06296 10.5 2.79697 10.5 2.5H9ZM11.5 0C10.1193 0 9 1.11929 9 2.5H10.5C10.5 1.94772 10.9477 1.5 11.5 1.5V0ZM14 2.5C14 1.11929 12.8807 0 11.5 0V1.5C12.0523 1.5 12.5 1.94772 12.5 2.5H14Z" fill="black"/>
</svg>
