<svg width="16" height="16" viewBox="0 0 16 16" fill="none" xmlns="http://www.w3.org/2000/svg">
<path d="M14.0489 7.16927V12.49C14.0488 12.6569 14.0036 12.8206 13.9181 12.9639C13.8325 13.1071 13.7099 13.2246 13.563 13.3039C13.43 13.3759 13.2807 13.4126 13.1295 13.4107H10.364C10.2419 13.4107 10.1248 13.3622 10.0384 13.2758C9.9521 13.1895 9.9036 13.0724 9.9036 12.9503V10.1877C9.9036 10.0656 9.8551 9.94849 9.76876 9.86215C9.68242 9.77582 9.56533 9.72731 9.44323 9.72731H7.60175C7.47965 9.72731 7.36255 9.77582 7.27622 9.86215C7.18988 9.94849 7.14138 10.0656 7.14138 10.1877V12.9503C7.14138 13.0724 7.09288 13.1895 7.00654 13.2758C6.9202 13.3622 6.80311 13.4107 6.68101 13.4107H3.92092C3.79039 13.411 3.66129 13.3834 3.54228 13.3298C3.42327 13.2762 3.3171 13.1978 3.23088 13.0998C3.07952 12.9247 2.99742 12.7003 3.00006 12.4689V7.16921C3.00016 7.04093 3.02702 6.91408 3.07891 6.79676C3.1308 6.67944 3.20659 6.57424 3.30143 6.48786L7.90473 2.30235C8.07382 2.14747 8.2948 2.06154 8.52411 2.06152C8.75341 2.0615 8.97441 2.14738 9.14353 2.30223L13.7476 6.48792C13.8425 6.57431 13.9182 6.67952 13.9701 6.79684C14.022 6.91415 14.0488 7.04099 14.0489 7.16927Z" fill="#1B1C57"/>
</svg>
