<svg width="110" height="44" viewBox="0 0 110 44" fill="none" xmlns="http://www.w3.org/2000/svg">
<path d="M58.75 7.25147C60.3813 7.26055 61.2647 7.33288 61.841 7.90917C62.5 8.56818 62.5 9.62884 62.5 11.7502V12.5002C62.5 14.6215 62.5 15.6821 61.841 16.3412C61.182 17.0002 60.1213 17.0002 58 17.0002H52C49.8787 17.0002 48.818 17.0002 48.159 16.3412C47.5 15.6821 47.5 14.6215 47.5 12.5002L47.5 11.7502C47.5 9.62884 47.5 8.56818 48.159 7.90917C48.7353 7.33288 49.6187 7.26054 51.25 7.25146" stroke="#338CFF" stroke-linecap="round"/>
<path d="M55 11.75L55 2M55 2L57.25 4.625M55 2L52.75 4.625" stroke="#338CFF" stroke-linecap="round" stroke-linejoin="round"/>
<path d="M22.0144 28.7727H23.3354V34.5128C23.3354 35.1236 23.1919 35.6648 22.905 36.1364C22.6181 36.6051 22.2147 36.9744 21.6948 37.2443C21.1749 37.5114 20.5655 37.6449 19.8667 37.6449C19.1706 37.6449 18.5627 37.5114 18.0428 37.2443C17.5229 36.9744 17.1195 36.6051 16.8326 36.1364C16.5456 35.6648 16.4022 35.1236 16.4022 34.5128V28.7727H17.7189V34.4062C17.7189 34.8011 17.8056 35.152 17.9789 35.4588C18.155 35.7656 18.4036 36.0071 18.7246 36.1832C19.0456 36.3565 19.4263 36.4432 19.8667 36.4432C20.3098 36.4432 20.6919 36.3565 21.013 36.1832C21.3368 36.0071 21.584 35.7656 21.7544 35.4588C21.9277 35.152 22.0144 34.8011 22.0144 34.4062V28.7727ZM25.1475 39.9545V30.9545H26.3919V32.0156H26.4984C26.5723 31.8793 26.6788 31.7216 26.818 31.5426C26.9572 31.3636 27.1504 31.2074 27.3975 31.0739C27.6447 30.9375 27.9714 30.8693 28.3777 30.8693C28.9061 30.8693 29.3777 31.0028 29.7924 31.2699C30.2072 31.5369 30.5325 31.9219 30.7683 32.4247C31.0069 32.9276 31.1262 33.5327 31.1262 34.2401C31.1262 34.9474 31.0083 35.554 30.7726 36.0597C30.5368 36.5625 30.2129 36.9503 29.801 37.223C29.389 37.4929 28.9189 37.6278 28.3904 37.6278C27.9927 37.6278 27.6674 37.5611 27.4146 37.4276C27.1646 37.294 26.9686 37.1378 26.8265 36.9588C26.6845 36.7798 26.5751 36.6207 26.4984 36.4815H26.4217V39.9545H25.1475ZM26.3961 34.2273C26.3961 34.6875 26.4629 35.0909 26.5964 35.4375C26.7299 35.7841 26.9231 36.0554 27.176 36.2514C27.4288 36.4446 27.7385 36.5412 28.1049 36.5412C28.4856 36.5412 28.8038 36.4403 29.0595 36.2386C29.3152 36.0341 29.5083 35.7571 29.639 35.4077C29.7725 35.0582 29.8393 34.6648 29.8393 34.2273C29.8393 33.7955 29.774 33.4077 29.6433 33.0639C29.5154 32.7202 29.3223 32.4489 29.0637 32.25C28.8081 32.0511 28.4885 31.9517 28.1049 31.9517C27.7356 31.9517 27.4231 32.0469 27.1674 32.2372C26.9146 32.4276 26.7228 32.6932 26.5922 33.0341C26.4615 33.375 26.3961 33.7727 26.3961 34.2273ZM33.8279 28.7727V37.5H32.5538V28.7727H33.8279ZM38.2992 37.6321C37.6855 37.6321 37.15 37.4915 36.6926 37.2102C36.2353 36.929 35.8801 36.5355 35.6273 36.0298C35.3745 35.5241 35.248 34.9332 35.248 34.2571C35.248 33.5781 35.3745 32.9844 35.6273 32.4759C35.8801 31.9673 36.2353 31.5724 36.6926 31.2912C37.15 31.0099 37.6855 30.8693 38.2992 30.8693C38.9128 30.8693 39.4483 31.0099 39.9057 31.2912C40.3631 31.5724 40.7182 31.9673 40.9711 32.4759C41.2239 32.9844 41.3503 33.5781 41.3503 34.2571C41.3503 34.9332 41.2239 35.5241 40.9711 36.0298C40.7182 36.5355 40.3631 36.929 39.9057 37.2102C39.4483 37.4915 38.9128 37.6321 38.2992 37.6321ZM38.3034 36.5625C38.7012 36.5625 39.0307 36.4574 39.2921 36.2472C39.5534 36.0369 39.7466 35.7571 39.8716 35.4077C39.9995 35.0582 40.0634 34.6733 40.0634 34.2528C40.0634 33.8352 39.9995 33.4517 39.8716 33.1023C39.7466 32.75 39.5534 32.4673 39.2921 32.2543C39.0307 32.0412 38.7012 31.9347 38.3034 31.9347C37.9029 31.9347 37.5705 32.0412 37.3063 32.2543C37.0449 32.4673 36.8503 32.75 36.7225 33.1023C36.5975 33.4517 36.535 33.8352 36.535 34.2528C36.535 34.6733 36.5975 35.0582 36.7225 35.4077C36.8503 35.7571 37.0449 36.0369 37.3063 36.2472C37.5705 36.4574 37.9029 36.5625 38.3034 36.5625ZM44.6774 37.6449C44.2626 37.6449 43.8876 37.5682 43.5524 37.4148C43.2172 37.2585 42.9515 37.0327 42.7555 36.7372C42.5623 36.4418 42.4657 36.0795 42.4657 35.6506C42.4657 35.2812 42.5368 34.9773 42.6788 34.7386C42.8208 34.5 43.0126 34.3111 43.2541 34.1719C43.4956 34.0327 43.7654 33.9276 44.0637 33.8565C44.362 33.7855 44.666 33.7315 44.9757 33.6946C45.3677 33.6491 45.6859 33.6122 45.9302 33.5838C46.1745 33.5526 46.3521 33.5028 46.4629 33.4347C46.5737 33.3665 46.6291 33.2557 46.6291 33.1023V33.0724C46.6291 32.7003 46.524 32.4119 46.3137 32.2074C46.1064 32.0028 45.7967 31.9006 45.3848 31.9006C44.9558 31.9006 44.6177 31.9957 44.3706 32.1861C44.1262 32.3736 43.9572 32.5824 43.8635 32.8125L42.666 32.5398C42.8081 32.142 43.0154 31.821 43.2882 31.5767C43.5637 31.3295 43.8805 31.1506 44.2385 31.0398C44.5964 30.9261 44.9728 30.8693 45.3677 30.8693C45.6291 30.8693 45.9061 30.9006 46.1987 30.9631C46.4941 31.0227 46.7697 31.1335 47.0254 31.2955C47.2839 31.4574 47.4956 31.6889 47.6603 31.9901C47.8251 32.2884 47.9075 32.6761 47.9075 33.1534V37.5H46.6632V36.6051H46.612C46.5297 36.7699 46.4061 36.9318 46.2413 37.0909C46.0765 37.25 45.8649 37.3821 45.6064 37.4872C45.3478 37.5923 45.0382 37.6449 44.6774 37.6449ZM44.9544 36.6222C45.3066 36.6222 45.6078 36.5526 45.8578 36.4134C46.1106 36.2741 46.3024 36.0923 46.4331 35.8679C46.5666 35.6406 46.6333 35.3977 46.6333 35.1392V34.2955C46.5879 34.3409 46.4998 34.3835 46.3691 34.4233C46.2413 34.4602 46.095 34.4929 45.9302 34.5213C45.7654 34.5469 45.6049 34.571 45.4487 34.5938C45.2924 34.6136 45.1618 34.6307 45.0566 34.6449C44.8095 34.6761 44.5836 34.7287 44.3791 34.8026C44.1774 34.8764 44.0154 34.983 43.8933 35.1222C43.774 35.2585 43.7143 35.4403 43.7143 35.6676C43.7143 35.983 43.8308 36.2216 44.0637 36.3835C44.2967 36.5426 44.5936 36.6222 44.9544 36.6222ZM52.0549 37.6278C51.5265 37.6278 51.0549 37.4929 50.6401 37.223C50.2282 36.9503 49.9043 36.5625 49.6685 36.0597C49.4355 35.554 49.3191 34.9474 49.3191 34.2401C49.3191 33.5327 49.437 32.9276 49.6728 32.4247C49.9114 31.9219 50.2381 31.5369 50.6529 31.2699C51.0676 31.0028 51.5378 30.8693 52.0634 30.8693C52.4696 30.8693 52.7963 30.9375 53.0435 31.0739C53.2935 31.2074 53.4867 31.3636 53.623 31.5426C53.7623 31.7216 53.8702 31.8793 53.9469 32.0156H54.0236V28.7727H55.2978V37.5H54.0534V36.4815H53.9469C53.8702 36.6207 53.7594 36.7798 53.6145 36.9588C53.4725 37.1378 53.2765 37.294 53.0265 37.4276C52.7765 37.5611 52.4526 37.6278 52.0549 37.6278ZM52.3361 36.5412C52.7026 36.5412 53.0123 36.4446 53.2651 36.2514C53.5208 36.0554 53.714 35.7841 53.8446 35.4375C53.9782 35.0909 54.0449 34.6875 54.0449 34.2273C54.0449 33.7727 53.9796 33.375 53.8489 33.0341C53.7182 32.6932 53.5265 32.4276 53.2736 32.2372C53.0208 32.0469 52.7083 31.9517 52.3361 31.9517C51.9526 31.9517 51.633 32.0511 51.3773 32.25C51.1216 32.4489 50.9284 32.7202 50.7978 33.0639C50.6699 33.4077 50.606 33.7955 50.606 34.2273C50.606 34.6648 50.6713 35.0582 50.802 35.4077C50.9327 35.7571 51.1259 36.0341 51.3816 36.2386C51.6401 36.4403 51.9583 36.5412 52.3361 36.5412ZM61.7111 28.7727V37.5H60.3944V28.7727H61.7111ZM63.5265 37.5V30.9545H64.7495V32.0199H64.8304C64.9668 31.6591 65.1898 31.3778 65.4995 31.1761C65.8091 30.9716 66.1799 30.8693 66.6117 30.8693C67.0492 30.8693 67.4157 30.9716 67.7111 31.1761C68.0094 31.3807 68.2296 31.6619 68.3716 32.0199H68.4398C68.5961 31.6705 68.8446 31.392 69.1855 31.1847C69.5265 30.9744 69.9327 30.8693 70.4043 30.8693C70.998 30.8693 71.4824 31.0554 71.8574 31.4276C72.2353 31.7997 72.4242 32.3608 72.4242 33.1108V37.5H71.15V33.2301C71.15 32.7869 71.0293 32.4659 70.7878 32.267C70.5463 32.0682 70.258 31.9688 69.9228 31.9688C69.508 31.9688 69.1855 32.0966 68.9554 32.3523C68.7253 32.6051 68.6103 32.9304 68.6103 33.3281V37.5H67.3404V33.1491C67.3404 32.794 67.2296 32.5085 67.008 32.2926C66.7864 32.0767 66.498 31.9688 66.1429 31.9688C65.9015 31.9688 65.6784 32.0327 65.4739 32.1605C65.2722 32.2855 65.1088 32.4602 64.9838 32.6847C64.8617 32.9091 64.8006 33.169 64.8006 33.4645V37.5H63.5265ZM76.0368 37.6449C75.622 37.6449 75.247 37.5682 74.9118 37.4148C74.5765 37.2585 74.3109 37.0327 74.1149 36.7372C73.9217 36.4418 73.8251 36.0795 73.8251 35.6506C73.8251 35.2812 73.8961 34.9773 74.0382 34.7386C74.1802 34.5 74.372 34.3111 74.6135 34.1719C74.8549 34.0327 75.1248 33.9276 75.4231 33.8565C75.7214 33.7855 76.0254 33.7315 76.335 33.6946C76.7271 33.6491 77.0453 33.6122 77.2896 33.5838C77.5339 33.5526 77.7115 33.5028 77.8223 33.4347C77.9331 33.3665 77.9885 33.2557 77.9885 33.1023V33.0724C77.9885 32.7003 77.8833 32.4119 77.6731 32.2074C77.4657 32.0028 77.1561 31.9006 76.7441 31.9006C76.3152 31.9006 75.9771 31.9957 75.7299 32.1861C75.4856 32.3736 75.3166 32.5824 75.2228 32.8125L74.0254 32.5398C74.1674 32.142 74.3748 31.821 74.6475 31.5767C74.9231 31.3295 75.2399 31.1506 75.5978 31.0398C75.9558 30.9261 76.3322 30.8693 76.7271 30.8693C76.9885 30.8693 77.2654 30.9006 77.5581 30.9631C77.8535 31.0227 78.1291 31.1335 78.3848 31.2955C78.6433 31.4574 78.8549 31.6889 79.0197 31.9901C79.1845 32.2884 79.2669 32.6761 79.2669 33.1534V37.5H78.0225V36.6051H77.9714C77.889 36.7699 77.7654 36.9318 77.6007 37.0909C77.4359 37.25 77.2243 37.3821 76.9657 37.4872C76.7072 37.5923 76.3975 37.6449 76.0368 37.6449ZM76.3137 36.6222C76.666 36.6222 76.9672 36.5526 77.2172 36.4134C77.47 36.2741 77.6618 36.0923 77.7924 35.8679C77.926 35.6406 77.9927 35.3977 77.9927 35.1392V34.2955C77.9473 34.3409 77.8592 34.3835 77.7285 34.4233C77.6007 34.4602 77.4544 34.4929 77.2896 34.5213C77.1248 34.5469 76.9643 34.571 76.8081 34.5938C76.6518 34.6136 76.5211 34.6307 76.416 34.6449C76.1689 34.6761 75.943 34.7287 75.7385 34.8026C75.5368 34.8764 75.3748 34.983 75.2527 35.1222C75.1333 35.2585 75.0737 35.4403 75.0737 35.6676C75.0737 35.983 75.1902 36.2216 75.4231 36.3835C75.6561 36.5426 75.9529 36.6222 76.3137 36.6222ZM83.7083 40.0909C83.1884 40.0909 82.7409 40.0227 82.3659 39.8864C81.9938 39.75 81.6898 39.5696 81.454 39.3452C81.2182 39.1207 81.0421 38.875 80.9256 38.608L82.0208 38.1562C82.0975 38.2812 82.1998 38.4134 82.3276 38.5526C82.4583 38.6946 82.6344 38.8153 82.856 38.9148C83.0804 39.0142 83.3688 39.0639 83.7211 39.0639C84.204 39.0639 84.6032 38.946 84.9185 38.7102C85.2338 38.4773 85.3915 38.1051 85.3915 37.5938V36.3068H85.3105C85.2338 36.446 85.123 36.6009 84.9782 36.7713C84.8361 36.9418 84.6401 37.0895 84.3901 37.2145C84.1401 37.3395 83.8148 37.402 83.4142 37.402C82.8972 37.402 82.4313 37.2812 82.0165 37.0398C81.6046 36.7955 81.2779 36.4361 81.0364 35.9616C80.7978 35.4844 80.6784 34.8977 80.6784 34.2017C80.6784 33.5057 80.7963 32.9091 81.0321 32.4119C81.2708 31.9148 81.5975 31.5341 82.0123 31.2699C82.427 31.0028 82.8972 30.8693 83.4228 30.8693C83.829 30.8693 84.1571 30.9375 84.4071 31.0739C84.6571 31.2074 84.8517 31.3636 84.9909 31.5426C85.133 31.7216 85.2424 31.8793 85.3191 32.0156H85.4128V30.9545H86.6614V37.6449C86.6614 38.2074 86.5307 38.669 86.2694 39.0298C86.008 39.3906 85.6543 39.6577 85.2083 39.831C84.7651 40.0043 84.2651 40.0909 83.7083 40.0909ZM83.6955 36.3452C84.062 36.3452 84.3716 36.2599 84.6245 36.0895C84.8801 35.9162 85.0733 35.669 85.204 35.348C85.3375 35.0241 85.4043 34.6364 85.4043 34.1847C85.4043 33.7443 85.339 33.3565 85.2083 33.0213C85.0776 32.6861 84.8858 32.4247 84.633 32.2372C84.3801 32.0469 84.0676 31.9517 83.6955 31.9517C83.312 31.9517 82.9924 32.0511 82.7367 32.25C82.481 32.446 82.2878 32.7131 82.1571 33.0511C82.0293 33.3892 81.9654 33.767 81.9654 34.1847C81.9654 34.6136 82.0307 34.9901 82.1614 35.3139C82.2921 35.6378 82.4853 35.8906 82.7409 36.0724C82.9995 36.2543 83.3176 36.3452 83.6955 36.3452ZM91.1912 37.6321C90.5463 37.6321 89.9909 37.4943 89.525 37.2188C89.062 36.9403 88.704 36.5497 88.4512 36.0469C88.2012 35.5412 88.0762 34.9489 88.0762 34.2699C88.0762 33.5994 88.2012 33.0085 88.4512 32.4972C88.704 31.9858 89.0563 31.5866 89.508 31.2997C89.9625 31.0128 90.4938 30.8693 91.1017 30.8693C91.4711 30.8693 91.829 30.9304 92.1756 31.0526C92.5222 31.1747 92.8333 31.3665 93.1088 31.6278C93.3844 31.8892 93.6017 32.2287 93.7608 32.6463C93.9199 33.0611 93.9995 33.5653 93.9995 34.1591V34.6108H88.7963V33.6562H92.7509C92.7509 33.321 92.6827 33.0241 92.5463 32.7656C92.41 32.5043 92.2182 32.2983 91.9711 32.1477C91.7267 31.9972 91.4398 31.9219 91.1103 31.9219C90.7523 31.9219 90.4398 32.0099 90.1728 32.1861C89.9086 32.3594 89.704 32.5866 89.5591 32.8679C89.4171 33.1463 89.3461 33.4489 89.3461 33.7756V34.5213C89.3461 34.9588 89.4228 35.331 89.5762 35.6378C89.7324 35.9446 89.9498 36.179 90.2282 36.3409C90.5066 36.5 90.8319 36.5795 91.204 36.5795C91.4455 36.5795 91.6657 36.5455 91.8645 36.4773C92.0634 36.4062 92.2353 36.3011 92.3801 36.1619C92.525 36.0227 92.6358 35.8509 92.7125 35.6463L93.9185 35.8636C93.8219 36.2187 93.6486 36.5298 93.3986 36.7969C93.1515 37.0611 92.8404 37.267 92.4654 37.4148C92.0932 37.5597 91.6685 37.6321 91.1912 37.6321Z" fill="#338CFF"/>
</svg>
