<svg width="31" height="28" viewBox="0 0 31 28" fill="none" xmlns="http://www.w3.org/2000/svg">
<path fill-rule="evenodd" clip-rule="evenodd" d="M27.3491 13.6364C27.3491 14.8536 28.3485 15.8439 29.5769 15.8439C30.1964 15.8439 30.6991 16.3421 30.6991 16.9559V20.9602C30.6991 24.3464 27.9191 27.1009 24.5017 27.1009H6.9735C3.55613 27.1009 0.774658 24.3464 0.774658 20.9602V16.9559C0.774658 16.3421 1.27739 15.8439 1.89682 15.8439C3.12672 15.8439 4.12619 14.8536 4.12619 13.6364C4.12619 12.4504 3.16712 11.5579 1.89682 11.5579C1.59908 11.5579 1.31479 11.4408 1.10383 11.2317C0.89286 11.0227 0.774658 10.7395 0.774658 10.446L0.777651 6.31115C0.777651 2.925 3.55763 0.168945 6.975 0.168945H24.4987C27.9161 0.168945 30.6976 2.925 30.6976 6.31115L30.6991 10.317C30.6991 10.6105 30.5809 10.8952 30.3714 11.1027C30.1605 11.3118 29.8762 11.4289 29.5769 11.4289C28.3485 11.4289 27.3491 12.4192 27.3491 13.6364ZM19.106 14.6045L20.87 12.9026C21.1767 12.609 21.283 12.1761 21.1498 11.7758C21.0181 11.3755 20.674 11.0909 20.258 11.0331L17.8207 10.6802L16.73 8.49197C16.5429 8.1154 16.1629 7.88116 15.7395 7.87967H15.7365C15.3145 7.87967 14.9345 8.11392 14.7445 8.49048L13.6537 10.6802L11.2209 11.0316C10.8004 11.0909 10.4563 11.3755 10.3231 11.7758C10.1915 12.1761 10.2977 12.609 10.6029 12.9026L12.367 14.6045L11.951 17.0107C11.8792 17.4258 12.0483 17.838 12.3924 18.0855C12.5869 18.2234 12.8128 18.2946 13.0418 18.2946C13.2168 18.2946 13.3934 18.2516 13.555 18.1671L15.7365 17.0315L17.9135 18.1641C18.2905 18.3643 18.7379 18.3331 19.0805 18.0841C19.4261 17.838 19.5952 17.4258 19.5234 17.0107L19.106 14.6045Z" fill="#69B99D"/>
</svg>
