<svg width="78" height="13" viewBox="0 0 78 13" fill="none" xmlns="http://www.w3.org/2000/svg">
<path d="M6.01438 0.772727H7.33541V6.51278C7.33541 7.12358 7.19194 7.66477 6.90501 8.13636C6.61808 8.60511 6.21467 8.97443 5.69478 9.24432C5.17489 9.51136 4.56552 9.64489 3.86665 9.64489C3.17063 9.64489 2.56268 9.51136 2.04279 9.24432C1.5229 8.97443 1.1195 8.60511 0.832564 8.13636C0.545632 7.66477 0.402166 7.12358 0.402166 6.51278V0.772727H1.71893V6.40625C1.71893 6.80114 1.80558 7.15199 1.97887 7.45881C2.15501 7.76562 2.40359 8.0071 2.72461 8.18324C3.04563 8.35653 3.42631 8.44318 3.86665 8.44318C4.30984 8.44318 4.69194 8.35653 5.01296 8.18324C5.33683 8.0071 5.58398 7.76562 5.75444 7.45881C5.92773 7.15199 6.01438 6.80114 6.01438 6.40625V0.772727ZM9.14755 11.9545V2.95455H10.3919V4.01562H10.4984C10.5723 3.87926 10.6788 3.72159 10.818 3.54261C10.9572 3.36364 11.1504 3.20739 11.3975 3.07386C11.6447 2.9375 11.9714 2.86932 12.3777 2.86932C12.9061 2.86932 13.3777 3.00284 13.7924 3.26989C14.2072 3.53693 14.5325 3.92187 14.7683 4.42472C15.0069 4.92756 15.1262 5.53267 15.1262 6.24006C15.1262 6.94744 15.0083 7.55398 14.7726 8.05966C14.5368 8.5625 14.2129 8.95028 13.801 9.22301C13.389 9.4929 12.9189 9.62784 12.3904 9.62784C11.9927 9.62784 11.6674 9.56108 11.4146 9.42756C11.1646 9.29403 10.9686 9.13778 10.8265 8.95881C10.6845 8.77983 10.5751 8.62074 10.4984 8.48153H10.4217V11.9545H9.14755ZM10.3961 6.22727C10.3961 6.6875 10.4629 7.09091 10.5964 7.4375C10.7299 7.78409 10.9231 8.0554 11.176 8.25142C11.4288 8.4446 11.7385 8.54119 12.1049 8.54119C12.4856 8.54119 12.8038 8.44034 13.0595 8.23864C13.3152 8.03409 13.5083 7.7571 13.639 7.40767C13.7725 7.05824 13.8393 6.66477 13.8393 6.22727C13.8393 5.79545 13.774 5.40767 13.6433 5.06392C13.5154 4.72017 13.3223 4.44886 13.0637 4.25C12.8081 4.05114 12.4885 3.9517 12.1049 3.9517C11.7356 3.9517 11.4231 4.04687 11.1674 4.23722C10.9146 4.42756 10.7228 4.69318 10.5922 5.03409C10.4615 5.375 10.3961 5.77273 10.3961 6.22727ZM17.8279 0.772727V9.5H16.5538V0.772727H17.8279ZM22.2992 9.6321C21.6855 9.6321 21.15 9.49148 20.6926 9.21023C20.2353 8.92898 19.8801 8.53551 19.6273 8.02983C19.3745 7.52415 19.248 6.93324 19.248 6.2571C19.248 5.57812 19.3745 4.98437 19.6273 4.47585C19.8801 3.96733 20.2353 3.57244 20.6926 3.29119C21.15 3.00994 21.6855 2.86932 22.2992 2.86932C22.9128 2.86932 23.4483 3.00994 23.9057 3.29119C24.3631 3.57244 24.7182 3.96733 24.9711 4.47585C25.2239 4.98437 25.3503 5.57812 25.3503 6.2571C25.3503 6.93324 25.2239 7.52415 24.9711 8.02983C24.7182 8.53551 24.3631 8.92898 23.9057 9.21023C23.4483 9.49148 22.9128 9.6321 22.2992 9.6321ZM22.3034 8.5625C22.7012 8.5625 23.0307 8.45739 23.2921 8.24716C23.5534 8.03693 23.7466 7.7571 23.8716 7.40767C23.9995 7.05824 24.0634 6.6733 24.0634 6.25284C24.0634 5.83523 23.9995 5.4517 23.8716 5.10227C23.7466 4.75 23.5534 4.46733 23.2921 4.25426C23.0307 4.04119 22.7012 3.93466 22.3034 3.93466C21.9029 3.93466 21.5705 4.04119 21.3063 4.25426C21.0449 4.46733 20.8503 4.75 20.7225 5.10227C20.5975 5.4517 20.535 5.83523 20.535 6.25284C20.535 6.6733 20.5975 7.05824 20.7225 7.40767C20.8503 7.7571 21.0449 8.03693 21.3063 8.24716C21.5705 8.45739 21.9029 8.5625 22.3034 8.5625ZM28.6774 9.64489C28.2626 9.64489 27.8876 9.56818 27.5524 9.41477C27.2172 9.25852 26.9515 9.03267 26.7555 8.73722C26.5623 8.44176 26.4657 8.07955 26.4657 7.65057C26.4657 7.28125 26.5368 6.97727 26.6788 6.73864C26.8208 6.5 27.0126 6.31108 27.2541 6.17188C27.4956 6.03267 27.7654 5.92756 28.0637 5.85653C28.362 5.78551 28.666 5.73153 28.9757 5.6946C29.3677 5.64915 29.6859 5.61222 29.9302 5.58381C30.1745 5.55256 30.3521 5.50284 30.4629 5.43466C30.5737 5.36648 30.6291 5.25568 30.6291 5.10227V5.07244C30.6291 4.70028 30.524 4.41193 30.3137 4.20739C30.1064 4.00284 29.7967 3.90057 29.3848 3.90057C28.9558 3.90057 28.6177 3.99574 28.3706 4.18608C28.1262 4.37358 27.9572 4.58239 27.8635 4.8125L26.666 4.53977C26.8081 4.14205 27.0154 3.82102 27.2882 3.5767C27.5637 3.32955 27.8805 3.15057 28.2385 3.03977C28.5964 2.92614 28.9728 2.86932 29.3677 2.86932C29.6291 2.86932 29.9061 2.90057 30.1987 2.96307C30.4941 3.02273 30.7697 3.13352 31.0254 3.29545C31.2839 3.45739 31.4956 3.68892 31.6603 3.99006C31.8251 4.28835 31.9075 4.67614 31.9075 5.15341V9.5H30.6632V8.60511H30.612C30.5297 8.76989 30.4061 8.93182 30.2413 9.09091C30.0765 9.25 29.8649 9.3821 29.6064 9.48722C29.3478 9.59233 29.0382 9.64489 28.6774 9.64489ZM28.9544 8.62216C29.3066 8.62216 29.6078 8.55256 29.8578 8.41335C30.1106 8.27415 30.3024 8.09233 30.4331 7.8679C30.5666 7.64062 30.6333 7.39773 30.6333 7.1392V6.29545C30.5879 6.34091 30.4998 6.38352 30.3691 6.4233C30.2413 6.46023 30.095 6.4929 29.9302 6.52131C29.7654 6.54687 29.6049 6.57102 29.4487 6.59375C29.2924 6.61364 29.1618 6.63068 29.0566 6.64489C28.8095 6.67614 28.5836 6.72869 28.3791 6.80256C28.1774 6.87642 28.0154 6.98295 27.8933 7.12216C27.774 7.25852 27.7143 7.44034 27.7143 7.66761C27.7143 7.98295 27.8308 8.22159 28.0637 8.38352C28.2967 8.54261 28.5936 8.62216 28.9544 8.62216ZM36.0549 9.62784C35.5265 9.62784 35.0549 9.4929 34.6401 9.22301C34.2282 8.95028 33.9043 8.5625 33.6685 8.05966C33.4355 7.55398 33.3191 6.94744 33.3191 6.24006C33.3191 5.53267 33.437 4.92756 33.6728 4.42472C33.9114 3.92187 34.2381 3.53693 34.6529 3.26989C35.0676 3.00284 35.5378 2.86932 36.0634 2.86932C36.4696 2.86932 36.7963 2.9375 37.0435 3.07386C37.2935 3.20739 37.4867 3.36364 37.623 3.54261C37.7623 3.72159 37.8702 3.87926 37.9469 4.01562H38.0236V0.772727H39.2978V9.5H38.0534V8.48153H37.9469C37.8702 8.62074 37.7594 8.77983 37.6145 8.95881C37.4725 9.13778 37.2765 9.29403 37.0265 9.42756C36.7765 9.56108 36.4526 9.62784 36.0549 9.62784ZM36.3361 8.54119C36.7026 8.54119 37.0123 8.4446 37.2651 8.25142C37.5208 8.0554 37.714 7.78409 37.8446 7.4375C37.9782 7.09091 38.0449 6.6875 38.0449 6.22727C38.0449 5.77273 37.9796 5.375 37.8489 5.03409C37.7182 4.69318 37.5265 4.42756 37.2736 4.23722C37.0208 4.04687 36.7083 3.9517 36.3361 3.9517C35.9526 3.9517 35.633 4.05114 35.3773 4.25C35.1216 4.44886 34.9284 4.72017 34.7978 5.06392C34.6699 5.40767 34.606 5.79545 34.606 6.22727C34.606 6.66477 34.6713 7.05824 34.802 7.40767C34.9327 7.7571 35.1259 8.03409 35.3816 8.23864C35.6401 8.44034 35.9583 8.54119 36.3361 8.54119ZM45.7111 0.772727V9.5H44.3944V0.772727H45.7111ZM47.5265 9.5V2.95455H48.7495V4.01989H48.8304C48.9668 3.65909 49.1898 3.37784 49.4995 3.17614C49.8091 2.97159 50.1799 2.86932 50.6117 2.86932C51.0492 2.86932 51.4157 2.97159 51.7111 3.17614C52.0094 3.38068 52.2296 3.66193 52.3716 4.01989H52.4398C52.5961 3.67045 52.8446 3.39205 53.1855 3.18466C53.5265 2.97443 53.9327 2.86932 54.4043 2.86932C54.998 2.86932 55.4824 3.0554 55.8574 3.42756C56.2353 3.79972 56.4242 4.3608 56.4242 5.1108V9.5H55.15V5.23011C55.15 4.78693 55.0293 4.46591 54.7878 4.26705C54.5463 4.06818 54.258 3.96875 53.9228 3.96875C53.508 3.96875 53.1855 4.09659 52.9554 4.35227C52.7253 4.60511 52.6103 4.9304 52.6103 5.32812V9.5H51.3404V5.14915C51.3404 4.79403 51.2296 4.50852 51.008 4.29261C50.7864 4.0767 50.498 3.96875 50.1429 3.96875C49.9015 3.96875 49.6784 4.03267 49.4739 4.16051C49.2722 4.28551 49.1088 4.46023 48.9838 4.68466C48.8617 4.90909 48.8006 5.16903 48.8006 5.46449V9.5H47.5265ZM60.0368 9.64489C59.622 9.64489 59.247 9.56818 58.9118 9.41477C58.5765 9.25852 58.3109 9.03267 58.1149 8.73722C57.9217 8.44176 57.8251 8.07955 57.8251 7.65057C57.8251 7.28125 57.8961 6.97727 58.0382 6.73864C58.1802 6.5 58.372 6.31108 58.6135 6.17188C58.8549 6.03267 59.1248 5.92756 59.4231 5.85653C59.7214 5.78551 60.0254 5.73153 60.335 5.6946C60.7271 5.64915 61.0453 5.61222 61.2896 5.58381C61.5339 5.55256 61.7115 5.50284 61.8223 5.43466C61.9331 5.36648 61.9885 5.25568 61.9885 5.10227V5.07244C61.9885 4.70028 61.8833 4.41193 61.6731 4.20739C61.4657 4.00284 61.1561 3.90057 60.7441 3.90057C60.3152 3.90057 59.9771 3.99574 59.7299 4.18608C59.4856 4.37358 59.3166 4.58239 59.2228 4.8125L58.0254 4.53977C58.1674 4.14205 58.3748 3.82102 58.6475 3.5767C58.9231 3.32955 59.2399 3.15057 59.5978 3.03977C59.9558 2.92614 60.3322 2.86932 60.7271 2.86932C60.9885 2.86932 61.2654 2.90057 61.5581 2.96307C61.8535 3.02273 62.1291 3.13352 62.3848 3.29545C62.6433 3.45739 62.8549 3.68892 63.0197 3.99006C63.1845 4.28835 63.2669 4.67614 63.2669 5.15341V9.5H62.0225V8.60511H61.9714C61.889 8.76989 61.7654 8.93182 61.6007 9.09091C61.4359 9.25 61.2243 9.3821 60.9657 9.48722C60.7072 9.59233 60.3975 9.64489 60.0368 9.64489ZM60.3137 8.62216C60.666 8.62216 60.9672 8.55256 61.2172 8.41335C61.47 8.27415 61.6618 8.09233 61.7924 7.8679C61.926 7.64062 61.9927 7.39773 61.9927 7.1392V6.29545C61.9473 6.34091 61.8592 6.38352 61.7285 6.4233C61.6007 6.46023 61.4544 6.4929 61.2896 6.52131C61.1248 6.54687 60.9643 6.57102 60.8081 6.59375C60.6518 6.61364 60.5211 6.63068 60.416 6.64489C60.1689 6.67614 59.943 6.72869 59.7385 6.80256C59.5368 6.87642 59.3748 6.98295 59.2527 7.12216C59.1333 7.25852 59.0737 7.44034 59.0737 7.66761C59.0737 7.98295 59.1902 8.22159 59.4231 8.38352C59.6561 8.54261 59.9529 8.62216 60.3137 8.62216ZM67.7083 12.0909C67.1884 12.0909 66.7409 12.0227 66.3659 11.8864C65.9938 11.75 65.6898 11.5696 65.454 11.3452C65.2182 11.1207 65.0421 10.875 64.9256 10.608L66.0208 10.1562C66.0975 10.2812 66.1998 10.4134 66.3276 10.5526C66.4583 10.6946 66.6344 10.8153 66.856 10.9148C67.0804 11.0142 67.3688 11.0639 67.7211 11.0639C68.204 11.0639 68.6032 10.946 68.9185 10.7102C69.2338 10.4773 69.3915 10.1051 69.3915 9.59375V8.30682H69.3105C69.2338 8.44602 69.123 8.60085 68.9782 8.77131C68.8361 8.94176 68.6401 9.08949 68.3901 9.21449C68.1401 9.33949 67.8148 9.40199 67.4142 9.40199C66.8972 9.40199 66.4313 9.28125 66.0165 9.03977C65.6046 8.79545 65.2779 8.43608 65.0364 7.96165C64.7978 7.48437 64.6784 6.89773 64.6784 6.2017C64.6784 5.50568 64.7963 4.90909 65.0321 4.41193C65.2708 3.91477 65.5975 3.53409 66.0123 3.26989C66.427 3.00284 66.8972 2.86932 67.4228 2.86932C67.829 2.86932 68.1571 2.9375 68.4071 3.07386C68.6571 3.20739 68.8517 3.36364 68.9909 3.54261C69.133 3.72159 69.2424 3.87926 69.3191 4.01562H69.4128V2.95455H70.6614V9.64489C70.6614 10.2074 70.5307 10.669 70.2694 11.0298C70.008 11.3906 69.6543 11.6577 69.2083 11.831C68.7651 12.0043 68.2651 12.0909 67.7083 12.0909ZM67.6955 8.34517C68.062 8.34517 68.3716 8.25994 68.6245 8.08949C68.8801 7.91619 69.0733 7.66903 69.204 7.34801C69.3375 7.02415 69.4043 6.63636 69.4043 6.18466C69.4043 5.74432 69.339 5.35653 69.2083 5.02131C69.0776 4.68608 68.8858 4.42472 68.633 4.23722C68.3801 4.04687 68.0676 3.9517 67.6955 3.9517C67.312 3.9517 66.9924 4.05114 66.7367 4.25C66.481 4.44602 66.2878 4.71307 66.1571 5.05114C66.0293 5.3892 65.9654 5.76705 65.9654 6.18466C65.9654 6.61364 66.0307 6.99006 66.1614 7.31392C66.2921 7.63778 66.4853 7.89062 66.7409 8.07244C66.9995 8.25426 67.3176 8.34517 67.6955 8.34517ZM75.1912 9.6321C74.5463 9.6321 73.9909 9.49432 73.525 9.21875C73.062 8.94034 72.704 8.54972 72.4512 8.04688C72.2012 7.54119 72.0762 6.94886 72.0762 6.26989C72.0762 5.59943 72.2012 5.00852 72.4512 4.49716C72.704 3.9858 73.0563 3.58665 73.508 3.29972C73.9625 3.01278 74.4938 2.86932 75.1017 2.86932C75.4711 2.86932 75.829 2.9304 76.1756 3.05256C76.5222 3.17472 76.8333 3.36648 77.1088 3.62784C77.3844 3.8892 77.6017 4.22869 77.7608 4.64631C77.9199 5.06108 77.9995 5.56534 77.9995 6.15909V6.6108H72.7963V5.65625H76.7509C76.7509 5.32102 76.6827 5.02415 76.5463 4.76562C76.41 4.50426 76.2182 4.2983 75.9711 4.14773C75.7267 3.99716 75.4398 3.92188 75.1103 3.92188C74.7523 3.92188 74.4398 4.00994 74.1728 4.18608C73.9086 4.35937 73.704 4.58665 73.5591 4.8679C73.4171 5.14631 73.3461 5.44886 73.3461 5.77557V6.52131C73.3461 6.95881 73.4228 7.33097 73.5762 7.63778C73.7324 7.9446 73.9498 8.17898 74.2282 8.34091C74.5066 8.5 74.8319 8.57955 75.204 8.57955C75.4455 8.57955 75.6657 8.54545 75.8645 8.47727C76.0634 8.40625 76.2353 8.30114 76.3801 8.16193C76.525 8.02273 76.6358 7.85085 76.7125 7.64631L77.9185 7.86364C77.8219 8.21875 77.6486 8.52983 77.3986 8.79688C77.1515 9.06108 76.8404 9.26705 76.4654 9.41477C76.0932 9.55966 75.6685 9.6321 75.1912 9.6321Z" fill="#338CFF"/>
</svg>
