<svg width="19" height="19" viewBox="0 0 19 19" fill="none" xmlns="http://www.w3.org/2000/svg">
<path d="M13.25 7.25147C14.8813 7.26055 15.7647 7.33288 16.341 7.90917C17 8.56818 17 9.62884 17 11.7502V12.5002C17 14.6215 17 15.6821 16.341 16.3412C15.682 17.0002 14.6213 17.0002 12.5 17.0002H6.5C4.37868 17.0002 3.31802 17.0002 2.65901 16.3412C2 15.6821 2 14.6215 2 12.5002L2 11.7502C2 9.62884 2 8.56818 2.65901 7.90917C3.2353 7.33288 4.11873 7.26054 5.75 7.25146" stroke="#338CFF" stroke-linecap="round"/>
<path d="M9.5 11.75L9.5 2M9.5 2L11.75 4.625M9.5 2L7.25 4.625" stroke="#338CFF" stroke-linecap="round" stroke-linejoin="round"/>
</svg>
