<svg width="18" height="19" viewBox="0 0 18 19" fill="none" xmlns="http://www.w3.org/2000/svg">
<path d="M12.75 7.25147C14.3813 7.26055 15.2647 7.33288 15.841 7.90917C16.5 8.56818 16.5 9.62884 16.5 11.7502V12.5002C16.5 14.6215 16.5 15.6821 15.841 16.3412C15.182 17.0002 14.1213 17.0002 12 17.0002H6C3.87868 17.0002 2.81802 17.0002 2.15901 16.3412C1.5 15.6821 1.5 14.6215 1.5 12.5002L1.5 11.7502C1.5 9.62884 1.5 8.56818 2.15901 7.90917C2.7353 7.33288 3.61873 7.26054 5.25 7.25146" stroke="#338CFF" stroke-linecap="round"/>
<path d="M9 11.75L9 2M9 2L11.25 4.625M9 2L6.75 4.625" stroke="#338CFF" stroke-linecap="round" stroke-linejoin="round"/>
</svg>
