<svg width="22" height="22" viewBox="0 0 22 22" fill="none" xmlns="http://www.w3.org/2000/svg">
<path d="M14.0578 2.81169L16.0352 3.8494C18.1626 4.9658 19.2263 5.524 19.817 6.52706C20.4076 7.53012 20.4076 8.7783 20.4076 11.2746V11.3903C20.4076 13.8867 20.4076 15.1348 19.817 16.1379C19.2263 17.141 18.1626 17.6992 16.0352 18.8156L14.0578 19.8533C12.322 20.7642 11.4541 21.2196 10.5205 21.2196C9.58685 21.2196 8.71894 20.7642 6.98313 19.8533L5.0057 18.8156C2.87831 17.6992 1.81461 17.141 1.22396 16.1379C0.633301 15.1348 0.633301 13.8867 0.633301 11.3903V11.2746C0.633301 8.7783 0.633301 7.53012 1.22396 6.52706C1.81461 5.524 2.87831 4.9658 5.0057 3.84939L6.98313 2.81168C8.71894 1.90077 9.58685 1.44531 10.5205 1.44531C11.4541 1.44531 12.322 1.90077 14.0578 2.81169Z" stroke="#338CFF" stroke-width="1.28533" stroke-linecap="round"/>
</svg>
