<svg width="160" height="52" viewBox="0 0 160 52" fill="none" xmlns="http://www.w3.org/2000/svg">
<g clip-path="url(#clip0_6163_2608)">
<path d="M159.852 52H6.14815C2.76667 52 0 49.075 0 45.5V6.5C0 2.925 2.76667 0 6.14815 0H159.852C163.233 0 166 2.925 166 6.5V45.5C166 49.075 163.233 52 159.852 52Z" fill="black"/>
<path d="M159.852 1.04C162.705 1.04 165.016 3.484 165.016 6.5V45.5C165.016 48.516 162.705 50.96 159.852 50.96H6.14815C3.29541 50.96 0.983704 48.516 0.983704 45.5V6.5C0.983704 3.484 3.29541 1.04 6.14815 1.04H159.852ZM159.852 0H6.14815C2.76667 0 0 2.925 0 6.5V45.5C0 49.075 2.76667 52 6.14815 52H159.852C163.233 52 166 49.075 166 45.5V6.5C166 2.925 163.233 0 159.852 0Z" fill="black"/>
<path d="M53.8454 13.382C53.8454 14.4739 53.538 15.3449 52.9232 15.9819C52.2346 16.7489 51.3247 17.1389 50.218 17.1389C49.1483 17.1389 48.2506 16.7489 47.5006 15.9689C46.7505 15.1889 46.3816 14.214 46.3816 13.07C46.3816 11.913 46.7505 10.951 47.5006 10.171C48.2506 9.39097 49.1483 9.00098 50.218 9.00098C50.7468 9.00098 51.2509 9.10498 51.7305 9.32598C52.21 9.54697 52.5912 9.83297 52.8863 10.197L52.2346 10.886C51.7428 10.275 51.0788 9.96297 50.218 9.96297C49.4434 9.96297 48.7671 10.249 48.2014 10.834C47.6358 11.406 47.353 12.16 47.353 13.083C47.353 14.006 47.6358 14.7599 48.2014 15.3319C48.7671 15.9039 49.4434 16.2029 50.218 16.2029C51.0419 16.2029 51.7305 15.9169 52.2838 15.3319C52.6404 14.9549 52.8494 14.422 52.8986 13.746H50.218V12.81H53.7962C53.8208 13.005 53.8454 13.2 53.8454 13.382Z" fill="white" stroke="white" stroke-width="0.2" stroke-miterlimit="10"/>
<path d="M59.5153 10.1359H56.1577V12.6059H59.1832V13.5419H56.1577V16.012H59.5153V16.974H55.2107V9.17383H59.5153V10.1359V10.1359Z" fill="white" stroke="white" stroke-width="0.2" stroke-miterlimit="10"/>
<path d="M63.5106 16.974H62.5638V10.1359H60.498V9.17383H65.5641V10.1359H63.4983V16.974H63.5106Z" fill="white" stroke="white" stroke-width="0.2" stroke-miterlimit="10"/>
<path d="M69.2405 16.974V9.17383H70.1875V16.974H69.2405Z" fill="white" stroke="white" stroke-width="0.2" stroke-miterlimit="10"/>
<path d="M74.3932 16.974H73.4464V10.1359H71.3806V9.17383H76.4467V10.1359H74.3809V16.974H74.3932Z" fill="white" stroke="white" stroke-width="0.2" stroke-miterlimit="10"/>
<path d="M86.0496 15.955C85.3241 16.748 84.4265 17.138 83.3444 17.138C82.2623 17.138 81.3647 16.748 80.6392 15.955C79.9137 15.162 79.5571 14.2 79.5571 13.069C79.5571 11.938 79.9137 10.963 80.6392 10.183C81.3647 9.39 82.2623 9 83.3444 9C84.4142 9 85.3118 9.39 86.0496 10.183C86.775 10.976 87.1439 11.938 87.1439 13.069C87.1316 14.213 86.775 15.175 86.0496 15.955ZM81.3401 15.305C81.8811 15.89 82.5574 16.176 83.3444 16.176C84.1313 16.176 84.8076 15.89 85.3487 15.305C85.8897 14.72 86.1725 13.979 86.1725 13.069C86.1725 12.159 85.902 11.418 85.3487 10.833C84.8076 10.248 84.1313 9.962 83.3444 9.962C82.5574 9.962 81.8811 10.248 81.3401 10.833C80.799 11.418 80.5162 12.159 80.5162 13.069C80.5162 13.979 80.799 14.72 81.3401 15.305Z" fill="white" stroke="white" stroke-width="0.2" stroke-miterlimit="10"/>
<path d="M88.4724 16.974V9.17383H89.6283L93.2188 15.245H93.2557L93.2188 13.737V9.17383H94.1656V16.974H93.1819L89.4315 10.6169H89.3946L89.4315 12.1249V16.974H88.4724Z" fill="white" stroke="white" stroke-width="0.2" stroke-miterlimit="10"/>
<path d="M79.323 28.3466C76.4333 28.3466 74.0724 30.6736 74.0724 33.8716C74.0724 37.0566 76.4333 39.3966 79.323 39.3966C82.2126 39.3966 84.5735 37.0566 84.5735 33.8716C84.5735 30.6736 82.2126 28.3466 79.323 28.3466ZM79.323 37.2256C77.7367 37.2256 76.3718 35.8476 76.3718 33.8716C76.3718 31.8826 77.7367 30.5176 79.323 30.5176C80.9092 30.5176 82.2741 31.8826 82.2741 33.8716C82.2741 35.8476 80.8969 37.2256 79.323 37.2256ZM67.8628 28.3466C64.9732 28.3466 62.6123 30.6736 62.6123 33.8716C62.6123 37.0566 64.9732 39.3966 67.8628 39.3966C70.7524 39.3966 73.1133 37.0566 73.1133 33.8716C73.1133 30.6736 70.7524 28.3466 67.8628 28.3466ZM67.8628 37.2256C66.2766 37.2256 64.9117 35.8476 64.9117 33.8716C64.9117 31.8826 66.2766 30.5176 67.8628 30.5176C69.449 30.5176 70.8139 31.8826 70.8139 33.8716C70.8139 35.8476 69.449 37.2256 67.8628 37.2256ZM54.2385 30.0496V32.3896H59.5505C59.3907 33.7026 58.9726 34.6776 58.3455 35.3406C57.5708 36.1596 56.3658 37.0566 54.2508 37.0566C50.98 37.0566 48.4224 34.2746 48.4224 30.8166C48.4224 27.3586 50.98 24.5766 54.2508 24.5766C56.0092 24.5766 57.3003 25.3046 58.2471 26.2536L59.8087 24.6026C58.4807 23.2636 56.7224 22.2366 54.2385 22.2366C49.7627 22.2366 46 26.0846 46 30.8296C46 35.5616 49.7627 39.4226 54.2385 39.4226C56.6609 39.4226 58.4807 38.5906 59.9071 37.0176C61.3704 35.4706 61.8253 33.2866 61.8253 31.5316C61.8253 30.9856 61.7884 30.4786 61.7024 30.0626H54.2385V30.0496ZM109.953 31.8696C109.523 30.6346 108.195 28.3466 105.477 28.3466C102.784 28.3466 100.546 30.5826 100.546 33.8716C100.546 36.9656 102.76 39.3966 105.735 39.3966C108.133 39.3966 109.523 37.8496 110.088 36.9526L108.305 35.6916C107.715 36.6146 106.904 37.2256 105.735 37.2256C104.567 37.2256 103.731 36.6536 103.202 35.5486L110.199 32.4936L109.953 31.8696ZM102.821 33.7156C102.76 31.5836 104.383 30.4916 105.551 30.4916C106.461 30.4916 107.236 30.9726 107.494 31.6616L102.821 33.7156ZM97.1403 39.0716H99.4397V22.8216H97.1403V39.0716ZM93.3776 29.5816H93.2916C92.7751 28.9316 91.7914 28.3466 90.5372 28.3466C87.9181 28.3466 85.5203 30.7776 85.5203 33.8976C85.5203 36.9916 87.9181 39.4096 90.5372 39.4096C91.7791 39.4096 92.7751 38.8246 93.2916 38.1486H93.3653V38.9416C93.3653 41.0606 92.2956 42.1916 90.5741 42.1916C89.1723 42.1916 88.2993 41.1256 87.9427 40.2286L85.9384 41.1126C86.5163 42.5816 88.041 44.3756 90.5741 44.3756C93.267 44.3756 95.5418 42.6986 95.5418 38.6166V28.6846H93.3653V29.5816H93.3776ZM90.7339 37.2256C89.1477 37.2256 87.8197 35.8216 87.8197 33.8976C87.8197 31.9476 89.1477 30.5306 90.7339 30.5306C92.2955 30.5306 93.5252 31.9606 93.5252 33.8976C93.5375 35.8216 92.3078 37.2256 90.7339 37.2256ZM120.725 22.8216H115.228V39.0716H117.528V32.9096H120.737C123.282 32.9096 125.778 30.9596 125.778 27.8656C125.778 24.7716 123.258 22.8216 120.725 22.8216ZM120.774 30.6476H117.515V25.0706H120.774C122.495 25.0706 123.467 26.5786 123.467 27.8526C123.467 29.1266 122.495 30.6476 120.774 30.6476ZM134.964 28.3206C133.304 28.3206 131.582 29.1006 130.869 30.8036L132.91 31.7006C133.341 30.8036 134.152 30.5046 135.001 30.5046C136.181 30.5046 137.398 31.2586 137.411 32.5976V32.7666C136.993 32.5196 136.107 32.1426 135.013 32.1426C132.812 32.1426 130.586 33.4166 130.586 35.7956C130.586 37.9666 132.381 39.3706 134.398 39.3706C135.935 39.3706 136.796 38.6426 137.325 37.7846H137.398V39.0456H139.612V32.8186C139.624 29.9326 137.583 28.3206 134.964 28.3206ZM134.681 37.2256C133.931 37.2256 132.886 36.8226 132.886 35.8476C132.886 34.5996 134.189 34.1186 135.32 34.1186C136.329 34.1186 136.808 34.3526 137.411 34.6646C137.239 36.1596 136.009 37.2256 134.681 37.2256ZM147.69 28.6716L145.059 35.7176H144.985L142.255 28.6716H139.784L143.879 38.5256L141.542 43.9986H143.94L150.248 28.6716H147.69ZM127.033 39.0716H129.332V22.8216H127.033V39.0716Z" fill="white"/>
<path d="M12.8371 9.79877C12.4805 10.2018 12.2715 10.8258 12.2715 11.6188V40.3748C12.2715 41.1808 12.4805 41.8048 12.8371 42.1948L12.9232 42.2858L28.1583 26.1918V25.9968V25.8018L12.9232 9.70776L12.8371 9.79877Z" fill="url(#paint0_linear_6163_2608)"/>
<path d="M33.2375 31.5594L28.1592 26.1903V25.9953V25.8003L33.2375 20.4312L33.3482 20.4962L39.3611 24.1102C41.0826 25.1373 41.0826 26.8273 39.3611 27.8673L33.3482 31.4814L33.2375 31.5594Z" fill="url(#paint1_linear_6163_2608)"/>
<path d="M33.3488 31.4816L28.1598 25.9956L12.8386 42.1936C13.4043 42.8306 14.3388 42.9086 15.3963 42.2716L33.3488 31.4816Z" fill="url(#paint2_linear_6163_2608)"/>
<path d="M33.348 20.5111L15.3831 9.72105C14.3256 9.08405 13.3911 9.16205 12.8254 9.79906L28.1589 25.9971L33.348 20.5111Z" fill="url(#paint3_linear_6163_2608)"/>
<path opacity="0.2" d="M33.2372 31.3669L15.383 42.0921C14.387 42.6901 13.4893 42.6511 12.9237 42.1051L12.8376 42.1961L12.9237 42.2871C13.5016 42.8331 14.387 42.8721 15.383 42.2741L33.3479 31.4839L33.2372 31.3669Z" fill="black"/>
<path opacity="0.12" d="M12.838 42.0144C12.4813 41.6114 12.2722 40.9874 12.2722 40.1943V40.3893C12.2722 41.1954 12.4813 41.8194 12.838 42.2095L12.9241 42.1184L12.838 42.0144Z" fill="black"/>
<path opacity="0.12" d="M39.3602 27.6856L33.2244 31.3646L33.335 31.4816L39.3479 27.8676C40.2087 27.3476 40.639 26.6716 40.639 25.9956C40.5775 26.6066 40.1472 27.2176 39.3602 27.6856Z" fill="black"/>
<path opacity="0.25" d="M15.3828 9.90055L39.3606 24.3046C40.1352 24.7726 40.5779 25.3706 40.6517 25.9946C40.6517 25.3186 40.2213 24.6296 39.3606 24.1226L15.3828 9.71855C13.6613 8.69154 12.2595 9.54955 12.2595 11.6296V11.8246C12.2595 9.73155 13.6736 8.87355 15.3828 9.90055Z" fill="white"/>
</g>
<defs>
<linearGradient id="paint0_linear_6163_2608" x1="26.8053" y1="11.3194" x2="5.02195" y2="31.9236" gradientUnits="userSpaceOnUse">
<stop stop-color="#00A0FF"/>
<stop offset="0.00657445" stop-color="#00A1FF"/>
<stop offset="0.2601" stop-color="#00BEFF"/>
<stop offset="0.5122" stop-color="#00D2FF"/>
<stop offset="0.7604" stop-color="#00DFFF"/>
<stop offset="1" stop-color="#00E3FF"/>
</linearGradient>
<linearGradient id="paint1_linear_6163_2608" x1="41.6044" y1="25.9972" x2="11.8513" y2="25.9972" gradientUnits="userSpaceOnUse">
<stop stop-color="#FFE000"/>
<stop offset="0.4087" stop-color="#FFBD00"/>
<stop offset="0.7754" stop-color="#FFA500"/>
<stop offset="1" stop-color="#FF9C00"/>
</linearGradient>
<linearGradient id="paint2_linear_6163_2608" x1="30.5293" y1="28.9805" x2="0.989246" y2="56.9215" gradientUnits="userSpaceOnUse">
<stop stop-color="#FF3A44"/>
<stop offset="1" stop-color="#C31162"/>
</linearGradient>
<linearGradient id="paint3_linear_6163_2608" x1="8.97338" y1="0.226105" x2="22.1643" y2="12.7029" gradientUnits="userSpaceOnUse">
<stop stop-color="#32A071"/>
<stop offset="0.0685" stop-color="#2DA771"/>
<stop offset="0.4762" stop-color="#15CF74"/>
<stop offset="0.8009" stop-color="#06E775"/>
<stop offset="1" stop-color="#00F076"/>
</linearGradient>
<clipPath id="clip0_6163_2608">
<rect width="160" height="52" rx="8" fill="white"/>
</clipPath>
</defs>
</svg>
