<svg width="160" height="52" viewBox="0 0 160 52" fill="none" xmlns="http://www.w3.org/2000/svg">
<g clip-path="url(#clip0_6163_2573)">
<path d="M147.259 -7.51406e-05H12.7486C12.2583 -7.51406e-05 11.7739 -7.51406e-05 11.2849 0.00252486C10.8755 0.00512486 10.4694 0.0126779 10.0562 0.0190349C9.15832 0.0293072 8.26261 0.106104 7.37678 0.248758C6.49221 0.394517 5.63534 0.669315 4.83516 1.06386C4.03596 1.46174 3.30571 1.97874 2.6709 2.59612C2.03276 3.21175 1.50082 3.92335 1.09553 4.70353C0.689129 5.48217 0.407328 6.31654 0.259861 7.17785C0.110992 8.03806 0.0308843 8.9082 0.0202567 9.78045C0.00784864 10.179 0.0065383 10.5789 0 10.9776V41.0261C0.0065383 41.4297 0.00784864 41.8208 0.0202567 42.2246C0.0308876 43.0968 0.110995 43.9669 0.259861 44.827C0.40692 45.6888 0.688739 46.5237 1.09553 47.3026C1.50063 48.0803 2.03265 48.789 2.6709 49.4012C3.30331 50.0213 4.03403 50.5387 4.83516 50.9335C5.63533 51.3291 6.49211 51.6056 7.37678 51.7536C8.26276 51.8951 9.15838 51.9719 10.0562 51.9834C10.4694 51.9922 10.8755 51.9973 11.2849 51.9973C11.7739 51.9999 12.2583 51.9999 12.7486 51.9999H147.259C147.739 51.9999 148.227 51.9999 148.708 51.9973C149.115 51.9973 149.533 51.9922 149.941 51.9834C150.837 51.9725 151.731 51.8957 152.615 51.7536C153.502 51.6045 154.362 51.3282 155.166 50.9335C155.967 50.5385 156.697 50.0211 157.329 49.4012C157.965 48.7866 158.498 48.0784 158.908 47.3026C159.312 46.5231 159.591 45.6883 159.736 44.827C159.885 43.9667 159.968 43.0968 159.984 42.2246C159.99 41.8208 159.99 41.4297 159.99 41.0261C160 40.5538 160 40.0841 160 39.6042V12.3969C160 11.9208 160 11.4486 159.99 10.9776C159.99 10.5789 159.99 10.179 159.984 9.7804C159.968 8.90807 159.885 8.03813 159.736 7.1778C159.591 6.31699 159.312 5.48268 158.908 4.70348C158.083 3.13968 156.774 1.86676 155.166 1.06374C154.362 0.670162 153.502 0.395437 152.615 0.248641C151.731 0.105358 150.837 0.0285349 149.941 0.0188529C149.533 0.0125089 149.115 0.00489086 148.708 0.00235586C148.227 -0.000244141 147.739 -0.000244141 147.259 -0.000244141V-7.51406e-05Z" fill="black"/>
<path d="M11.2916 50.8622C10.8842 50.8622 10.4867 50.8571 10.0825 50.8483C9.24518 50.8377 8.40983 50.7668 7.5833 50.6363C6.81259 50.5072 6.06599 50.2672 5.36811 49.924C4.67663 49.5837 4.04594 49.1375 3.50021 48.6024C2.94658 48.0737 2.48566 47.4604 2.13571 46.787C1.78191 46.1091 1.53705 45.3826 1.40968 44.6326C1.27213 43.8268 1.1977 43.0119 1.18706 42.1951C1.17858 41.9209 1.16748 41.0081 1.16748 41.0081V10.9774C1.16748 10.9774 1.1793 10.0785 1.18712 9.81445C1.19732 8.99893 1.27131 8.18536 1.40845 7.38076C1.53606 6.62873 1.7811 5.90008 2.1351 5.22003C2.48376 4.54703 2.94212 3.93333 3.49242 3.40269C4.04209 2.86702 4.6748 2.41849 5.36745 2.07348C6.06373 1.73143 6.80892 1.49306 7.57807 1.36636C8.40732 1.23449 9.24556 1.1632 10.0858 1.15308L11.2922 1.13721H148.702L149.923 1.15372C150.755 1.16334 151.586 1.23399 152.407 1.36508C153.184 1.49337 153.937 1.73341 154.641 2.07729C156.029 2.77259 157.158 3.87262 157.871 5.2232C158.219 5.89856 158.46 6.62127 158.586 7.36679C158.725 8.178 158.803 8.99797 158.819 9.82017C158.822 10.1883 158.822 10.5838 158.822 10.9774C158.833 11.4649 158.833 11.9289 158.833 12.3967V39.604C158.833 40.0762 158.833 40.5371 158.822 41.0017C158.822 41.4245 158.822 41.8117 158.817 42.2103C158.802 43.0179 158.725 43.8232 158.589 44.6199C158.464 45.3753 158.22 46.1075 157.867 46.7909C157.514 47.457 157.056 48.065 156.509 48.5923C155.962 49.1302 155.331 49.579 154.638 49.9215C153.935 50.2673 153.183 50.5083 152.407 50.6363C151.581 50.7675 150.745 50.8384 149.908 50.8483C149.516 50.8571 149.106 50.8622 148.708 50.8622L147.259 50.8648L11.2916 50.8622Z" fill="black"/>
<path d="M33.1179 26.3922C33.1323 25.3072 33.4287 24.2433 33.9796 23.2995C34.5305 22.3558 35.318 21.5629 36.2688 20.9946C35.6648 20.1558 34.868 19.4656 33.9416 18.9787C33.0152 18.4918 31.9849 18.2216 30.9323 18.1896C28.687 17.9604 26.5104 19.4959 25.3662 19.4959C24.1999 19.4959 22.4383 18.2123 20.5414 18.2503C19.3144 18.2888 18.1186 18.6357 17.0704 19.2572C16.0223 19.8787 15.1577 20.7535 14.5607 21.7965C11.9748 26.1494 13.9037 32.5468 16.3808 36.0654C17.6201 37.7884 19.0685 39.7129 20.9638 39.6447C22.8184 39.5699 23.511 38.4949 25.7497 38.4949C27.9676 38.4949 28.6174 39.6447 30.5511 39.6013C32.5412 39.5699 33.7951 37.8707 34.9909 36.1314C35.8814 34.9038 36.5666 33.5469 37.0212 32.1112C35.865 31.6357 34.8783 30.8399 34.1842 29.8229C33.4901 28.8059 33.1193 27.6128 33.1179 26.3922V26.3922Z" fill="white"/>
<path d="M29.4654 15.874C30.5505 14.6075 31.0851 12.9797 30.9556 11.3362C29.2979 11.5055 27.7666 12.2758 26.6668 13.4937C26.1291 14.0886 25.7173 14.7808 25.4549 15.5306C25.1925 16.2804 25.0847 17.0731 25.1376 17.8635C25.9668 17.8718 26.7871 17.697 27.5367 17.3524C28.2864 17.0078 28.9458 16.5023 29.4654 15.874Z" fill="white"/>
<path d="M56.5612 35.2817H50.2323L48.7124 39.6451H46.0317L52.0264 23.5017H54.8115L60.8062 39.6451H58.0798L56.5612 35.2817ZM50.8878 33.2682H55.9045L53.4314 26.1868H53.3622L50.8878 33.2682Z" fill="white"/>
<path d="M73.7522 33.7582C73.7522 37.4157 71.7387 39.7656 68.7003 39.7656C67.9306 39.8048 67.1651 39.6324 66.4915 39.2682C65.8179 38.904 65.2634 38.3628 64.8914 37.7064H64.8339V43.5361H62.3491V27.8726H64.7543V29.8303H64.8C65.1891 29.177 65.7529 28.6386 66.4317 28.2722C67.1104 27.9058 67.8786 27.7252 68.6546 27.7495C71.7269 27.7495 73.7522 30.1108 73.7522 33.7582ZM71.1981 33.7582C71.1981 31.3753 69.9316 29.8087 67.9991 29.8087C66.1005 29.8087 64.8235 31.4083 64.8235 33.7582C64.8235 36.1297 66.1005 37.7179 67.9991 37.7179C69.9316 37.7179 71.1981 36.1627 71.1981 33.7582Z" fill="white"/>
<path d="M87.0759 33.7623C87.0759 37.4199 85.0625 39.7697 82.024 39.7697C81.2543 39.8089 80.4888 39.6365 79.8152 39.2723C79.1416 38.9081 78.5871 38.3669 78.2152 37.7105H78.1577V43.5402H75.6729V27.8768H78.078V29.8344H78.1237C78.5127 29.1812 79.0766 28.6427 79.7554 28.2763C80.4341 27.9099 81.2023 27.7293 81.9783 27.7536C85.0507 27.7536 87.0759 30.115 87.0759 33.7623ZM84.5219 33.7623C84.5219 31.3794 83.2553 29.8128 81.3228 29.8128C79.4243 29.8128 78.1473 31.4124 78.1473 33.7623C78.1473 36.1338 79.4243 37.722 81.3228 37.722C83.2553 37.722 84.5219 36.1668 84.5219 33.7623H84.5219Z" fill="white"/>
<path d="M95.8822 35.1466C96.0664 36.7474 97.6659 37.7986 99.8517 37.7986C101.946 37.7986 103.453 36.7474 103.453 35.3039C103.453 34.0509 102.544 33.3006 100.392 32.7864L98.2404 32.2824C95.1915 31.5664 93.7761 30.1801 93.7761 27.9305C93.7761 25.1451 96.2727 23.2319 99.8177 23.2319C103.326 23.2319 105.731 25.1451 105.812 27.9305H103.304C103.154 26.3194 101.784 25.347 99.7825 25.347C97.7808 25.347 96.411 26.3309 96.411 27.7629C96.411 28.9042 97.2859 29.5758 99.426 30.0899L101.255 30.5266C104.662 31.3099 106.077 32.6404 106.077 35.0017C106.077 38.0219 103.603 39.9135 99.6675 39.9135C95.9854 39.9135 93.4992 38.0664 93.3386 35.1464L95.8822 35.1466Z" fill="white"/>
<path d="M111.44 25.0898V27.8752H113.742V29.7884H111.44V36.277C111.44 37.285 111.901 37.7547 112.913 37.7547C113.186 37.7501 113.459 37.7314 113.73 37.6988V39.6005C113.275 39.6832 112.813 39.7206 112.35 39.7123C109.899 39.7123 108.943 38.8172 108.943 36.5346V29.7884H107.183V27.8752H108.943V25.0898H111.44Z" fill="white"/>
<path d="M115.075 33.7607C115.075 30.0575 117.318 27.7305 120.817 27.7305C124.326 27.7305 126.559 30.0575 126.559 33.7607C126.559 37.4741 124.338 39.791 120.817 39.791C117.296 39.791 115.075 37.4741 115.075 33.7607ZM124.027 33.7607C124.027 31.2204 122.83 29.7211 120.817 29.7211C118.803 29.7211 117.607 31.2318 117.607 33.7607C117.607 36.3112 118.803 37.7991 120.817 37.7991C122.83 37.7991 124.027 36.3112 124.027 33.7607H124.027Z" fill="white"/>
<path d="M128.608 27.8767H130.978V29.88H131.035C131.195 29.2543 131.572 28.7014 132.103 28.3141C132.633 27.9269 133.284 27.7289 133.947 27.7535C134.233 27.7525 134.519 27.7828 134.798 27.8437V30.1034C134.437 29.996 134.06 29.9467 133.682 29.9574C133.321 29.9432 132.961 30.0051 132.627 30.1388C132.293 30.2726 131.992 30.475 131.746 30.7323C131.5 30.9895 131.315 31.2955 131.202 31.6292C131.089 31.9629 131.052 32.3163 131.092 32.6653V39.6465H128.608L128.608 27.8767Z" fill="white"/>
<path d="M146.255 36.1881C145.921 38.3247 143.781 39.791 141.043 39.791C137.521 39.791 135.335 37.497 135.335 33.8166C135.335 30.1248 137.533 27.7305 140.938 27.7305C144.287 27.7305 146.394 29.9674 146.394 33.536V34.3638H137.844V34.5098C137.804 34.9429 137.86 35.3793 138.007 35.7899C138.154 36.2005 138.39 36.5759 138.698 36.8912C139.006 37.2065 139.379 37.4545 139.794 37.6187C140.208 37.7829 140.653 37.8595 141.1 37.8435C141.687 37.897 142.277 37.7648 142.78 37.4665C143.284 37.1683 143.675 36.7199 143.896 36.1881L146.255 36.1881ZM137.855 32.6753H143.907C143.93 32.2858 143.869 31.8961 143.729 31.5305C143.589 31.1649 143.373 30.8314 143.094 30.5509C142.815 30.2704 142.48 30.049 142.109 29.9005C141.738 29.752 141.339 29.6797 140.938 29.6881C140.533 29.6857 140.132 29.7613 139.758 29.9105C139.383 30.0597 139.043 30.2794 138.757 30.5572C138.47 30.8349 138.243 31.1651 138.088 31.5286C137.933 31.8921 137.854 32.2819 137.855 32.6753V32.6753Z" fill="white"/>
<path d="M49.9444 11.3501C50.4588 11.3138 50.975 11.3903 51.4558 11.5741C51.9365 11.758 52.3699 12.0446 52.7245 12.4133C53.0791 12.7821 53.3462 13.2237 53.5065 13.7063C53.6668 14.189 53.7163 14.7006 53.6514 15.2044C53.6514 17.6825 52.2911 19.107 49.9444 19.107H47.0986V11.3501H49.9444ZM48.3223 18.01H49.8077C50.1753 18.0316 50.5432 17.9723 50.8845 17.8363C51.2259 17.7003 51.5322 17.4911 51.781 17.2238C52.0299 16.9566 52.2151 16.6381 52.3232 16.2915C52.4313 15.9449 52.4595 15.5789 52.4059 15.2202C52.4556 14.8629 52.4246 14.4992 52.3148 14.1552C52.2051 13.8111 52.0194 13.4952 51.7711 13.2301C51.5228 12.965 51.218 12.7572 50.8785 12.6217C50.5391 12.4862 50.1734 12.4263 49.8077 12.4463H48.3223V18.01Z" fill="white"/>
<path d="M55.0335 16.1762C54.9961 15.7915 55.0408 15.4034 55.1648 15.0367C55.2887 14.67 55.489 14.3329 55.753 14.0469C56.017 13.7609 56.3388 13.5324 56.6978 13.376C57.0567 13.2197 57.4449 13.1389 57.8374 13.1389C58.2299 13.1389 58.618 13.2197 58.977 13.376C59.3359 13.5324 59.6577 13.7609 59.9217 14.0469C60.1857 14.3329 60.3861 14.67 60.51 15.0367C60.6339 15.4034 60.6786 15.7915 60.6412 16.1762C60.6793 16.5613 60.6351 16.95 60.5116 17.3173C60.388 17.6845 60.1877 18.0223 59.9237 18.3088C59.6596 18.5954 59.3376 18.8244 58.9783 18.981C58.619 19.1377 58.2303 19.2187 57.8374 19.2187C57.4444 19.2187 57.0558 19.1377 56.6965 18.981C56.3372 18.8244 56.0151 18.5954 55.7511 18.3088C55.487 18.0223 55.2868 17.6845 55.1632 17.3173C55.0396 16.95 54.9954 16.5613 55.0335 16.1762V16.1762ZM59.4343 16.1762C59.4343 14.9073 58.8554 14.1653 57.8393 14.1653C56.8194 14.1653 56.2456 14.9073 56.2456 16.1762C56.2456 17.4553 56.8194 18.1916 57.8393 18.1916C58.8554 18.1916 59.4343 17.4502 59.4343 16.1762H59.4343Z" fill="white"/>
<path d="M68.0955 19.107H66.8783L65.6495 14.7956H65.5566L64.333 19.107H63.1274L61.4885 13.2532H62.6787L63.7437 17.72H63.8314L65.0538 13.2532H66.1794L67.4018 17.72H67.4946L68.5545 13.2532H69.7279L68.0955 19.107Z" fill="white"/>
<path d="M71.1062 13.253H72.2357V14.183H72.3234C72.4722 13.849 72.723 13.569 73.0411 13.382C73.3591 13.1951 73.7285 13.1105 74.0977 13.14C74.3869 13.1186 74.6774 13.1616 74.9476 13.2657C75.2177 13.3698 75.4606 13.5325 75.6582 13.7416C75.8559 13.9506 76.0032 14.2008 76.0893 14.4736C76.1754 14.7464 76.198 15.0347 76.1556 15.3173V19.1068H74.9822V15.6074C74.9822 14.6667 74.567 14.1988 73.6992 14.1988C73.5028 14.1898 73.3067 14.2227 73.1245 14.2953C72.9422 14.3679 72.778 14.4784 72.6431 14.6193C72.5083 14.7602 72.406 14.9282 72.3432 15.1116C72.2805 15.2951 72.2588 15.4898 72.2796 15.6823V19.1068H71.1062L71.1062 13.253Z" fill="white"/>
<path d="M78.0251 10.968H79.1985V19.107H78.0251V10.968Z" fill="white"/>
<path d="M80.8299 16.1763C80.7925 15.7916 80.8373 15.4034 80.9612 15.0367C81.0851 14.67 81.2855 14.3329 81.5495 14.0469C81.8136 13.7609 82.1354 13.5324 82.4943 13.376C82.8533 13.2197 83.2415 13.1389 83.634 13.1389C84.0266 13.1389 84.4147 13.2197 84.7737 13.376C85.1327 13.5324 85.4545 13.7609 85.7185 14.0469C85.9825 14.3329 86.1829 14.67 86.3069 15.0367C86.4308 15.4034 86.4755 15.7916 86.4382 16.1763C86.4762 16.5614 86.432 16.9501 86.3084 17.3174C86.1848 17.6847 85.9845 18.0224 85.7204 18.3089C85.4563 18.5955 85.1343 18.8244 84.775 18.9811C84.4156 19.1378 84.027 19.2188 83.634 19.2188C83.2411 19.2188 82.8524 19.1378 82.4931 18.9811C82.1338 18.8244 81.8117 18.5955 81.5476 18.3089C81.2836 18.0224 81.0833 17.6847 80.9597 17.3174C80.836 16.9501 80.7918 16.5614 80.8299 16.1763V16.1763ZM85.2306 16.1763C85.2306 14.9074 84.6517 14.1654 83.6356 14.1654C82.6157 14.1654 82.042 14.9074 82.042 16.1763C82.042 17.4554 82.6158 18.1917 83.6356 18.1917C84.6517 18.1917 85.2306 17.4503 85.2306 16.1763H85.2306Z" fill="white"/>
<path d="M87.6733 17.4502C87.6733 16.3965 88.4702 15.7891 89.8847 15.7027L91.4952 15.6113V15.1061C91.4952 14.4878 91.08 14.1387 90.278 14.1387C89.6229 14.1387 89.1691 14.3754 89.0388 14.7893H87.9029C88.0228 13.7838 88.9834 13.1389 90.3321 13.1389C91.8227 13.1389 92.6634 13.8695 92.6634 15.1061V19.1057H91.5339V18.2831H91.441C91.2526 18.5781 90.988 18.8187 90.6742 18.9802C90.3605 19.1417 90.0088 19.2183 89.6552 19.2022C89.4056 19.2277 89.1533 19.2015 88.9146 19.1252C88.676 19.0489 88.4562 18.9242 88.2695 18.7591C88.0828 18.5941 87.9332 18.3923 87.8306 18.1669C87.7279 17.9414 87.6743 17.6973 87.6733 17.4502V17.4502ZM91.4952 16.95V16.4606L90.0433 16.552C89.2245 16.606 88.8531 16.8802 88.8531 17.3963C88.8531 17.9231 89.3173 18.2297 89.9557 18.2297C90.1427 18.2484 90.3316 18.2298 90.5112 18.175C90.6908 18.1203 90.8573 18.0306 91.001 17.9112C91.1446 17.7918 91.2624 17.6452 91.3473 17.4801C91.4322 17.3149 91.4825 17.1347 91.4952 16.95V16.95Z" fill="white"/>
<path d="M94.2056 16.1776C94.2056 14.3279 95.1713 13.1561 96.6735 13.1561C97.0451 13.1392 97.4138 13.2268 97.7367 13.4087C98.0596 13.5906 98.3232 13.8592 98.4967 14.1831H98.5844V10.968H99.7578V19.107H98.6334V18.1821H98.5406C98.3536 18.5039 98.0808 18.7691 97.7517 18.9491C97.4226 19.1292 97.0497 19.2171 96.6735 19.2035C95.161 19.2035 94.2056 18.0317 94.2056 16.1776ZM95.4177 16.1776C95.4177 17.4192 96.0121 18.1663 97.0062 18.1663C97.9952 18.1663 98.6064 17.4084 98.6064 16.1826C98.6064 14.9626 97.9888 14.1939 97.0062 14.1939C96.0185 14.1939 95.4176 14.9461 95.4176 16.1776H95.4177Z" fill="white"/>
<path d="M104.612 16.1762C104.575 15.7915 104.619 15.4034 104.743 15.0367C104.867 14.67 105.068 14.3329 105.332 14.0469C105.596 13.7609 105.917 13.5324 106.276 13.376C106.635 13.2197 107.023 13.1389 107.416 13.1389C107.808 13.1389 108.197 13.2197 108.556 13.376C108.915 13.5324 109.236 13.7609 109.5 14.0469C109.764 14.3329 109.965 14.67 110.089 15.0367C110.212 15.4034 110.257 15.7915 110.22 16.1762C110.258 16.5613 110.214 16.95 110.09 17.3173C109.967 17.6845 109.766 18.0223 109.502 18.3088C109.238 18.5954 108.916 18.8244 108.557 18.981C108.198 19.1377 107.809 19.2187 107.416 19.2187C107.023 19.2187 106.634 19.1377 106.275 18.981C105.916 18.8244 105.594 18.5954 105.33 18.3088C105.066 18.0223 104.865 17.6845 104.742 17.3173C104.618 16.95 104.574 16.5613 104.612 16.1762V16.1762ZM109.013 16.1762C109.013 14.9073 108.434 14.1653 107.418 14.1653C106.398 14.1653 105.824 14.9073 105.824 16.1762C105.824 17.4553 106.398 18.1916 107.418 18.1916C108.434 18.1916 109.013 17.4502 109.013 16.1762Z" fill="white"/>
<path d="M111.794 13.253H112.924V14.183H113.012C113.16 13.849 113.411 13.569 113.729 13.382C114.047 13.1951 114.417 13.1105 114.786 13.14C115.075 13.1186 115.366 13.1616 115.636 13.2657C115.906 13.3698 116.149 13.5325 116.346 13.7416C116.544 13.9506 116.691 14.2008 116.778 14.4736C116.864 14.7464 116.886 15.0347 116.844 15.3173V19.1068H115.67V15.6074C115.67 14.6667 115.255 14.1988 114.387 14.1988C114.191 14.1898 113.995 14.2227 113.813 14.2953C113.63 14.3679 113.466 14.4784 113.331 14.6193C113.197 14.7602 113.094 14.9282 113.031 15.1116C112.969 15.2951 112.947 15.4898 112.968 15.6823V19.1068H111.794V13.253Z" fill="white"/>
<path d="M123.474 11.7974V13.2814H124.762V14.2545H123.474V17.2646C123.474 17.8778 123.73 18.1463 124.314 18.1463C124.464 18.1458 124.613 18.1369 124.762 18.1196V19.0819C124.551 19.119 124.338 19.1388 124.124 19.141C122.819 19.141 122.299 18.689 122.299 17.5604V14.2545H121.355V13.2814H122.299V11.7974H123.474Z" fill="white"/>
<path d="M126.365 10.968H127.528V14.1939H127.621C127.777 13.8568 128.034 13.5752 128.359 13.3876C128.683 13.1999 129.058 13.1153 129.433 13.1453C129.721 13.1299 130.009 13.1772 130.276 13.2838C130.543 13.3905 130.783 13.5538 130.979 13.7623C131.174 13.9707 131.321 14.2191 131.407 14.4897C131.494 14.7602 131.519 15.0464 131.481 15.3276V19.107H130.307V15.6126C130.307 14.6776 129.864 14.204 129.035 14.204C128.833 14.1878 128.631 14.2151 128.441 14.284C128.251 14.353 128.079 14.462 127.936 14.6033C127.794 14.7447 127.684 14.915 127.615 15.1024C127.547 15.2898 127.52 15.4897 127.538 15.6881V19.107H126.365L126.365 10.968Z" fill="white"/>
<path d="M138.323 17.5262C138.163 18.0612 137.818 18.524 137.347 18.8336C136.876 19.1432 136.31 19.2799 135.747 19.2198C135.355 19.2299 134.966 19.1561 134.606 19.0033C134.246 18.8505 133.924 18.6225 133.663 18.335C133.402 18.0475 133.207 17.7075 133.093 17.3385C132.978 16.9695 132.947 16.5805 133 16.1983C132.948 15.8149 132.98 15.425 133.094 15.055C133.209 14.6849 133.402 14.3433 133.662 14.0533C133.922 13.7633 134.242 13.5317 134.601 13.3741C134.96 13.2165 135.349 13.1367 135.741 13.14C137.396 13.14 138.394 14.2528 138.394 16.091V16.4941H134.195V16.5588C134.177 16.7737 134.205 16.9899 134.276 17.1937C134.347 17.3974 134.461 17.5843 134.61 17.7422C134.76 17.9001 134.94 18.0255 135.142 18.1105C135.343 18.1956 135.56 18.2382 135.779 18.2358C136.06 18.269 136.344 18.2193 136.596 18.0929C136.848 17.9665 137.056 17.7693 137.193 17.5262L138.323 17.5262ZM134.195 15.6397H137.198C137.213 15.4432 137.186 15.2459 137.119 15.0604C137.052 14.8748 136.946 14.7052 136.808 14.5624C136.67 14.4196 136.503 14.3067 136.319 14.2311C136.134 14.1555 135.935 14.1187 135.735 14.1232C135.532 14.1207 135.331 14.1582 135.143 14.2336C134.955 14.3089 134.784 14.4205 134.64 14.5619C134.497 14.7032 134.384 14.8714 134.307 15.0565C134.231 15.2416 134.193 15.4399 134.195 15.6397H134.195Z" fill="white"/>
</g>
<defs>
<clipPath id="clip0_6163_2573">
<rect width="160" height="52" rx="8" fill="white"/>
</clipPath>
</defs>
</svg>
