<svg width="100" height="11" viewBox="0 0 100 11" fill="none" xmlns="http://www.w3.org/2000/svg">
<path d="M0.772798 8.5V1.09432H3.9255C4.41216 1.09432 4.82124 1.16485 5.15273 1.30591C5.49128 1.44697 5.74518 1.65856 5.91446 1.94068C6.09078 2.21575 6.17895 2.55077 6.17895 2.94574C6.17895 3.35481 6.06962 3.70041 5.85098 3.98253C5.63234 4.26466 5.32553 4.45861 4.93056 4.56441L4.91998 4.35282C5.25147 4.42335 5.54065 4.5503 5.7875 4.73368C6.03436 4.91001 6.22479 5.13218 6.3588 5.40019C6.49986 5.66116 6.57039 5.96091 6.57039 6.29945C6.57039 6.65916 6.51044 6.97655 6.39054 7.25161C6.27769 7.52668 6.10842 7.75591 5.88272 7.93928C5.65702 8.12266 5.38901 8.26372 5.07867 8.36247C4.76834 8.45416 4.41921 8.5 4.0313 8.5H0.772798ZM2.1164 7.26219H3.96782C4.22878 7.26219 4.44743 7.2234 4.62375 7.14582C4.80713 7.06823 4.94467 6.95539 5.03635 6.80727C5.1351 6.65211 5.18447 6.46873 5.18447 6.25714C5.18447 6.05965 5.13157 5.89038 5.02577 5.74932C4.92703 5.60826 4.78245 5.50246 4.59201 5.43193C4.40158 5.35435 4.17588 5.31556 3.91492 5.31556H2.1164V7.26219ZM2.1164 4.13065H3.79855C4.00309 4.13065 4.17941 4.09186 4.32752 4.01427C4.48269 3.93669 4.60259 3.83089 4.68723 3.69689C4.77187 3.56288 4.81418 3.40771 4.81418 3.23139C4.81418 2.94926 4.71897 2.73062 4.52854 2.57545C4.3381 2.41324 4.05951 2.33213 3.69275 2.33213H2.1164V4.13065ZM9.75987 8.6058C9.35785 8.6058 9.00873 8.51763 8.7125 8.34131C8.41627 8.15793 8.19057 7.90049 8.03541 7.569C7.88024 7.23045 7.80266 6.82843 7.80266 6.36293V2.92458H9.10394V6.08786C9.10394 6.38409 9.14979 6.638 9.24148 6.84959C9.33316 7.05413 9.46717 7.21282 9.6435 7.32567C9.81982 7.43852 10.0314 7.49494 10.2783 7.49494C10.4616 7.49494 10.6274 7.46673 10.7755 7.41031C10.9307 7.34683 11.0647 7.26219 11.1775 7.1564C11.2904 7.04355 11.3785 6.91307 11.442 6.76495C11.5055 6.60979 11.5372 6.44404 11.5372 6.26772V2.92458H12.8385V8.5H11.569L11.5478 7.33625L11.7806 7.2093C11.6959 7.47731 11.5513 7.71711 11.3468 7.9287C11.1493 8.13324 10.913 8.29899 10.638 8.42594C10.3629 8.54584 10.0702 8.6058 9.75987 8.6058ZM16.2257 8.6058C15.732 8.6058 15.2877 8.52469 14.8927 8.36247C14.5048 8.19319 14.1874 7.95339 13.9405 7.64306L14.7869 6.91307C14.9985 7.15287 15.2348 7.32567 15.4957 7.43147C15.7567 7.53726 16.0318 7.59016 16.3209 7.59016C16.4408 7.59016 16.5466 7.57605 16.6383 7.54784C16.7371 7.51963 16.8217 7.47731 16.8922 7.42089C16.9628 7.36446 17.0157 7.30098 17.0509 7.23045C17.0932 7.15287 17.1144 7.06823 17.1144 6.97655C17.1144 6.80727 17.0509 6.67327 16.924 6.57452C16.8534 6.52515 16.7406 6.47225 16.5854 6.41583C16.4373 6.35941 16.2433 6.30298 16.0035 6.24656C15.6227 6.14781 15.3053 6.03497 15.0514 5.90801C14.7975 5.774 14.6 5.62589 14.4589 5.46367C14.339 5.32966 14.2473 5.17802 14.1839 5.00875C14.1274 4.83948 14.0992 4.6561 14.0992 4.45861C14.0992 4.21176 14.1521 3.98959 14.2579 3.7921C14.3708 3.58756 14.5224 3.41124 14.7128 3.26312C14.9033 3.11501 15.1254 3.00216 15.3793 2.92458C15.6333 2.847 15.8977 2.8082 16.1728 2.8082C16.4549 2.8082 16.7265 2.84347 16.9874 2.914C17.2555 2.98453 17.5023 3.0868 17.728 3.22081C17.9608 3.34776 18.1582 3.50293 18.3205 3.68631L17.6011 4.47977C17.467 4.35282 17.3189 4.23997 17.1567 4.14123C17.0015 4.04248 16.8429 3.9649 16.6806 3.90848C16.5184 3.845 16.3668 3.81326 16.2257 3.81326C16.0917 3.81326 15.9718 3.82737 15.866 3.85558C15.7602 3.87674 15.672 3.912 15.6015 3.96137C15.531 4.01075 15.4746 4.07422 15.4322 4.15181C15.397 4.22234 15.3793 4.30697 15.3793 4.40572C15.3864 4.49035 15.4076 4.57146 15.4428 4.64905C15.4851 4.71958 15.5416 4.77953 15.6121 4.8289C15.6897 4.87827 15.8061 4.93469 15.9612 4.99817C16.1164 5.06165 16.3174 5.1216 16.5643 5.17802C16.9099 5.26971 17.199 5.37198 17.4318 5.48483C17.6645 5.59768 17.8479 5.72816 17.9819 5.87627C18.1159 6.00323 18.2111 6.15134 18.2676 6.32061C18.324 6.48989 18.3522 6.67679 18.3522 6.88133C18.3522 7.21282 18.257 7.50905 18.0666 7.77001C17.8832 8.03097 17.6293 8.23551 17.3048 8.38362C16.9874 8.53174 16.6277 8.6058 16.2257 8.6058ZM19.6466 8.5V2.92458H20.9479V8.5H19.6466ZM20.2814 1.73967C20.0204 1.73967 19.8159 1.67619 19.6678 1.54924C19.5267 1.41523 19.4562 1.22833 19.4562 0.988523C19.4562 0.762826 19.5302 0.579447 19.6784 0.438386C19.8265 0.297326 20.0275 0.226795 20.2814 0.226795C20.5494 0.226795 20.7539 0.293799 20.895 0.427807C21.0431 0.554761 21.1172 0.741666 21.1172 0.988523C21.1172 1.20717 21.0431 1.38702 20.895 1.52808C20.7469 1.66914 20.5424 1.73967 20.2814 1.73967ZM22.598 8.5V2.92458H23.8675L23.8887 4.06717L23.6454 4.19413C23.7159 3.94022 23.8534 3.71099 24.058 3.50645C24.2625 3.29486 24.5058 3.12559 24.788 2.99864C25.0701 2.87168 25.3592 2.8082 25.6555 2.8082C26.0787 2.8082 26.4313 2.89284 26.7134 3.06211C27.0026 3.23139 27.2177 3.4853 27.3588 3.82384C27.5069 4.16239 27.581 4.58557 27.581 5.09339V8.5H26.2797V5.1886C26.2797 4.90648 26.2409 4.67373 26.1633 4.49035C26.0857 4.29992 25.9658 4.16239 25.8036 4.07775C25.6414 3.98606 25.4439 3.94374 25.2111 3.9508C25.0207 3.9508 24.8444 3.98253 24.6822 4.04601C24.527 4.10244 24.3895 4.18707 24.2696 4.29992C24.1567 4.40572 24.065 4.52914 23.9945 4.6702C23.931 4.81127 23.8993 4.96643 23.8993 5.1357V8.5H23.2539C23.127 8.5 23.0071 8.5 22.8942 8.5C22.7884 8.5 22.6897 8.5 22.598 8.5ZM31.658 8.6058C31.0726 8.6058 30.5542 8.48237 30.1029 8.23551C29.6585 7.98866 29.3094 7.65364 29.0555 7.23045C28.8086 6.80022 28.6852 6.31003 28.6852 5.7599C28.6852 5.32261 28.7557 4.92411 28.8968 4.56441C29.0378 4.2047 29.2318 3.89437 29.4787 3.63341C29.7326 3.36539 30.0323 3.16086 30.3779 3.0198C30.7306 2.87168 31.115 2.79762 31.5311 2.79762C31.8978 2.79762 32.2399 2.86816 32.5573 3.00922C32.8747 3.15028 33.1498 3.34423 33.3825 3.59109C33.6153 3.83089 33.7916 4.12007 33.9115 4.45861C34.0384 4.79011 34.0984 5.15334 34.0913 5.54831L34.0808 6.00323H29.5633L29.32 5.11455H32.9911L32.8218 5.2944V5.06165C32.8006 4.843 32.7301 4.65257 32.6102 4.49035C32.4903 4.32108 32.3351 4.1906 32.1447 4.09891C31.9613 4.00017 31.7568 3.9508 31.5311 3.9508C31.1855 3.9508 30.8928 4.0178 30.653 4.15181C30.4202 4.28581 30.2439 4.47977 30.124 4.73368C30.0041 4.98054 29.9442 5.29087 29.9442 5.66468C29.9442 6.02439 30.0182 6.33825 30.1663 6.60626C30.3215 6.87428 30.5366 7.08234 30.8117 7.23045C31.0938 7.37152 31.4218 7.44205 31.7956 7.44205C32.0565 7.44205 32.2963 7.39973 32.515 7.31509C32.7336 7.23045 32.9699 7.07881 33.2238 6.86017L33.8692 7.75943C33.6787 7.93576 33.4601 8.0874 33.2132 8.21435C32.9734 8.33425 32.7195 8.42947 32.4515 8.5C32.1835 8.57053 31.919 8.6058 31.658 8.6058ZM37.1058 8.6058C36.6121 8.6058 36.1678 8.52469 35.7728 8.36247C35.3849 8.19319 35.0675 7.95339 34.8207 7.64306L35.667 6.91307C35.8786 7.15287 36.1149 7.32567 36.3759 7.43147C36.6368 7.53726 36.9119 7.59016 37.2011 7.59016C37.321 7.59016 37.4268 7.57605 37.5184 7.54784C37.6172 7.51963 37.7018 7.47731 37.7724 7.42089C37.8429 7.36446 37.8958 7.30098 37.9311 7.23045C37.9734 7.15287 37.9945 7.06823 37.9945 6.97655C37.9945 6.80727 37.9311 6.67327 37.8041 6.57452C37.7336 6.52515 37.6207 6.47225 37.4656 6.41583C37.3174 6.35941 37.1235 6.30298 36.8837 6.24656C36.5028 6.14781 36.1854 6.03497 35.9315 5.90801C35.6776 5.774 35.4801 5.62589 35.3391 5.46367C35.2192 5.32966 35.1275 5.17802 35.064 5.00875C35.0076 4.83948 34.9794 4.6561 34.9794 4.45861C34.9794 4.21176 35.0323 3.98959 35.1381 3.7921C35.2509 3.58756 35.4025 3.41124 35.593 3.26312C35.7834 3.11501 36.0056 3.00216 36.2595 2.92458C36.5134 2.847 36.7779 2.8082 37.053 2.8082C37.3351 2.8082 37.6066 2.84347 37.8676 2.914C38.1356 2.98453 38.3824 3.0868 38.6081 3.22081C38.8409 3.34776 39.0384 3.50293 39.2006 3.68631L38.4812 4.47977C38.3472 4.35282 38.1991 4.23997 38.0368 4.14123C37.8817 4.04248 37.723 3.9649 37.5608 3.90848C37.3985 3.845 37.2469 3.81326 37.1058 3.81326C36.9718 3.81326 36.8519 3.82737 36.7461 3.85558C36.6403 3.87674 36.5522 3.912 36.4817 3.96137C36.4111 4.01075 36.3547 4.07422 36.3124 4.15181C36.2771 4.22234 36.2595 4.30697 36.2595 4.40572C36.2665 4.49035 36.2877 4.57146 36.323 4.64905C36.3653 4.71958 36.4217 4.77953 36.4922 4.8289C36.5698 4.87827 36.6862 4.93469 36.8414 4.99817C36.9965 5.06165 37.1975 5.1216 37.4444 5.17802C37.79 5.26971 38.0792 5.37198 38.3119 5.48483C38.5447 5.59768 38.728 5.72816 38.8621 5.87627C38.9961 6.00323 39.0913 6.15134 39.1477 6.32061C39.2041 6.48989 39.2323 6.67679 39.2323 6.88133C39.2323 7.21282 39.1371 7.50905 38.9467 7.77001C38.7633 8.03097 38.5094 8.23551 38.185 8.38362C37.8676 8.53174 37.5079 8.6058 37.1058 8.6058ZM42.2406 8.6058C41.7469 8.6058 41.3026 8.52469 40.9076 8.36247C40.5197 8.19319 40.2023 7.95339 39.9555 7.64306L40.8018 6.91307C41.0134 7.15287 41.2497 7.32567 41.5107 7.43147C41.7716 7.53726 42.0467 7.59016 42.3359 7.59016C42.4558 7.59016 42.5616 7.57605 42.6532 7.54784C42.752 7.51963 42.8366 7.47731 42.9072 7.42089C42.9777 7.36446 43.0306 7.30098 43.0659 7.23045C43.1082 7.15287 43.1293 7.06823 43.1293 6.97655C43.1293 6.80727 43.0659 6.67327 42.9389 6.57452C42.8684 6.52515 42.7555 6.47225 42.6004 6.41583C42.4522 6.35941 42.2583 6.30298 42.0185 6.24656C41.6376 6.14781 41.3202 6.03497 41.0663 5.90801C40.8124 5.774 40.6149 5.62589 40.4739 5.46367C40.354 5.32966 40.2623 5.17802 40.1988 5.00875C40.1424 4.83948 40.1142 4.6561 40.1142 4.45861C40.1142 4.21176 40.1671 3.98959 40.2729 3.7921C40.3857 3.58756 40.5373 3.41124 40.7278 3.26312C40.9182 3.11501 41.1404 3.00216 41.3943 2.92458C41.6482 2.847 41.9127 2.8082 42.1878 2.8082C42.4699 2.8082 42.7414 2.84347 43.0024 2.914C43.2704 2.98453 43.5172 3.0868 43.7429 3.22081C43.9757 3.34776 44.1732 3.50293 44.3354 3.68631L43.616 4.47977C43.482 4.35282 43.3339 4.23997 43.1716 4.14123C43.0165 4.04248 42.8578 3.9649 42.6956 3.90848C42.5333 3.845 42.3817 3.81326 42.2406 3.81326C42.1066 3.81326 41.9867 3.82737 41.8809 3.85558C41.7751 3.87674 41.687 3.912 41.6165 3.96137C41.5459 4.01075 41.4895 4.07422 41.4472 4.15181C41.4119 4.22234 41.3943 4.30697 41.3943 4.40572C41.4013 4.49035 41.4225 4.57146 41.4578 4.64905C41.5001 4.71958 41.5565 4.77953 41.627 4.8289C41.7046 4.87827 41.821 4.93469 41.9762 4.99817C42.1313 5.06165 42.3323 5.1216 42.5792 5.17802C42.9248 5.26971 43.214 5.37198 43.4467 5.48483C43.6795 5.59768 43.8628 5.72816 43.9969 5.87627C44.1309 6.00323 44.2261 6.15134 44.2825 6.32061C44.3389 6.48989 44.3671 6.67679 44.3671 6.88133C44.3671 7.21282 44.2719 7.50905 44.0815 7.77001C43.8981 8.03097 43.6442 8.23551 43.3198 8.38362C43.0024 8.53174 42.6427 8.6058 42.2406 8.6058ZM48.6338 8.5V7.28335H49.8505V2.31097H48.6338V1.09432H52.4425V2.31097H51.2258V7.28335H52.4425V8.5H48.6338ZM53.9647 8.5V2.92458H55.2342L55.2554 4.06717L55.0121 4.19413C55.0826 3.94022 55.2201 3.71099 55.4247 3.50645C55.6292 3.29486 55.8725 3.12559 56.1547 2.99864C56.4368 2.87168 56.7259 2.8082 57.0222 2.8082C57.4454 2.8082 57.798 2.89284 58.0801 3.06211C58.3693 3.23139 58.5844 3.4853 58.7255 3.82384C58.8736 4.16239 58.9477 4.58557 58.9477 5.09339V8.5H57.6464V5.1886C57.6464 4.90648 57.6076 4.67373 57.53 4.49035C57.4524 4.29992 57.3325 4.16239 57.1703 4.07775C57.0081 3.98606 56.8106 3.94374 56.5778 3.9508C56.3874 3.9508 56.2111 3.98253 56.0489 4.04601C55.8937 4.10244 55.7562 4.18707 55.6363 4.29992C55.5234 4.40572 55.4317 4.52914 55.3612 4.6702C55.2977 4.81127 55.266 4.96643 55.266 5.1357V8.5H54.6206C54.4937 8.5 54.3738 8.5 54.2609 8.5C54.1551 8.5 54.0564 8.5 53.9647 8.5ZM62.1995 8.5L59.8509 2.92458H61.2685L62.8555 7.09292L62.5804 7.16698L64.252 2.92458H65.6379L63.1729 8.5H62.1995ZM69.0481 8.6058C68.4627 8.6058 67.9443 8.48237 67.4929 8.23551C67.0485 7.98866 66.6994 7.65364 66.4455 7.23045C66.1986 6.80022 66.0752 6.31003 66.0752 5.7599C66.0752 5.32261 66.1457 4.92411 66.2868 4.56441C66.4279 4.2047 66.6218 3.89437 66.8687 3.63341C67.1226 3.36539 67.4223 3.16086 67.7679 3.0198C68.1206 2.87168 68.505 2.79762 68.9211 2.79762C69.2879 2.79762 69.6299 2.86816 69.9473 3.00922C70.2647 3.15028 70.5398 3.34423 70.7725 3.59109C71.0053 3.83089 71.1816 4.12007 71.3015 4.45861C71.4285 4.79011 71.4884 5.15334 71.4814 5.54831L71.4708 6.00323H66.9533L66.71 5.11455H70.3811L70.2118 5.2944V5.06165C70.1906 4.843 70.1201 4.65257 70.0002 4.49035C69.8803 4.32108 69.7251 4.1906 69.5347 4.09891C69.3513 4.00017 69.1468 3.9508 68.9211 3.9508C68.5755 3.9508 68.2828 4.0178 68.043 4.15181C67.8102 4.28581 67.6339 4.47977 67.514 4.73368C67.3941 4.98054 67.3342 5.29087 67.3342 5.66468C67.3342 6.02439 67.4082 6.33825 67.5563 6.60626C67.7115 6.87428 67.9266 7.08234 68.2017 7.23045C68.4838 7.37152 68.8118 7.44205 69.1856 7.44205C69.4466 7.44205 69.6864 7.39973 69.905 7.31509C70.1236 7.23045 70.3599 7.07881 70.6138 6.86017L71.2592 7.75943C71.0687 7.93576 70.8501 8.0874 70.6032 8.21435C70.3634 8.33425 70.1095 8.42947 69.8415 8.5C69.5735 8.57053 69.309 8.6058 69.0481 8.6058ZM72.6339 8.5V2.92458H73.9034L73.9246 4.06717L73.6812 4.19413C73.7518 3.94022 73.8893 3.71099 74.0938 3.50645C74.2984 3.29486 74.5417 3.12559 74.8238 2.99864C75.1059 2.87168 75.3951 2.8082 75.6913 2.8082C76.1145 2.8082 76.4672 2.89284 76.7493 3.06211C77.0385 3.23139 77.2536 3.4853 77.3947 3.82384C77.5428 4.16239 77.6168 4.58557 77.6168 5.09339V8.5H76.3155V5.1886C76.3155 4.90648 76.2767 4.67373 76.1992 4.49035C76.1216 4.29992 76.0017 4.16239 75.8395 4.07775C75.6772 3.98606 75.4798 3.94374 75.247 3.9508C75.0566 3.9508 74.8802 3.98253 74.718 4.04601C74.5629 4.10244 74.4253 4.18707 74.3054 4.29992C74.1926 4.40572 74.1009 4.52914 74.0304 4.6702C73.9669 4.81127 73.9351 4.96643 73.9351 5.1357V8.5H73.2898C73.1628 8.5 73.0429 8.5 72.9301 8.5C72.8243 8.5 72.7255 8.5 72.6339 8.5ZM79.6838 8.5V1.50692H80.9851V8.5H79.6838ZM78.5835 4.13065V2.92458H82.2017V4.13065H78.5835ZM85.6908 8.6058C85.1336 8.6058 84.6363 8.48237 84.199 8.23551C83.7618 7.9816 83.4162 7.636 83.1622 7.19872C82.9083 6.76143 82.7814 6.26419 82.7814 5.707C82.7814 5.14981 82.9083 4.65257 83.1622 4.21528C83.4162 3.778 83.7618 3.43592 84.199 3.18907C84.6363 2.93516 85.1336 2.8082 85.6908 2.8082C86.2409 2.8082 86.7346 2.93516 87.1719 3.18907C87.6092 3.43592 87.9513 3.778 88.1981 4.21528C88.452 4.65257 88.579 5.14981 88.579 5.707C88.579 6.26419 88.452 6.76143 88.1981 7.19872C87.9513 7.636 87.6092 7.9816 87.1719 8.23551C86.7346 8.48237 86.2409 8.6058 85.6908 8.6058ZM85.6908 7.45262C85.994 7.45262 86.262 7.37504 86.4948 7.21987C86.7346 7.06471 86.9215 6.85664 87.0555 6.59568C87.1966 6.33472 87.2636 6.03849 87.2565 5.707C87.2636 5.36845 87.1966 5.0687 87.0555 4.80774C86.9215 4.54678 86.7346 4.34224 86.4948 4.19413C86.262 4.03896 85.994 3.96137 85.6908 3.96137C85.3875 3.96137 85.1124 4.03896 84.8655 4.19413C84.6257 4.34224 84.4388 4.5503 84.3048 4.81832C84.1708 5.07928 84.1038 5.37551 84.1038 5.707C84.1038 6.03849 84.1708 6.33472 84.3048 6.59568C84.4388 6.85664 84.6257 7.06471 84.8655 7.21987C85.1124 7.37504 85.3875 7.45262 85.6908 7.45262ZM89.743 8.5V2.92458H91.0231L91.0443 4.70194L90.8644 4.29992C90.942 4.0178 91.076 3.76389 91.2664 3.53819C91.4569 3.3125 91.6755 3.13617 91.9224 3.00922C92.1763 2.87521 92.4408 2.8082 92.7158 2.8082C92.8357 2.8082 92.9486 2.81878 93.0544 2.83994C93.1672 2.8611 93.2589 2.88579 93.3294 2.914L92.9803 4.34224C92.9027 4.29992 92.8075 4.26466 92.6947 4.23644C92.5818 4.20823 92.469 4.19413 92.3561 4.19413C92.1798 4.19413 92.0105 4.22939 91.8483 4.29992C91.6931 4.3634 91.5556 4.45509 91.4357 4.57499C91.3158 4.69489 91.2206 4.83595 91.15 4.99817C91.0866 5.15334 91.0548 5.32966 91.0548 5.52715V8.5H89.743ZM95.0422 10.9333L96.2272 8.19319L96.2377 9.06072L93.4871 2.92458H94.9894L96.5234 6.56394C96.5728 6.65563 96.6221 6.77906 96.6715 6.93423C96.7209 7.08234 96.7632 7.23045 96.7985 7.37857L96.534 7.4632C96.5833 7.3292 96.6362 7.18814 96.6927 7.04002C96.7491 6.88486 96.802 6.72616 96.8514 6.56394L98.1632 2.92458H99.6761L97.3486 8.5L96.3964 10.9333H95.0422Z" fill="#1D4ED8"/>
</svg>
