<svg width="25" height="20" viewBox="0 0 25 20" fill="none" xmlns="http://www.w3.org/2000/svg">
<path d="M4 5.66667C4 4.69421 4.30784 3.76157 4.8558 3.07394C5.40376 2.38631 6.14695 2 6.92188 2H18.0781C18.8531 2 19.5962 2.38631 20.1442 3.07394C20.6922 3.76157 21 4.69421 21 5.66667V14.3333C21 15.3058 20.6922 16.2384 20.1442 16.9261C19.5962 17.6137 18.8531 18 18.0781 18H6.92188C6.14695 18 5.40376 17.6137 4.8558 16.9261C4.30784 16.2384 4 15.3058 4 14.3333V5.66667ZM13.5625 5.33333C13.5625 5.51014 13.6185 5.67971 13.7181 5.80474C13.8177 5.92976 13.9529 6 14.0938 6H14.9363L13.1864 8.19467C13.137 8.25665 13.0978 8.33024 13.0711 8.41122C13.0443 8.49221 13.0306 8.57901 13.0306 8.66667C13.0306 8.75433 13.0443 8.84113 13.0711 8.92211C13.0978 9.0031 13.137 9.07668 13.1864 9.13867C13.2358 9.20065 13.2944 9.24982 13.3589 9.28336C13.4235 9.31691 13.4926 9.33418 13.5625 9.33418C13.6324 9.33418 13.7015 9.31691 13.7661 9.28336C13.8306 9.24982 13.8892 9.20065 13.9386 9.13867L15.6875 6.94267V8C15.6875 8.17681 15.7435 8.34638 15.8431 8.47141C15.9427 8.59643 16.0779 8.66667 16.2188 8.66667C16.3596 8.66667 16.4948 8.59643 16.5944 8.47141C16.694 8.34638 16.75 8.17681 16.75 8V5.33333C16.75 5.15652 16.694 4.98695 16.5944 4.86193C16.4948 4.7369 16.3596 4.66667 16.2188 4.66667H14.0938C13.9529 4.66667 13.8177 4.7369 13.7181 4.86193C13.6185 4.98695 13.5625 5.15652 13.5625 5.33333ZM11.8136 10.8613C11.7643 10.7992 11.7057 10.75 11.6411 10.7164C11.5766 10.6828 11.5074 10.6655 11.4375 10.6655C11.3676 10.6655 11.2984 10.6828 11.2339 10.7164C11.1693 10.75 11.1107 10.7992 11.0614 10.8613L9.3125 13.0573V12C9.3125 11.8232 9.25653 11.6536 9.1569 11.5286C9.05727 11.4036 8.92215 11.3333 8.78125 11.3333C8.64035 11.3333 8.50523 11.4036 8.4056 11.5286C8.30597 11.6536 8.25 11.8232 8.25 12V14.6667C8.25 14.8435 8.30597 15.013 8.4056 15.1381C8.50523 15.2631 8.64035 15.3333 8.78125 15.3333H10.9062C11.0471 15.3333 11.1823 15.2631 11.2819 15.1381C11.3815 15.013 11.4375 14.8435 11.4375 14.6667C11.4375 14.4899 11.3815 14.3203 11.2819 14.1953C11.1823 14.0702 11.0471 14 10.9062 14H10.0637L11.8136 11.8053C11.8631 11.7434 11.9023 11.6698 11.9291 11.5888C11.9559 11.5079 11.9697 11.421 11.9697 11.3333C11.9697 11.2456 11.9559 11.1588 11.9291 11.0778C11.9023 10.9968 11.8631 10.9233 11.8136 10.8613Z" fill="#8DC63F"/>
</svg>
