<svg width="14" height="14" viewBox="0 0 14 14" fill="none" xmlns="http://www.w3.org/2000/svg">
<path d="M2.375 3C2.01033 3 1.66059 3.1475 1.40273 3.41005C1.14487 3.6726 1 4.0287 1 4.4V5.4H11.2143V10.6C11.2143 10.7061 11.2557 10.8078 11.3294 10.8828C11.403 10.9579 11.503 11 11.6071 11C11.7113 11 11.8113 10.9579 11.8849 10.8828C11.9586 10.8078 12 10.7061 12 10.6V4.4C12 4.0287 11.8551 3.6726 11.5973 3.41005C11.3394 3.1475 10.9897 3 10.625 3H2.375ZM6.5 6.2H1V9.6C1 10.3728 1.616 11 2.375 11H5.125C5.48967 11 5.83941 10.8525 6.09727 10.59C6.35513 10.3274 6.5 9.9713 6.5 9.6V6.2ZM2.57143 7.8C2.57143 7.69391 2.61282 7.59217 2.68649 7.51716C2.76017 7.44214 2.86009 7.4 2.96429 7.4H4.53571C4.63991 7.4 4.73983 7.44214 4.81351 7.51716C4.88718 7.59217 4.92857 7.69391 4.92857 7.8C4.92857 7.90609 4.88718 8.00783 4.81351 8.08284C4.73983 8.15786 4.63991 8.2 4.53571 8.2H2.96429C2.86009 8.2 2.76017 8.15786 2.68649 8.08284C2.61282 8.00783 2.57143 7.90609 2.57143 7.8Z" fill="#1D4ED8"/>
</svg>
