<svg width="110" height="13" viewBox="0 0 110 13" fill="none" xmlns="http://www.w3.org/2000/svg">
<path d="M11 6.05047V10.2698C10.9999 10.4022 10.9631 10.532 10.8934 10.6456C10.8237 10.7592 10.7238 10.8524 10.6042 10.9152C10.4958 10.9723 10.3742 11.0015 10.251 10.9999H7.99838C7.89892 10.9999 7.80354 10.9615 7.73321 10.893C7.66289 10.8245 7.62338 10.7317 7.62338 10.6349V8.44409C7.62338 8.34727 7.58387 8.25441 7.51354 8.18594C7.44322 8.11748 7.34784 8.07901 7.24838 8.07901H5.74839C5.64893 8.07901 5.55355 8.11748 5.48322 8.18594C5.4129 8.25441 5.37339 8.34727 5.37339 8.44409V10.6349C5.37339 10.7317 5.33388 10.8245 5.26356 10.893C5.19323 10.9615 5.09785 10.9999 4.99839 10.9999H2.75014C2.64381 11.0002 2.53866 10.9783 2.44172 10.9358C2.34478 10.8933 2.2583 10.8311 2.18806 10.7534C2.06478 10.6146 1.9979 10.4366 2.00005 10.2531V6.05042C2.00013 5.9487 2.02201 5.8481 2.06427 5.75507C2.10654 5.66203 2.16828 5.57861 2.24553 5.51011L5.99518 2.19098C6.13292 2.06815 6.31292 2.00002 6.4997 2C6.68648 1.99998 6.8665 2.06809 7.00426 2.19089L10.7546 5.51016C10.8318 5.57866 10.8935 5.6621 10.9358 5.75513C10.978 5.84816 10.9999 5.94875 11 6.05047Z" fill="#1D4ED8"/>
<path d="M26.2447 10V2.59432H27.62V10H26.2447ZM21.4945 10V2.59432H22.8698V10H21.4945ZM22.0658 6.95309V5.66239H26.9112V6.95309H22.0658ZM31.932 10.1058C31.3748 10.1058 30.8776 9.98237 30.4403 9.73551C30.003 9.4816 29.6574 9.136 29.4035 8.69872C29.1496 8.26143 29.0227 7.76419 29.0227 7.207C29.0227 6.64981 29.1496 6.15257 29.4035 5.71528C29.6574 5.278 30.003 4.93592 30.4403 4.68907C30.8776 4.43516 31.3748 4.3082 31.932 4.3082C32.4822 4.3082 32.9759 4.43516 33.4132 4.68907C33.8504 4.93592 34.1925 5.278 34.4394 5.71528C34.6933 6.15257 34.8202 6.64981 34.8202 7.207C34.8202 7.76419 34.6933 8.26143 34.4394 8.69872C34.1925 9.136 33.8504 9.4816 33.4132 9.73551C32.9759 9.98237 32.4822 10.1058 31.932 10.1058ZM31.932 8.95262C32.2353 8.95262 32.5033 8.87504 32.7361 8.71987C32.9759 8.56471 33.1628 8.35664 33.2968 8.09568C33.4378 7.83472 33.5049 7.53849 33.4978 7.207C33.5049 6.86845 33.4378 6.5687 33.2968 6.30774C33.1628 6.04678 32.9759 5.84224 32.7361 5.69413C32.5033 5.53896 32.2353 5.46137 31.932 5.46137C31.6287 5.46137 31.3537 5.53896 31.1068 5.69413C30.867 5.84224 30.6801 6.0503 30.5461 6.31832C30.4121 6.57928 30.3451 6.87551 30.3451 7.207C30.3451 7.53849 30.4121 7.83472 30.5461 8.09568C30.6801 8.35664 30.867 8.56471 31.1068 8.71987C31.3537 8.87504 31.6287 8.95262 31.932 8.95262ZM37.9203 10.1058C37.5183 10.1058 37.1691 10.0176 36.8729 9.84131C36.5767 9.65793 36.351 9.40049 36.1958 9.069C36.0407 8.73045 35.9631 8.32843 35.9631 7.86293V4.42458H37.2644V7.58786C37.2644 7.88409 37.3102 8.138 37.4019 8.34959C37.4936 8.55413 37.6276 8.71282 37.8039 8.82567C37.9802 8.93852 38.1918 8.99494 38.4387 8.99494C38.6221 8.99494 38.7878 8.96673 38.9359 8.91031C39.0911 8.84683 39.2251 8.76219 39.338 8.6564C39.4508 8.54355 39.539 8.41307 39.6024 8.26495C39.6659 8.10979 39.6977 7.94404 39.6977 7.76772V4.42458H40.9989V10H39.7294L39.7082 8.83625L39.941 8.7093C39.8564 8.97731 39.7118 9.21711 39.5072 9.4287C39.3097 9.63324 39.0735 9.79899 38.7984 9.92594C38.5233 10.0458 38.2306 10.1058 37.9203 10.1058ZM44.3861 10.1058C43.8924 10.1058 43.4481 10.0247 43.0531 9.86247C42.6652 9.69319 42.3478 9.45339 42.101 9.14306L42.9473 8.41307C43.1589 8.65287 43.3952 8.82567 43.6561 8.93147C43.9171 9.03726 44.1922 9.09016 44.4813 9.09016C44.6013 9.09016 44.707 9.07605 44.7987 9.04784C44.8975 9.01963 44.9821 8.97731 45.0526 8.92089C45.1232 8.86446 45.1761 8.80098 45.2113 8.73045C45.2537 8.65287 45.2748 8.56823 45.2748 8.47655C45.2748 8.30727 45.2113 8.17327 45.0844 8.07452C45.0139 8.02515 44.901 7.97225 44.7458 7.91583C44.5977 7.85941 44.4038 7.80298 44.164 7.74656C43.7831 7.64781 43.4657 7.53497 43.2118 7.40801C42.9579 7.274 42.7604 7.12589 42.6193 6.96367C42.4994 6.82966 42.4078 6.67802 42.3443 6.50875C42.2879 6.33948 42.2596 6.1561 42.2596 5.95861C42.2596 5.71176 42.3125 5.48959 42.4183 5.2921C42.5312 5.08756 42.6828 4.91124 42.8733 4.76312C43.0637 4.61501 43.2859 4.50216 43.5398 4.42458C43.7937 4.347 44.0582 4.3082 44.3332 4.3082C44.6154 4.3082 44.8869 4.34347 45.1479 4.414C45.4159 4.48453 45.6627 4.5868 45.8884 4.72081C46.1212 4.84776 46.3187 5.00293 46.4809 5.18631L45.7615 5.97977C45.6275 5.85282 45.4794 5.73997 45.3171 5.64123C45.162 5.54248 45.0033 5.4649 44.8411 5.40848C44.6788 5.345 44.5272 5.31326 44.3861 5.31326C44.2521 5.31326 44.1322 5.32737 44.0264 5.35558C43.9206 5.37674 43.8325 5.412 43.7619 5.46137C43.6914 5.51075 43.635 5.57422 43.5927 5.65181C43.5574 5.72234 43.5398 5.80697 43.5398 5.90572C43.5468 5.99035 43.568 6.07146 43.6032 6.14905C43.6456 6.21958 43.702 6.27953 43.7725 6.3289C43.8501 6.37827 43.9665 6.43469 44.1216 6.49817C44.2768 6.56165 44.4778 6.6216 44.7247 6.67802C45.0703 6.76971 45.3595 6.87198 45.5922 6.98483C45.825 7.09768 46.0083 7.22816 46.1423 7.37627C46.2763 7.50323 46.3716 7.65134 46.428 7.82061C46.4844 7.98989 46.5126 8.17679 46.5126 8.38133C46.5126 8.71282 46.4174 9.00905 46.227 9.27001C46.0436 9.53097 45.7897 9.73551 45.4652 9.88362C45.1479 10.0317 44.7882 10.1058 44.3861 10.1058ZM50.2721 10.1058C49.6867 10.1058 49.1683 9.98237 48.7169 9.73551C48.2725 9.48866 47.9234 9.15364 47.6695 8.73045C47.4227 8.30022 47.2992 7.81003 47.2992 7.2599C47.2992 6.82261 47.3698 6.42411 47.5108 6.06441C47.6519 5.7047 47.8458 5.39437 48.0927 5.13341C48.3466 4.86539 48.6464 4.66086 48.992 4.5198C49.3446 4.37168 49.729 4.29762 50.1451 4.29762C50.5119 4.29762 50.854 4.36816 51.1713 4.50922C51.4887 4.65028 51.7638 4.84423 51.9965 5.09109C52.2293 5.33089 52.4056 5.62007 52.5255 5.95861C52.6525 6.29011 52.7124 6.65334 52.7054 7.04831L52.6948 7.50323H48.1773L47.934 6.61455H51.6051L51.4358 6.7944V6.56165C51.4147 6.343 51.3441 6.15257 51.2242 5.99035C51.1043 5.82108 50.9492 5.6906 50.7587 5.59891C50.5754 5.50017 50.3708 5.4508 50.1451 5.4508C49.7995 5.4508 49.5068 5.5178 49.267 5.65181C49.0343 5.78581 48.8579 5.97977 48.738 6.23368C48.6181 6.48054 48.5582 6.79087 48.5582 7.16468C48.5582 7.52439 48.6323 7.83825 48.7804 8.10626C48.9355 8.37428 49.1506 8.58234 49.4257 8.73045C49.7078 8.87152 50.0358 8.94205 50.4096 8.94205C50.6706 8.94205 50.9104 8.89973 51.129 8.81509C51.3477 8.73045 51.5839 8.57881 51.8379 8.36017L52.4832 9.25943C52.2928 9.43576 52.0741 9.5874 51.8273 9.71435C51.5875 9.83425 51.3336 9.92947 51.0655 10C50.7975 10.0705 50.533 10.1058 50.2721 10.1058ZM53.8579 10V2.17114H55.1486V5.56717L54.9053 5.69413C54.9758 5.44022 55.1133 5.21099 55.3179 5.00645C55.5224 4.79486 55.7657 4.62559 56.0479 4.49864C56.33 4.37168 56.6191 4.3082 56.9154 4.3082C57.3386 4.3082 57.6912 4.39284 57.9733 4.56211C58.2625 4.73139 58.4776 4.9853 58.6187 5.32384C58.7668 5.66239 58.8409 6.08557 58.8409 6.59339V10H57.5396V6.6886C57.5396 6.40648 57.5008 6.17373 57.4232 5.99035C57.3456 5.79992 57.2257 5.66239 57.0635 5.57775C56.9013 5.48606 56.7038 5.44374 56.471 5.4508C56.2806 5.4508 56.1043 5.48253 55.9421 5.54601C55.7869 5.60244 55.6494 5.68707 55.5295 5.79992C55.4166 5.90572 55.3249 6.02914 55.2544 6.1702C55.1909 6.31127 55.1592 6.46643 55.1592 6.6357V10H54.5138C54.3869 10 54.267 10 54.1541 10C54.0483 10 53.9496 10 53.8579 10ZM62.8545 10.1058C62.2973 10.1058 61.8 9.98237 61.3627 9.73551C60.9255 9.4816 60.5799 9.136 60.326 8.69872C60.072 8.26143 59.9451 7.76419 59.9451 7.207C59.9451 6.64981 60.072 6.15257 60.326 5.71528C60.5799 5.278 60.9255 4.93592 61.3627 4.68907C61.8 4.43516 62.2973 4.3082 62.8545 4.3082C63.4046 4.3082 63.8983 4.43516 64.3356 4.68907C64.7729 4.93592 65.115 5.278 65.3618 5.71528C65.6157 6.15257 65.7427 6.64981 65.7427 7.207C65.7427 7.76419 65.6157 8.26143 65.3618 8.69872C65.115 9.136 64.7729 9.4816 64.3356 9.73551C63.8983 9.98237 63.4046 10.1058 62.8545 10.1058ZM62.8545 8.95262C63.1577 8.95262 63.4258 8.87504 63.6585 8.71987C63.8983 8.56471 64.0852 8.35664 64.2192 8.09568C64.3603 7.83472 64.4273 7.53849 64.4202 7.207C64.4273 6.86845 64.3603 6.5687 64.2192 6.30774C64.0852 6.04678 63.8983 5.84224 63.6585 5.69413C63.4258 5.53896 63.1577 5.46137 62.8545 5.46137C62.5512 5.46137 62.2761 5.53896 62.0293 5.69413C61.7895 5.84224 61.6026 6.0503 61.4685 6.31832C61.3345 6.57928 61.2675 6.87551 61.2675 7.207C61.2675 7.53849 61.3345 7.83472 61.4685 8.09568C61.6026 8.35664 61.7895 8.56471 62.0293 8.71987C62.2761 8.87504 62.5512 8.95262 62.8545 8.95262ZM66.9173 10V2.17114H68.2291V10H66.9173ZM71.8977 10.1058C71.404 10.1058 70.9597 9.98237 70.5647 9.73551C70.1768 9.4816 69.8665 9.13953 69.6337 8.7093C69.408 8.27201 69.2952 7.77124 69.2952 7.207C69.2952 6.64981 69.408 6.15257 69.6337 5.71528C69.8594 5.278 70.1662 4.93592 70.5541 4.68907C70.9491 4.43516 71.3935 4.3082 71.8872 4.3082C72.1552 4.3082 72.4126 4.35052 72.6595 4.43516C72.9134 4.5198 73.1391 4.63617 73.3366 4.78428C73.534 4.92534 73.6892 5.08404 73.8021 5.26036C73.922 5.43669 73.989 5.62007 74.0031 5.8105L73.6539 5.85282V2.17114H74.9552V10H73.6963L73.6645 8.68814L73.9184 8.7093C73.9114 8.88562 73.8479 9.05489 73.728 9.21711C73.6152 9.37933 73.467 9.52745 73.2837 9.66145C73.1003 9.79546 72.8852 9.90478 72.6383 9.98942C72.3985 10.067 72.1517 10.1058 71.8977 10.1058ZM72.1517 9.00552C72.4549 9.00552 72.7229 8.92794 72.9557 8.77277C73.1884 8.61761 73.3683 8.40602 73.4953 8.138C73.6293 7.86998 73.6963 7.55965 73.6963 7.207C73.6963 6.8614 73.6293 6.55459 73.4953 6.28658C73.3683 6.01151 73.1884 5.79992 72.9557 5.65181C72.7229 5.49664 72.4549 5.41906 72.1517 5.41906C71.8484 5.41906 71.5804 5.49664 71.3476 5.65181C71.1149 5.79992 70.9315 6.01151 70.7975 6.28658C70.6705 6.55459 70.607 6.8614 70.607 7.207C70.607 7.55965 70.6705 7.86998 70.7975 8.138C70.9315 8.40602 71.1149 8.61761 71.3476 8.77277C71.5804 8.92794 71.8484 9.00552 72.1517 9.00552ZM79.5528 10V8.78335H80.7694V3.81097H79.5528V2.59432H83.3614V3.81097H82.1448V8.78335H83.3614V10H79.5528ZM85.4867 10V3.00692H86.788V10H85.4867ZM84.3864 5.63065V4.42458H88.0046V5.63065H84.3864ZM91.5571 10.1058C90.9717 10.1058 90.4533 9.98237 90.0019 9.73551C89.5576 9.48866 89.2084 9.15364 88.9545 8.73045C88.7077 8.30022 88.5843 7.81003 88.5843 7.2599C88.5843 6.82261 88.6548 6.42411 88.7958 6.06441C88.9369 5.7047 89.1309 5.39437 89.3777 5.13341C89.6316 4.86539 89.9314 4.66086 90.277 4.5198C90.6296 4.37168 91.014 4.29762 91.4301 4.29762C91.7969 4.29762 92.139 4.36816 92.4564 4.50922C92.7738 4.65028 93.0488 4.84423 93.2816 5.09109C93.5143 5.33089 93.6906 5.62007 93.8105 5.95861C93.9375 6.29011 93.9975 6.65334 93.9904 7.04831L93.9798 7.50323H89.4624L89.219 6.61455H92.8901L92.7209 6.7944V6.56165C92.6997 6.343 92.6292 6.15257 92.5093 5.99035C92.3894 5.82108 92.2342 5.6906 92.0438 5.59891C91.8604 5.50017 91.6558 5.4508 91.4301 5.4508C91.0846 5.4508 90.7918 5.5178 90.552 5.65181C90.3193 5.78581 90.143 5.97977 90.0231 6.23368C89.9032 6.48054 89.8432 6.79087 89.8432 7.16468C89.8432 7.52439 89.9173 7.83825 90.0654 8.10626C90.2206 8.37428 90.4357 8.58234 90.7107 8.73045C90.9929 8.87152 91.3208 8.94205 91.6946 8.94205C91.9556 8.94205 92.1954 8.89973 92.414 8.81509C92.6327 8.73045 92.869 8.57881 93.1229 8.36017L93.7682 9.25943C93.5778 9.43576 93.3592 9.5874 93.1123 9.71435C92.8725 9.83425 92.6186 9.92947 92.3506 10C92.0826 10.0705 91.8181 10.1058 91.5571 10.1058ZM95.1217 10V4.42458H96.4019L96.423 5.54601L96.2114 5.63065C96.2749 5.44727 96.3701 5.278 96.4971 5.12283C96.624 4.96061 96.7757 4.82308 96.952 4.71023C97.1283 4.59033 97.3152 4.49864 97.5127 4.43516C97.7102 4.36463 97.9112 4.32936 98.1158 4.32936C98.419 4.32936 98.6871 4.37873 98.9198 4.47748C99.1596 4.56917 99.3571 4.71728 99.5123 4.92182C99.6745 5.12636 99.7944 5.38732 99.872 5.7047L99.671 5.66239L99.7556 5.49311C99.8332 5.32384 99.9425 5.1722 100.084 5.03819C100.225 4.89713 100.383 4.7737 100.56 4.66791C100.736 4.55506 100.919 4.47042 101.11 4.414C101.307 4.35758 101.501 4.32936 101.692 4.32936C102.115 4.32936 102.467 4.414 102.75 4.58327C103.032 4.75255 103.243 5.00998 103.384 5.35558C103.525 5.70118 103.596 6.12789 103.596 6.6357V10H102.284V6.72034C102.284 6.43822 102.245 6.20547 102.168 6.02209C102.097 5.83871 101.984 5.7047 101.829 5.62007C101.681 5.52838 101.494 5.48253 101.268 5.48253C101.092 5.48253 100.923 5.51427 100.761 5.57775C100.605 5.63417 100.471 5.71881 100.359 5.83166C100.246 5.93745 100.158 6.06088 100.094 6.20194C100.031 6.343 99.9989 6.49817 99.9989 6.66744V10H98.6871V6.70976C98.6871 6.44175 98.6483 6.21958 98.5707 6.04325C98.4931 5.85987 98.3802 5.72234 98.2321 5.63065C98.084 5.53191 97.9042 5.48253 97.6926 5.48253C97.5163 5.48253 97.3505 5.51427 97.1953 5.57775C97.0402 5.63417 96.9062 5.71528 96.7933 5.82108C96.6805 5.92687 96.5923 6.0503 96.5288 6.19136C96.4654 6.33242 96.4336 6.48759 96.4336 6.65686V10H95.1217ZM106.903 10.1058C106.409 10.1058 105.965 10.0247 105.57 9.86247C105.182 9.69319 104.864 9.45339 104.617 9.14306L105.464 8.41307C105.675 8.65287 105.912 8.82567 106.173 8.93147C106.434 9.03726 106.709 9.09016 106.998 9.09016C107.118 9.09016 107.223 9.07605 107.315 9.04784C107.414 9.01963 107.499 8.97731 107.569 8.92089C107.64 8.86446 107.693 8.80098 107.728 8.73045C107.77 8.65287 107.791 8.56823 107.791 8.47655C107.791 8.30727 107.728 8.17327 107.601 8.07452C107.53 8.02515 107.417 7.97225 107.262 7.91583C107.114 7.85941 106.92 7.80298 106.68 7.74656C106.3 7.64781 105.982 7.53497 105.728 7.40801C105.474 7.274 105.277 7.12589 105.136 6.96367C105.016 6.82966 104.924 6.67802 104.861 6.50875C104.804 6.33948 104.776 6.1561 104.776 5.95861C104.776 5.71176 104.829 5.48959 104.935 5.2921C105.048 5.08756 105.199 4.91124 105.39 4.76312C105.58 4.61501 105.802 4.50216 106.056 4.42458C106.31 4.347 106.575 4.3082 106.85 4.3082C107.132 4.3082 107.403 4.34347 107.664 4.414C107.932 4.48453 108.179 4.5868 108.405 4.72081C108.638 4.84776 108.835 5.00293 108.997 5.18631L108.278 5.97977C108.144 5.85282 107.996 5.73997 107.834 5.64123C107.678 5.54248 107.52 5.4649 107.357 5.40848C107.195 5.345 107.044 5.31326 106.903 5.31326C106.769 5.31326 106.649 5.32737 106.543 5.35558C106.437 5.37674 106.349 5.412 106.278 5.46137C106.208 5.51075 106.151 5.57422 106.109 5.65181C106.074 5.72234 106.056 5.80697 106.056 5.90572C106.063 5.99035 106.084 6.07146 106.12 6.14905C106.162 6.21958 106.218 6.27953 106.289 6.3289C106.367 6.37827 106.483 6.43469 106.638 6.49817C106.793 6.56165 106.994 6.6216 107.241 6.67802C107.587 6.76971 107.876 6.87198 108.109 6.98483C108.341 7.09768 108.525 7.22816 108.659 7.37627C108.793 7.50323 108.888 7.65134 108.944 7.82061C109.001 7.98989 109.029 8.17679 109.029 8.38133C109.029 8.71282 108.934 9.00905 108.743 9.27001C108.56 9.53097 108.306 9.73551 107.982 9.88362C107.664 10.0317 107.305 10.1058 106.903 10.1058Z" fill="#1D4ED8"/>
</svg>
