<svg width="13" height="13" viewBox="0 0 13 13" fill="none" xmlns="http://www.w3.org/2000/svg">
<path d="M11 6.05047V10.2698C10.9999 10.4022 10.9631 10.532 10.8934 10.6456C10.8237 10.7592 10.7238 10.8524 10.6042 10.9152C10.4958 10.9723 10.3742 11.0015 10.251 10.9999H7.99838C7.89892 10.9999 7.80354 10.9615 7.73321 10.893C7.66289 10.8245 7.62338 10.7317 7.62338 10.6349V8.44409C7.62338 8.34727 7.58387 8.25441 7.51354 8.18594C7.44322 8.11748 7.34784 8.07901 7.24838 8.07901H5.74839C5.64893 8.07901 5.55355 8.11748 5.48322 8.18594C5.4129 8.25441 5.37339 8.34727 5.37339 8.44409V10.6349C5.37339 10.7317 5.33388 10.8245 5.26356 10.893C5.19323 10.9615 5.09785 10.9999 4.99839 10.9999H2.75014C2.64381 11.0002 2.53866 10.9783 2.44172 10.9358C2.34478 10.8933 2.2583 10.8311 2.18806 10.7534C2.06478 10.6146 1.9979 10.4366 2.00005 10.2531V6.05042C2.00013 5.9487 2.02201 5.8481 2.06427 5.75507C2.10654 5.66203 2.16828 5.57861 2.24553 5.51011L5.99518 2.19098C6.13292 2.06815 6.31292 2.00002 6.4997 2C6.68648 1.99998 6.8665 2.06809 7.00426 2.19089L10.7546 5.51016C10.8318 5.57866 10.8935 5.6621 10.9358 5.75513C10.978 5.84816 10.9999 5.94875 11 6.05047Z" fill="#1D4ED8"/>
</svg>
