<svg width="55" height="28" viewBox="0 0 55 28" fill="none" xmlns="http://www.w3.org/2000/svg">
<rect width="55" height="28" rx="14" fill="white"/>
<path d="M15.102 9.6055C15.9465 8.09067 16.3687 7.33325 16.9999 7.33325C17.6312 7.33325 18.0534 8.09067 18.8978 9.6055L19.1163 9.99741C19.3562 10.4279 19.4762 10.6431 19.6633 10.7851C19.8504 10.9271 20.0834 10.9799 20.5493 11.0853L20.9736 11.1813C22.6133 11.5523 23.4332 11.7378 23.6283 12.3651C23.8234 12.9923 23.2644 13.646 22.1465 14.9532L21.8573 15.2914C21.5396 15.6629 21.3808 15.8486 21.3093 16.0784C21.2379 16.3082 21.2619 16.556 21.3099 17.0516L21.3537 17.5028C21.5227 19.247 21.6072 20.1191 21.0965 20.5067C20.5858 20.8944 19.8181 20.5409 18.2828 19.834L17.8856 19.6511C17.4493 19.4503 17.2312 19.3498 16.9999 19.3498C16.7687 19.3498 16.5505 19.4503 16.1142 19.6511L15.717 19.834C14.1817 20.5409 13.414 20.8944 12.9034 20.5067C12.3927 20.1191 12.4772 19.247 12.6462 17.5029L12.6899 17.0516C12.7379 16.556 12.7619 16.3082 12.6905 16.0784C12.619 15.8486 12.4602 15.6629 12.1425 15.2914L11.8533 14.9532C10.7354 13.646 10.1765 12.9923 10.3715 12.3651C10.5666 11.7378 11.3865 11.5523 13.0263 11.1813L13.4505 11.0853C13.9165 10.9799 14.1495 10.9271 14.3365 10.7851C14.5236 10.6431 14.6436 10.4279 14.8836 9.99741L15.102 9.6055Z" fill="#FFC529"/>
<path d="M28.6989 16.2102V15.3409L32.5341 9.27273H33.1648V10.6193H32.7386L29.8409 15.2045V15.2727H35.0057V16.2102H28.6989ZM32.8068 18V15.946V15.5412V9.27273H33.8125V18H32.8068ZM36.9425 18.0682C36.7322 18.0682 36.5518 17.9929 36.4013 17.8423C36.2507 17.6918 36.1754 17.5114 36.1754 17.3011C36.1754 17.0909 36.2507 16.9105 36.4013 16.7599C36.5518 16.6094 36.7322 16.5341 36.9425 16.5341C37.1527 16.5341 37.3331 16.6094 37.4837 16.7599C37.6342 16.9105 37.7095 17.0909 37.7095 17.3011C37.7095 17.4403 37.674 17.5682 37.603 17.6847C37.5348 17.8011 37.4425 17.8949 37.326 17.9659C37.2124 18.0341 37.0845 18.0682 36.9425 18.0682ZM42.0487 18.1193C41.5487 18.1193 41.0984 18.0199 40.6978 17.821C40.2972 17.6222 39.9762 17.3494 39.7347 17.0028C39.4933 16.6562 39.3612 16.2614 39.3384 15.8182H40.3612C40.4009 16.2131 40.5799 16.5398 40.8981 16.7983C41.2191 17.054 41.6026 17.1818 42.0487 17.1818C42.4066 17.1818 42.7248 17.098 43.0032 16.9304C43.2844 16.7628 43.5046 16.5327 43.6637 16.2401C43.8256 15.9446 43.9066 15.6108 43.9066 15.2386C43.9066 14.858 43.8228 14.5185 43.6552 14.2202C43.4904 13.919 43.2631 13.6818 42.9734 13.5085C42.6836 13.3352 42.3526 13.2472 41.9805 13.2443C41.7134 13.2415 41.4393 13.2827 41.158 13.3679C40.8768 13.4503 40.6452 13.5568 40.4634 13.6875L39.4748 13.5682L40.0032 9.27273H44.5373V10.2102H40.8896L40.5827 12.7841H40.6339C40.8129 12.642 41.0373 12.5241 41.3072 12.4304C41.5771 12.3366 41.8583 12.2898 42.1509 12.2898C42.685 12.2898 43.1609 12.4176 43.5785 12.6733C43.9989 12.9261 44.3285 13.2727 44.5671 13.7131C44.8086 14.1534 44.9293 14.6562 44.9293 15.2216C44.9293 15.7784 44.8043 16.2756 44.5543 16.7131C44.3072 17.1477 43.9663 17.4915 43.5316 17.7443C43.0969 17.9943 42.6026 18.1193 42.0487 18.1193Z" fill="#1B1C57"/>
</svg>
