<?xml version="1.0" encoding="utf-8"?>
<!-- Generator: Adobe Illustrator 27.8.1, SVG Export Plug-In . SVG Version: 6.00 Build 0)  -->
<svg version="1.1" id="outline" xmlns="http://www.w3.org/2000/svg" xmlns:xlink="http://www.w3.org/1999/xlink" x="0px" y="0px"
	 viewBox="0 0 50 50" style="enable-background:new 0 0 50 50;" xml:space="preserve">
<style type="text/css">
	.st0{fill:#8DC53F;}
</style>
<g>
	<path class="st0" d="M41.2,37.2c-2.1,0-3.9-1.7-3.9-3.9c0-2.1,1.7-3.9,3.9-3.9c2.1,0,3.9,1.7,3.9,3.9c0,0,0,0,0,0
		C45.1,35.5,43.3,37.2,41.2,37.2z M41.2,30.9c-1.4,0-2.5,1.1-2.5,2.4c0,1.4,1.1,2.5,2.4,2.5c1.4,0,2.5-1.1,2.5-2.4c0,0,0,0,0,0
		C43.7,32,42.6,30.9,41.2,30.9z"/>
	<path class="st0" d="M20.9,37.2c-2.1,0-3.9-1.7-3.9-3.9c0-2.1,1.7-3.9,3.9-3.9c2.1,0,3.9,1.7,3.9,3.9c0,0,0,0,0,0
		C24.8,35.5,23,37.2,20.9,37.2z M20.9,30.9c-1.4,0-2.5,1.1-2.5,2.4c0,1.4,1.1,2.5,2.4,2.5c1.4,0,2.5-1.1,2.5-2.4c0,0,0,0,0,0
		C23.4,32,22.3,30.9,20.9,30.9z"/>
	<path class="st0" d="M46.3,34h-1.9c-0.4,0-0.7-0.3-0.7-0.7c0-0.4,0.3-0.7,0.7-0.7h1.7v-3.7c0-0.5-0.1-1-0.4-1.4l-3.8-6.8
		c-0.1-0.1-0.2-0.2-0.3-0.2h-5.2v12.2h1.7c0.4,0,0.7,0.3,0.7,0.7S38.5,34,38.1,34h-2.4c-0.4,0-0.7-0.3-0.7-0.7V19.7
		c0-0.4,0.3-0.7,0.7-0.7h5.9c0.6,0,1.2,0.3,1.6,0.9l3.8,6.8c0.4,0.6,0.6,1.4,0.6,2.1v3.9C47.5,33.5,47,34,46.3,34L46.3,34z"/>
	<path class="st0" d="M17.8,34H11c-0.4,0-0.7-0.3-0.7-0.7v-5.4c0-0.4,0.3-0.7,0.7-0.7c0.4,0,0.7,0.3,0.7,0.7l0,0v4.7h6
		c0.4,0,0.7,0.3,0.7,0.7C18.5,33.7,18.1,34,17.8,34z"/>
	<path class="st0" d="M11,25.4c-0.4,0-0.7-0.3-0.7-0.7V20c0-0.4,0.3-0.7,0.7-0.7c0.4,0,0.7,0.3,0.7,0.7v4.7
		C11.7,25.1,11.4,25.4,11,25.4z"/>
	<path class="st0" d="M35.7,34H24.1c-0.4,0-0.7-0.3-0.7-0.7c0-0.4,0.3-0.7,0.7-0.7H35V14.2H11.7v2.9c0,0.4-0.3,0.7-0.7,0.7
		c-0.4,0-0.7-0.3-0.7-0.7v-3c0-0.7,0.6-1.3,1.3-1.3h23.5c0.7,0,1.3,0.6,1.3,1.3v19.2C36.4,33.7,36.1,34,35.7,34z"/>
	<path class="st0" d="M13.8,28.6H4.9c-0.4,0-0.7-0.3-0.7-0.7s0.3-0.7,0.7-0.7h8.9c0.4,0,0.7,0.3,0.7,0.7S14.2,28.6,13.8,28.6z"/>
	<path class="st0" d="M20.9,25.4H8.5c-0.4,0-0.7-0.3-0.7-0.7S8.1,24,8.5,24h12.5c0.4,0,0.7,0.3,0.7,0.7S21.3,25.4,20.9,25.4z"/>
	<path class="st0" d="M8.1,21.7H3.2c-0.4,0-0.7-0.3-0.7-0.7c0-0.4,0.3-0.7,0.7-0.7h4.9c0.4,0,0.7,0.3,0.7,0.7
		C8.8,21.4,8.5,21.7,8.1,21.7z"/>
	<path class="st0" d="M15.9,17.8H7.3c-0.4,0-0.7-0.3-0.7-0.7s0.3-0.7,0.7-0.7h8.6c0.4,0,0.7,0.3,0.7,0.7S16.3,17.8,15.9,17.8z"/>
</g>
</svg>
