<svg width="25" height="25" viewBox="0 0 25 25" fill="none" xmlns="http://www.w3.org/2000/svg">
<rect x="2" y="1.60547" width="21" height="21" rx="7.6" fill="url(#paint0_radial_10235_81)"/>
<rect x="2" y="1.60547" width="21" height="21" rx="7.6" fill="url(#paint1_radial_10235_81)"/>
<rect x="2" y="1.60547" width="21" height="21" rx="7.6" fill="url(#paint2_radial_10235_81)"/>
<path d="M17.75 7.98047C17.75 8.60179 17.2463 9.10547 16.625 9.10547C16.0037 9.10547 15.5 8.60179 15.5 7.98047C15.5 7.35915 16.0037 6.85547 16.625 6.85547C17.2463 6.85547 17.75 7.35915 17.75 7.98047Z" fill="white"/>
<path fill-rule="evenodd" clip-rule="evenodd" d="M12.5 15.8555C14.5711 15.8555 16.25 14.1765 16.25 12.1055C16.25 10.0344 14.5711 8.35547 12.5 8.35547C10.4289 8.35547 8.75 10.0344 8.75 12.1055C8.75 14.1765 10.4289 15.8555 12.5 15.8555ZM12.5 14.3555C13.7426 14.3555 14.75 13.3481 14.75 12.1055C14.75 10.8628 13.7426 9.85547 12.5 9.85547C11.2574 9.85547 10.25 10.8628 10.25 12.1055C10.25 13.3481 11.2574 14.3555 12.5 14.3555Z" fill="white"/>
<path fill-rule="evenodd" clip-rule="evenodd" d="M5 11.8055C5 9.28523 5 8.02511 5.49047 7.06251C5.9219 6.21578 6.61031 5.52737 7.45704 5.09594C8.41965 4.60547 9.67976 4.60547 12.2 4.60547H12.8C15.3202 4.60547 16.5804 4.60547 17.543 5.09594C18.3897 5.52737 19.0781 6.21578 19.5095 7.06251C20 8.02511 20 9.28523 20 11.8055V12.4055C20 14.9257 20 16.1858 19.5095 17.1484C19.0781 17.9952 18.3897 18.6836 17.543 19.115C16.5804 19.6055 15.3202 19.6055 12.8 19.6055H12.2C9.67976 19.6055 8.41965 19.6055 7.45704 19.115C6.61031 18.6836 5.9219 17.9952 5.49047 17.1484C5 16.1858 5 14.9257 5 12.4055V11.8055ZM12.2 6.10547H12.8C14.0849 6.10547 14.9583 6.10664 15.6334 6.1618C16.2911 6.21553 16.6274 6.31291 16.862 6.43245C17.4265 6.72007 17.8854 7.17901 18.173 7.7435C18.2926 7.9781 18.3899 8.3144 18.4437 8.97203C18.4988 9.64716 18.5 10.5206 18.5 11.8055V12.4055C18.5 13.6903 18.4988 14.5638 18.4437 15.2389C18.3899 15.8965 18.2926 16.2328 18.173 16.4674C17.8854 17.0319 17.4265 17.4909 16.862 17.7785C16.6274 17.898 16.2911 17.9954 15.6334 18.0491C14.9583 18.1043 14.0849 18.1055 12.8 18.1055H12.2C10.9151 18.1055 10.0417 18.1043 9.36656 18.0491C8.70893 17.9954 8.37263 17.898 8.13803 17.7785C7.57354 17.4909 7.1146 17.0319 6.82698 16.4674C6.70745 16.2328 6.61006 15.8965 6.55633 15.2389C6.50117 14.5638 6.5 13.6903 6.5 12.4055V11.8055C6.5 10.5206 6.50117 9.64716 6.55633 8.97203C6.61006 8.3144 6.70745 7.9781 6.82698 7.7435C7.1146 7.17901 7.57354 6.72007 8.13803 6.43245C8.37263 6.31291 8.70893 6.21553 9.36656 6.1618C10.0417 6.10664 10.9151 6.10547 12.2 6.10547Z" fill="white"/>
<defs>
<radialGradient id="paint0_radial_10235_81" cx="0" cy="0" r="1" gradientUnits="userSpaceOnUse" gradientTransform="translate(9.5 17.3555) rotate(-55.3758) scale(19.1397)">
<stop stop-color="#B13589"/>
<stop offset="0.79309" stop-color="#C62F94"/>
<stop offset="1" stop-color="#8A3AC8"/>
</radialGradient>
<radialGradient id="paint1_radial_10235_81" cx="0" cy="0" r="1" gradientUnits="userSpaceOnUse" gradientTransform="translate(8.75 23.3555) rotate(-65.1363) scale(16.9457)">
<stop stop-color="#E0E8B7"/>
<stop offset="0.444662" stop-color="#FB8A2E"/>
<stop offset="0.71474" stop-color="#E2425C"/>
<stop offset="1" stop-color="#E2425C" stop-opacity="0"/>
</radialGradient>
<radialGradient id="paint2_radial_10235_81" cx="0" cy="0" r="1" gradientUnits="userSpaceOnUse" gradientTransform="translate(0.875001 2.35547) rotate(-8.1301) scale(29.1682 6.23877)">
<stop offset="0.156701" stop-color="#406ADC"/>
<stop offset="0.467799" stop-color="#6A45BE"/>
<stop offset="1" stop-color="#6A45BE" stop-opacity="0"/>
</radialGradient>
</defs>
</svg>
