<?xml version="1.0" encoding="utf-8"?>
<!-- Generator: Adobe Illustrator 27.8.1, SVG Export Plug-In . SVG Version: 6.00 Build 0)  -->
<svg version="1.1" id="Layer_1" xmlns="http://www.w3.org/2000/svg" xmlns:xlink="http://www.w3.org/1999/xlink" x="0px" y="0px"
	 viewBox="0 0 50 50" style="enable-background:new 0 0 50 50;" xml:space="preserve">
<style type="text/css">
	.st0{fill-rule:evenodd;clip-rule:evenodd;fill:#8DC53F;}
</style>
<path class="st0" d="M47.5,34.8L41,28.3c0,0,0,0,0,0c0,0-2.4,2.4-2.4,2.4v0l6.5,6.5c0,0,0.1,0,0.1,0l2.3-2.3
	C47.5,34.9,47.5,34.8,47.5,34.8L47.5,34.8z M38.9,28.1c0,0,0,0.1,0,0.1l-0.4,0.4c0,0-0.1,0-0.1,0l-1.1-1.1c-0.1-0.1,0.1-0.2,0.2-0.3
	c0.1-0.1,0.2-0.3,0.3-0.2L38.9,28.1z M33.7,16.3c-0.3-0.3-0.7-0.3-1-0.1l-5.2,4.6c0,0-0.1,0-0.1,0l-1.8-2.1c-0.3-0.3-0.7-0.3-1-0.1
	c-0.3,0.3-0.3,0.7-0.1,1l2.4,2.7c0.3,0.3,0.7,0.3,1,0.1l5.8-5.1C33.9,17,34,16.6,33.7,16.3L33.7,16.3z M34.7,23.4L34.7,23.4
	c-0.2,0.3-0.7,0.8-1,1c0,0,0,0,0,0c-2.5,2-6.1,2-8.6,0l-0.5-0.5c-2.6-2.6-2.6-7,0-9.6l0.5-0.5c2.5-2,6.1-2,8.6,0c0,0,0,0,0,0
	c0.2,0.2,0.8,0.8,1,1c0,0,0,0,0,0C36.7,17.3,36.7,20.9,34.7,23.4L34.7,23.4z M37.6,19.1c0-4.7-3.9-8.5-8.7-8.2c-2,0.1-4,1-5.4,2.4
	c-3.2,3.2-3.2,8.5,0,11.7c3.2,3.2,8.5,3.2,11.7,0C36.8,23.4,37.6,21.3,37.6,19.1L37.6,19.1z M36.5,26.2c-3.9,3.9-10.3,3.9-14.2,0
	c-3.9-3.9-3.9-10.3,0-14.2c3.9-3.9,10.3-3.9,14.2,0C40.4,15.9,40.4,22.3,36.5,26.2z M7.4,12.5H10c0.1,0,0.1,0,0.1-0.1v-1.9
	c0-0.1,0-0.1-0.1-0.1H7.4c-0.1,0-0.1,0-0.1,0.1L7.4,12.5C7.3,12.5,7.4,12.5,7.4,12.5z M14.8,10.5C14.9,10.5,14.9,10.5,14.8,10.5
	l0.1,9.8c0,0.1,0,0.1-0.1,0.1H2.6c-0.1,0-0.1,0-0.1-0.1v-9.8c0-0.1,0-0.1,0.1-0.1h3.2c0.1,0,0.1,0,0.1,0.1v2.1
	c0,0.8,0.6,1.4,1.4,1.4h2.9c0.8,0,1.4-0.6,1.4-1.4v-2.1c0-0.1,0-0.1,0.1-0.1H14.8z M10,23.9C10,23.9,10.1,23.9,10,23.9l0.1-2
	c0-0.1,0-0.1-0.1-0.1H7.4c-0.1,0-0.1,0-0.1,0.1v1.9c0,0.1,0,0.1,0.1,0.1H10z M14.8,21.9C14.9,21.9,14.9,21.9,14.8,21.9l0.1,9.8
	c0,0.1,0,0.1-0.1,0.1H2.6c-0.1,0-0.1,0-0.1-0.1V22c0-0.1,0-0.1,0.1-0.1h3.2c0.1,0,0.1,0,0.1,0.1V24c0,0.8,0.6,1.4,1.4,1.4h2.9
	c0.8,0,1.4-0.6,1.4-1.4V22c0-0.1,0-0.1,0.1-0.1H14.8z M10,35.3C10,35.3,10.1,35.3,10,35.3l0.1-2c0-0.1,0-0.1-0.1-0.1H7.4
	c-0.1,0-0.1,0-0.1,0.1v1.9c0,0.1,0,0.1,0.1,0.1H10z M23.8,35.3C23.9,35.3,23.9,35.3,23.8,35.3l0.1-2c0-0.1,0-0.1-0.1-0.1h-2.6
	c-0.1,0-0.1,0-0.1,0.1v1.9c0,0.1,0,0.1,0.1,0.1H23.8z M28.6,33.3C28.7,33.3,28.7,33.3,28.6,33.3l0.1,9.8c0,0.1,0,0.1-0.1,0.1H16.4
	c-0.1,0-0.1,0-0.1-0.1v-9.8c0-0.1,0-0.1,0.1-0.1h3.2c0.1,0,0.1,0,0.1,0.1v2.1c0,0.8,0.6,1.4,1.4,1.4H24c0.8,0,1.4-0.6,1.4-1.4v-2.1
	c0-0.1,0-0.1,0.1-0.1L28.6,33.3z M14.9,33.4v9.8c0,0.1,0,0.1-0.1,0.1H2.6c-0.1,0-0.1,0-0.1-0.1v-9.8c0-0.1,0-0.1,0.1-0.1h3.2
	c0.1,0,0.1,0,0.1,0.1v2.1c0,0.8,0.6,1.4,1.4,1.4h2.9c0.8,0,1.4-0.6,1.4-1.4v-2.1c0-0.1,0-0.1,0.1-0.1L14.9,33.4
	C14.9,33.3,14.9,33.3,14.9,33.4L14.9,33.4z"/>
</svg>
