<svg width="25" height="25" viewBox="0 0 25 25" fill="none" xmlns="http://www.w3.org/2000/svg">
<path fill-rule="evenodd" clip-rule="evenodd" d="M12.5 23.3555C18.299 23.3555 23 18.6545 23 12.8555C23 7.05648 18.299 2.35547 12.5 2.35547C6.70101 2.35547 2 7.05648 2 12.8555C2 14.7386 2.49575 16.506 3.36386 18.0342L2 23.3555L7.48615 22.0833C8.97603 22.8945 10.6842 23.3555 12.5 23.3555ZM12.5 21.7401C17.4068 21.7401 21.3846 17.7623 21.3846 12.8555C21.3846 7.94863 17.4068 3.97085 12.5 3.97085C7.59316 3.97085 3.61538 7.94863 3.61538 12.8555C3.61538 14.75 4.20838 16.5061 5.21888 17.9481L4.42308 20.9324L7.45995 20.1732C8.89202 21.1614 10.6284 21.7401 12.5 21.7401Z" fill="#BFC8D0"/>
<path d="M21.502 12.1055C21.502 17.076 17.4725 21.1055 12.502 21.1055C10.6061 21.1055 8.84712 20.5193 7.39645 19.5182L4.32013 20.2873L5.12627 17.2643C4.10265 15.8035 3.50195 14.0246 3.50195 12.1055C3.50195 7.13491 7.53139 3.10547 12.502 3.10547C17.4725 3.10547 21.502 7.13491 21.502 12.1055Z" fill="url(#paint0_linear_10235_86)"/>
<path fill-rule="evenodd" clip-rule="evenodd" d="M12.5 22.6055C18.299 22.6055 23 17.9045 23 12.1055C23 6.30648 18.299 1.60547 12.5 1.60547C6.70101 1.60547 2 6.30648 2 12.1055C2 13.9886 2.49575 15.756 3.36386 17.2842L2 22.6055L7.48615 21.3333C8.97603 22.1445 10.6842 22.6055 12.5 22.6055ZM12.5 20.9901C17.4068 20.9901 21.3846 17.0123 21.3846 12.1055C21.3846 7.19863 17.4068 3.22085 12.5 3.22085C7.59316 3.22085 3.61538 7.19863 3.61538 12.1055C3.61538 14 4.20838 15.7561 5.21888 17.1981L4.42308 20.1824L7.45995 19.4232C8.89202 20.4114 10.6284 20.9901 12.5 20.9901Z" fill="white"/>
<path d="M9.87502 7.23051C9.62537 6.72907 9.2424 6.77347 8.85551 6.77347C8.16407 6.77347 7.08594 7.60168 7.08594 9.14306C7.08594 10.4063 7.64259 11.7891 9.51831 13.8577C11.3285 15.854 13.707 16.8867 15.6817 16.8515C17.6563 16.8164 18.0625 15.1172 18.0625 14.5433C18.0625 14.289 17.9047 14.1621 17.796 14.1276C17.1231 13.8047 15.882 13.2029 15.5996 13.0899C15.3172 12.9768 15.1698 13.1298 15.0781 13.2129C14.8221 13.457 14.3144 14.1762 14.1406 14.3379C13.9668 14.4997 13.7077 14.4178 13.5999 14.3567C13.2031 14.1975 12.1272 13.7189 11.2696 12.8876C10.209 11.8594 10.1467 11.5057 9.94693 11.1908C9.78707 10.9389 9.90437 10.7844 9.96291 10.7168C10.1914 10.4532 10.507 10.0461 10.6485 9.84379C10.79 9.64149 10.6776 9.33435 10.6102 9.14306C10.3203 8.32035 10.0747 7.63165 9.87502 7.23051Z" fill="white"/>
<defs>
<linearGradient id="paint0_linear_10235_86" x1="20.377" y1="5.35547" x2="3.50195" y2="21.1055" gradientUnits="userSpaceOnUse">
<stop stop-color="#5BD066"/>
<stop offset="1" stop-color="#27B43E"/>
</linearGradient>
</defs>
</svg>
