<svg width="110" height="29" viewBox="0 0 110 29" fill="none" xmlns="http://www.w3.org/2000/svg">
<g clip-path="url(#clip0_9073_6058)">
<path fill-rule="evenodd" clip-rule="evenodd" d="M16.5117 27.9026C19.5902 27.5431 22.4573 26.1553 24.6488 23.9638C26.8404 21.7722 28.2282 18.9051 28.5876 15.8267H23.4138C23.0875 17.5351 22.2547 19.106 21.0238 20.3349C19.7929 21.5638 18.2207 22.394 16.5117 22.7176V27.9026Z" fill="#F7936F"/>
<path fill-rule="evenodd" clip-rule="evenodd" d="M21.1066 1.92352L21.1391 1.9022C24.4869 -0.0214108 27.1939 -0.587068 28.4543 0.67439C32.0198 4.2388 21.9651 15.3259 18.9866 18.3045C17.1953 20.101 15.2971 21.7875 13.3022 23.3548V27.899C11.6983 27.7169 10.14 27.2494 8.70075 26.5186L8.6682 26.5399C5.3204 28.4635 2.61458 29.0291 1.35313 27.7744C-0.375207 26.0461 1.64713 22.0676 2.60332 20.4256C1.87702 18.9846 1.40978 17.4271 1.22292 15.8242H6.40789C6.63462 17.0277 7.11423 18.1693 7.81497 19.1735C8.51571 20.1778 9.42163 21.0219 10.4729 21.6501C9.87468 22.0844 9.26638 22.4974 8.63565 22.8846C7.712 23.4716 6.75583 24.026 5.76596 24.5254C4.99127 23.8394 4.29836 23.0662 3.70095 22.2213C2.65722 24.2325 2.30931 25.7105 2.86373 26.2616C5.24411 28.6184 15.9508 18.7837 17.7117 17.0229C19.5864 15.1506 21.3399 13.1609 22.9617 11.0657C22.4273 9.69996 21.5544 8.49257 20.4249 7.55707C19.2954 6.62157 17.9466 5.98872 16.5052 5.718V0.53298C18.1094 0.713462 19.668 1.18105 21.1066 1.91341V1.92352ZM26.1064 6.21741C27.1501 4.20626 27.498 2.7282 26.9436 2.17716C26.3892 1.62611 24.9235 1.98188 22.9112 3.02562C24.1483 3.90353 25.2285 4.98373 26.1064 6.22078V6.21741Z" fill="#F16063"/>
<path fill-rule="evenodd" clip-rule="evenodd" d="M13.3044 0.543457C10.2259 0.903103 7.35879 2.29115 5.16723 4.48291C2.97567 6.67467 1.58788 9.5419 1.22852 12.6205H6.41353C6.73546 10.9118 7.5653 9.33994 8.79468 8.11036C10.0241 6.88079 11.5958 6.05065 13.3044 5.72845V0.543457Z" fill="#F7936F"/>
</g>
<path d="M52.6037 17.5151C52.6037 18.1145 52.4892 18.6801 52.2603 19.2121C52.038 19.7374 51.7283 20.1986 51.331 20.5959C50.9404 20.9865 50.4791 21.2963 49.9471 21.5252C49.4219 21.7475 48.8596 21.8586 48.2603 21.8586C47.7215 21.8586 47.203 21.7643 46.7047 21.5757C46.2131 21.3872 45.7687 21.1111 45.3714 20.7475C44.974 21.1111 44.5262 21.3872 44.0279 21.5757C43.5296 21.7643 43.0111 21.8586 42.4724 21.8586C41.873 21.8586 41.3074 21.7475 40.7754 21.5252C40.2501 21.2963 39.7888 20.9865 39.3915 20.5959C39.001 20.1986 38.6912 19.7374 38.4622 19.2121C38.24 18.6801 38.1289 18.1145 38.1289 17.5151V7.17166H41.0279V17.5151C41.0279 17.7171 41.0649 17.9091 41.139 18.0909C41.2131 18.266 41.3141 18.4209 41.442 18.5555C41.5767 18.6835 41.7316 18.7845 41.9067 18.8586C42.0818 18.9326 42.2703 18.9697 42.4724 18.9697C42.6744 18.9697 42.8629 18.9326 43.038 18.8586C43.2131 18.7845 43.3646 18.6835 43.4926 18.5555C43.6272 18.4209 43.7316 18.266 43.8057 18.0909C43.8798 17.9091 43.9168 17.7171 43.9168 17.5151V7.17166H46.8158V17.5151C46.8158 17.7171 46.8528 17.9091 46.9269 18.0909C47.001 18.266 47.102 18.4209 47.2299 18.5555C47.3646 18.6835 47.5195 18.7845 47.6946 18.8586C47.8697 18.9326 48.0582 18.9697 48.2603 18.9697C48.4623 18.9697 48.6508 18.9326 48.8259 18.8586C49.001 18.7845 49.1525 18.6835 49.2805 18.5555C49.4151 18.4209 49.5195 18.266 49.5936 18.0909C49.6744 17.9091 49.7148 17.7171 49.7148 17.5151V7.17166H52.6037V17.5151Z" fill="#16192C"/>
<path d="M58.1593 7.89894C58.1593 8.15483 58.1088 8.39389 58.0078 8.61611C57.9135 8.83833 57.7822 9.03362 57.6138 9.20197C57.4455 9.36359 57.2468 9.4949 57.0179 9.59591C56.7956 9.69019 56.5566 9.73733 56.3007 9.73733C56.0448 9.73733 55.8024 9.69019 55.5734 9.59591C55.3512 9.4949 55.1559 9.36359 54.9875 9.20197C54.8259 9.03362 54.6946 8.83833 54.5936 8.61611C54.4993 8.39389 54.4522 8.15483 54.4522 7.89894C54.4522 7.64978 54.4993 7.41409 54.5936 7.19186C54.6946 6.96291 54.8259 6.76762 54.9875 6.606C55.1559 6.43765 55.3512 6.30634 55.5734 6.21206C55.8024 6.11105 56.0448 6.06055 56.3007 6.06055C56.5566 6.06055 56.7956 6.11105 57.0179 6.21206C57.2468 6.30634 57.4455 6.43765 57.6138 6.606C57.7822 6.76762 57.9135 6.96291 58.0078 7.19186C58.1088 7.41409 58.1593 7.64978 58.1593 7.89894ZM57.6845 21.6566H54.9067V10.8383H57.6845V21.6566Z" fill="#16192C"/>
<path d="M65.7351 21.6566H59.432V18.9091H65.7351C65.9236 18.9091 66.0852 18.8417 66.2199 18.7071C66.3546 18.5724 66.4219 18.4108 66.4219 18.2222C66.4219 18.0269 66.3546 17.899 66.2199 17.8384C66.0852 17.7778 65.9236 17.7475 65.7351 17.7475H62.8664C62.3882 17.7475 61.9404 17.6565 61.5229 17.4747C61.1054 17.2929 60.7418 17.0471 60.432 16.7373C60.1222 16.4208 59.8764 16.0538 59.6946 15.6363C59.5195 15.2188 59.432 14.771 59.432 14.2929C59.432 13.8148 59.5195 13.367 59.6946 12.9495C59.8764 12.5319 60.1222 12.1683 60.432 11.8585C60.7418 11.5488 61.1054 11.3064 61.5229 11.1313C61.9404 10.9495 62.3882 10.8585 62.8664 10.8585H68.4522V13.606H62.8664C62.6778 13.606 62.5162 13.6734 62.3815 13.808C62.2468 13.9427 62.1795 14.1043 62.1795 14.2929C62.1795 14.4882 62.2468 14.6565 62.3815 14.7979C62.5162 14.9326 62.6778 15 62.8664 15H65.7351C66.2064 15 66.6509 15.0808 67.0684 15.2424C67.4859 15.3973 67.8495 15.6161 68.1593 15.899C68.4691 16.1818 68.7149 16.5219 68.8967 16.9192C69.0785 17.3165 69.1694 17.7508 69.1694 18.2222C69.1694 18.7003 69.0785 19.1481 68.8967 19.5656C68.7149 19.9764 68.4691 20.3401 68.1593 20.6566C67.8495 20.9663 67.4859 21.2121 67.0684 21.3939C66.6509 21.569 66.2064 21.6566 65.7351 21.6566Z" fill="#16192C"/>
<path d="M73.4017 21.6566H70.6442V6.5353H73.4017V11.3131C73.7317 11.0639 74.0718 10.8888 74.4219 10.7878C74.7721 10.6801 75.129 10.6262 75.4927 10.6262C76.1593 10.6262 76.7856 10.7542 77.3715 11.0101C77.9573 11.2592 78.4657 11.606 78.8967 12.0505C79.3344 12.4882 79.6779 13.0033 79.927 13.5959C80.1829 14.1818 80.3109 14.808 80.3109 15.4747V21.6566H77.5331V15.4747H77.5533C77.5533 15.1919 77.4994 14.9259 77.3917 14.6767C77.2839 14.4208 77.1358 14.1986 76.9472 14.0101C76.7587 13.8215 76.5398 13.6734 76.2906 13.5656C76.0415 13.4579 75.7755 13.404 75.4927 13.404C75.2031 13.404 74.9304 13.4579 74.6745 13.5656C74.4186 13.6734 74.1964 13.8215 74.0078 14.0101C73.8193 14.1986 73.6711 14.4208 73.5634 14.6767C73.4556 14.9259 73.4017 15.1919 73.4017 15.4747V21.6566Z" fill="#16192C"/>
<path d="M86.5836 19.0101C86.6913 19.0438 86.7991 19.0673 86.9068 19.0808C87.0146 19.0875 87.1223 19.0909 87.2301 19.0909C87.4994 19.0909 87.7587 19.0539 88.0079 18.9798C88.257 18.9057 88.4893 18.8013 88.7048 18.6666C88.927 18.5252 89.1223 18.3569 89.2907 18.1616C89.4658 17.9596 89.6072 17.7374 89.7149 17.4949L91.7351 19.5252C91.4792 19.8889 91.1829 20.2155 90.8462 20.505C90.5163 20.7946 90.156 21.0404 89.7654 21.2424C89.3816 21.4444 88.9742 21.5959 88.5432 21.697C88.119 21.8047 87.6813 21.8586 87.2301 21.8586C86.4691 21.8586 85.752 21.7172 85.0785 21.4343C84.4119 21.1515 83.826 20.7576 83.321 20.2525C82.8226 19.7475 82.4287 19.1481 82.1391 18.4545C81.8496 17.7542 81.7048 16.9865 81.7048 16.1515C81.7048 15.2963 81.8496 14.5151 82.1391 13.808C82.4287 13.101 82.8226 12.4983 83.321 12C83.826 11.5016 84.4119 11.1144 85.0785 10.8383C85.752 10.5622 86.4691 10.4242 87.2301 10.4242C87.6813 10.4242 88.1223 10.4781 88.5533 10.5858C88.9843 10.6936 89.3917 10.8484 89.7755 11.0505C90.1661 11.2525 90.5297 11.5016 90.8664 11.7979C91.2031 12.0875 91.4994 12.4141 91.7553 12.7777L86.5836 19.0101ZM87.9977 13.3232C87.8698 13.2761 87.7419 13.2458 87.6139 13.2323C87.4927 13.2188 87.3648 13.2121 87.2301 13.2121C86.853 13.2121 86.4961 13.2828 86.1594 13.4242C85.8294 13.5589 85.5398 13.7542 85.2907 14.0101C85.0482 14.266 84.8563 14.5757 84.7149 14.9394C84.5735 15.2963 84.5028 15.7003 84.5028 16.1515C84.5028 16.2525 84.5062 16.367 84.5129 16.4949C84.5264 16.6229 84.5432 16.7542 84.5634 16.8889C84.5903 17.0168 84.6206 17.1414 84.6543 17.2626C84.688 17.3838 84.7317 17.4916 84.7856 17.5858L87.9977 13.3232Z" fill="#16192C"/>
<path d="M95.9271 21.6566H93.1493V6.5353H95.9271V21.6566Z" fill="#16192C"/>
<path d="M100.816 25.7778H98.0382V10.8383H98.7049L99.8059 12.1414C100.055 11.9057 100.328 11.6835 100.624 11.4747C100.92 11.266 101.227 11.0875 101.543 10.9394C101.866 10.7845 102.2 10.6633 102.543 10.5757C102.887 10.4882 103.233 10.4444 103.584 10.4444C104.345 10.4444 105.058 10.5824 105.725 10.8585C106.398 11.1279 106.984 11.5117 107.483 12.0101C107.988 12.5084 108.385 13.1111 108.675 13.8181C108.964 14.5185 109.109 15.2963 109.109 16.1515C109.109 17.0404 108.964 17.8417 108.675 18.5555C108.385 19.2626 107.988 19.8653 107.483 20.3636C106.984 20.8552 106.398 21.2323 105.725 21.4949C105.058 21.7576 104.345 21.8889 103.584 21.8889C103.341 21.8889 103.099 21.8619 102.856 21.8081C102.621 21.7542 102.385 21.6835 102.149 21.5959C101.92 21.5017 101.691 21.3973 101.462 21.2828C101.24 21.1683 101.025 21.0505 100.816 20.9293V25.7778ZM106.341 16.1515C106.341 15.6936 106.267 15.2828 106.119 14.9192C105.978 14.5555 105.782 14.2491 105.533 14C105.284 13.7441 104.991 13.5488 104.654 13.4141C104.318 13.2794 103.961 13.2121 103.584 13.2121C103.207 13.2121 102.85 13.2794 102.513 13.4141C102.183 13.5488 101.893 13.7441 101.644 14C101.395 14.2491 101.196 14.5555 101.048 14.9192C100.907 15.2828 100.836 15.6936 100.836 16.1515C100.836 16.5892 100.907 16.9899 101.048 17.3535C101.196 17.7171 101.395 18.0269 101.644 18.2828C101.893 18.5387 102.183 18.7374 102.513 18.8788C102.85 19.0202 103.207 19.0909 103.584 19.0909C103.961 19.0909 104.318 19.0202 104.654 18.8788C104.991 18.7374 105.284 18.5387 105.533 18.2828C105.782 18.0269 105.978 17.7171 106.119 17.3535C106.267 16.9899 106.341 16.5892 106.341 16.1515Z" fill="#16192C"/>
<defs>
<clipPath id="clip0_9073_6058">
<rect width="28.5287" height="28.4445" fill="white" transform="translate(0.683594)"/>
</clipPath>
</defs>
</svg>
