<svg width="105" height="27" viewBox="0 0 105 27" fill="none" xmlns="http://www.w3.org/2000/svg">
<g clip-path="url(#clip0_9073_6059)">
<path d="M24.2688 1.78402C24.4196 1.83712 24.5509 1.93423 24.6459 2.0628C24.7409 2.19137 24.7951 2.34549 24.8016 2.50521C24.8835 3.35815 24.9184 4.21496 24.9061 5.07174C24.8971 5.46478 24.8881 5.85783 24.8619 6.25087C24.7141 6.18957 24.5744 6.12827 24.4256 6.07058C24.0506 5.92273 23.6837 5.78301 23.3078 5.6514C23.3168 5.45127 23.3259 5.25924 23.3259 5.05821C23.334 4.42086 23.3168 3.7745 23.2645 3.12002C22.6533 2.92801 22.016 2.75312 21.3714 2.59626C20.5601 2.40424 19.7487 2.24649 18.9266 2.1329C18.4641 2.0725 18.0188 2.01931 17.5915 1.97604C17.1642 1.93277 16.7089 1.90662 16.2465 1.88589C15.8859 1.87687 15.5478 1.86876 15.1818 1.86876L14.6491 1.87688C14.4913 1.87688 14.3083 1.88589 14.1163 1.88589C13.6538 1.90392 13.2085 1.93818 12.7713 1.97604C12.3341 2.0139 11.8986 2.0725 11.4362 2.1329C10.6248 2.24649 9.80357 2.40334 8.99133 2.59626C8.34497 2.75312 7.71664 2.92801 7.09822 3.12002C6.99184 4.55507 7.02992 5.99717 7.21183 7.42461C7.30836 8.22313 7.44829 9.01581 7.63101 9.79911C7.73558 10.2444 7.85818 10.6898 7.9916 11.1171L8.00063 11.1522L8.00872 11.1874L8.01775 11.2226L8.03487 11.2568L8.0439 11.292L8.05287 11.3271L8.0619 11.3623L8.09614 11.4578V11.4669L8.10517 11.5011L8.16648 11.667L8.17458 11.7022L8.2278 11.8419L8.2359 11.868C8.50554 12.6498 8.81763 13.4163 9.17075 14.1641L9.18787 14.1903L9.1969 14.2173L9.205 14.2344L9.223 14.2606L9.23114 14.2867L9.24017 14.3129L9.25729 14.33C9.38891 14.6004 9.52774 14.8709 9.66837 15.1413C9.77294 15.3162 9.86846 15.5019 9.96492 15.6651C10.0785 15.8664 10.1834 16.041 10.2796 16.1888C10.5761 16.6693 10.8899 17.1408 11.2225 17.5952C11.5552 18.0495 11.8941 18.4858 12.27 18.9221C12.4101 19.088 12.5672 19.2626 12.7415 19.4459C12.9074 19.6262 13.0642 19.8065 13.213 19.9607C13.597 20.3537 13.9982 20.7296 14.4002 21.0956L14.5661 21.2354C14.4525 21.3255 14.339 21.4156 14.2173 21.5058C13.9026 21.7411 13.5799 21.9682 13.2563 22.1954C11.5119 20.6317 10.0111 18.8158 8.80382 16.8082V16.7991L8.79479 16.791L8.78581 16.782C8.7164 16.6684 8.65507 16.5548 8.59377 16.4593C8.48919 16.2673 8.37561 16.0744 8.28005 15.8914C7.99158 15.3676 7.72927 14.8267 7.47686 14.2588C7.22444 13.6908 7.00539 13.1328 6.80435 12.5739C6.52354 11.7838 6.28457 10.9795 6.08854 10.1642C5.49543 7.65594 5.31852 5.06726 5.56481 2.5016C5.5722 2.34165 5.62779 2.18766 5.72433 2.05991C5.82087 1.93215 5.95384 1.83661 6.1057 1.78583C6.93507 1.50637 7.78245 1.26206 8.63796 1.05202C9.47634 0.860001 10.34 0.691425 11.2225 0.563414C11.6732 0.502113 12.1475 0.449828 12.6451 0.406557C13.1256 0.362384 13.597 0.328127 14.0595 0.310097C14.2344 0.310097 14.4201 0.301085 14.6184 0.301085L15.1864 0.292969L15.7534 0.301085C15.9544 0.301085 16.1464 0.310097 16.3123 0.310097C16.7838 0.328127 17.2552 0.362384 17.7357 0.406557C18.2333 0.449828 18.7048 0.502113 19.1502 0.563414C20.0399 0.694129 20.9045 0.860001 21.7428 1.05202C22.5902 1.26206 23.4367 1.50276 24.2751 1.78583L24.2688 1.78402ZM19.152 17.5961C19.4666 17.1507 19.783 16.6946 20.0688 16.2249C20.1674 16.0478 20.3292 15.9143 20.5218 15.8512C20.7145 15.788 20.9238 15.7998 21.1082 15.8841C22.6253 16.6093 24.0026 17.5966 25.1766 18.8004C25.3139 18.9271 25.4023 19.098 25.4262 19.2833C25.4501 19.4686 25.408 19.6564 25.3073 19.8137C25.063 20.1977 24.7926 20.5989 24.5221 20.9919C24.2517 21.385 23.9542 21.769 23.6666 22.1359C23.4566 22.4064 23.2294 22.6858 22.9851 22.9653C22.7759 23.2096 22.5398 23.48 22.2783 23.7685C21.9114 24.1706 21.5571 24.5366 21.1965 24.8945H21.1875C20.8386 25.2442 20.4663 25.585 20.0787 25.9249C19.9643 26.0363 19.8192 26.1108 19.6621 26.139C19.5049 26.1671 19.3429 26.1475 19.197 26.0826C18.0478 25.5551 16.9414 24.939 15.8877 24.24C16.0274 24.1354 16.1671 24.0309 16.3069 23.9173C16.6035 23.6811 16.901 23.4458 17.1795 23.1961C17.8916 23.6487 18.6293 24.0595 19.389 24.4266C19.6243 24.2084 19.8515 23.9903 20.0877 23.7631C20.4537 23.4025 20.7945 23.0563 21.1091 22.7066C21.3182 22.4884 21.5364 22.227 21.7816 21.9475C21.9907 21.6942 22.2089 21.4319 22.419 21.1533C22.7065 20.8035 22.9688 20.4456 23.2222 20.0787C23.3619 19.8984 23.4926 19.6947 23.6233 19.5027C23.2304 19.1259 22.81 18.7788 22.3657 18.4642C21.945 18.159 21.5047 17.8817 21.0478 17.6339C20.8468 17.9395 20.6376 18.237 20.4276 18.5246C20.0615 19.0312 19.6857 19.5027 19.3016 19.957C19.1267 20.1572 18.9609 20.3411 18.804 20.516C18.7337 20.6061 18.6553 20.6818 18.5768 20.7684L18.5678 20.7774L18.5597 20.7864L18.5507 20.7945L18.5417 20.8035L18.5336 20.8125L18.5245 20.8216L18.5155 20.8297L18.4984 20.8477V20.8558C17.6647 21.7339 16.7691 22.551 15.8183 23.3006C14.3815 24.4039 12.8229 25.3385 11.1729 26.0862C11.023 26.1535 10.8559 26.1728 10.6945 26.1415C10.5332 26.1102 10.3854 26.0298 10.2715 25.9113C9.88653 25.5796 9.52864 25.2388 9.17075 24.8981C8.81016 24.5492 8.45497 24.1769 8.08897 23.7721C7.81852 23.4836 7.5832 23.2132 7.37315 22.9689C7.13786 22.6894 6.91071 22.41 6.69255 22.1395C6.40407 21.7645 6.12462 21.3886 5.84516 20.9956C5.5657 20.6025 5.30428 20.2013 5.05997 19.8173C4.86706 19.5117 4.6669 19.1863 4.46587 18.8482C4.28557 18.5165 4.09896 18.1847 3.92498 17.8566C3.6987 17.4374 3.48867 17.0092 3.28764 16.5819C3.08661 16.1546 2.91263 15.7255 2.72963 15.2801C2.39788 14.4688 2.10941 13.6394 1.8561 12.792C1.60278 11.9447 1.39363 11.09 1.22506 10.2255C1.19224 10.0663 1.20995 9.90078 1.27572 9.7521C1.3415 9.60342 1.45204 9.47898 1.59194 9.39615C2.60843 8.67363 3.67963 8.03134 4.79582 7.4751C4.83909 7.89429 4.89227 8.30446 4.96168 8.71464C4.97881 8.85437 5.00495 8.99409 5.0311 9.13382C4.2901 9.52137 3.57304 9.95306 2.88378 10.4266C3.02351 11.081 3.18937 11.7184 3.37238 12.3386C3.60856 13.1418 3.88806 13.927 4.19366 14.6825C4.35953 15.0926 4.53351 15.5028 4.72553 15.913C4.91754 16.3232 5.11045 16.7243 5.31959 17.1093C5.48546 17.4329 5.66037 17.7403 5.83526 18.0522C6.00925 18.3407 6.19585 18.6463 6.39327 18.969C6.63848 19.3531 6.88276 19.729 7.13607 20.0778C7.38939 20.4267 7.65985 20.799 7.93931 21.1524C8.15747 21.431 8.36663 21.6933 8.58479 21.9466C8.82097 22.2261 9.04814 22.4875 9.24827 22.7057C9.5719 23.0554 9.91177 23.4043 10.2787 23.7622C10.5059 23.9894 10.742 24.2075 10.9683 24.4176C12.282 23.7856 13.5282 23.0221 14.6878 22.1386C16.3874 20.8498 17.8903 19.3205 19.1493 17.5988L19.152 17.5961ZM28.7654 9.39256C28.9048 9.47626 29.0154 9.60049 29.0824 9.74867C29.1494 9.89685 29.1697 10.0619 29.1404 10.2219C28.9655 11.0864 28.7564 11.9419 28.5031 12.7884C28.2497 13.6349 27.9622 14.4652 27.6385 15.2765C27.6057 15.3575 27.5584 15.4317 27.4988 15.4956C27.3618 15.6544 27.1679 15.7529 26.9588 15.7698C26.7498 15.7866 26.5425 15.7205 26.3819 15.5857C25.7919 15.0722 25.1675 14.5996 24.5131 14.1713C23.87 13.7507 23.199 13.3745 22.5046 13.0454C22.3224 12.9632 22.1776 12.8159 22.0986 12.6324C22.0195 12.449 22.0119 12.2425 22.0773 12.0537C22.3384 11.319 22.5569 10.5698 22.7317 9.80993C22.8102 9.51334 22.8715 9.21585 22.9328 8.90845C23.1338 8.98688 23.3259 9.06621 23.5269 9.15276C23.8235 9.28437 24.12 9.4232 24.4166 9.56383C24.3733 9.77297 24.3265 9.97401 24.2769 10.175C24.1381 10.7601 23.9803 11.347 23.7973 11.9212C24.3382 12.2007 24.871 12.5144 25.3857 12.8461C25.7788 13.1085 26.1718 13.387 26.5477 13.6755C26.7046 13.2392 26.8533 12.7939 26.984 12.3404C27.1761 11.7202 27.3329 11.0783 27.4817 10.4284C26.3359 9.64495 25.1165 8.97527 23.8406 8.42886C23.0548 8.08923 22.2502 7.79457 21.4309 7.54631C20.6823 7.3202 19.9214 7.13661 19.152 6.9964C18.6111 6.90085 18.0521 6.82242 17.4842 6.76112C16.9163 6.69982 16.3583 6.66466 15.7993 6.64753L15.4856 6.63852H14.8744L14.5688 6.64753C14.0099 6.66466 13.442 6.69982 12.883 6.76112C12.3241 6.82242 11.7571 6.90085 11.2072 6.9964C10.4472 7.13613 9.68816 7.32815 8.92821 7.54631C8.63974 7.63645 8.35218 7.72661 8.0637 7.82578C8.03756 7.6599 8.01142 7.50304 7.99429 7.33717C7.942 6.96215 7.90416 6.59524 7.88072 6.21932C10.2363 5.44051 12.7017 5.04483 15.1827 5.0474C18.2516 5.0516 21.2907 5.65041 24.1318 6.8107C25.7703 7.49345 27.3258 8.36054 28.7681 9.39525L28.7654 9.39256ZM14.2191 16.2988C14.0883 16.133 13.9747 15.9842 13.8702 15.8535C13.0394 14.7161 12.334 13.4923 11.7661 12.2034C11.6877 12.0294 11.6084 11.8545 11.539 11.6796C11.4695 11.5047 11.4163 11.3569 11.3587 11.191C11.3337 11.1334 11.3161 11.0728 11.3064 11.0107C11.2878 10.908 11.2898 10.8027 11.3123 10.7008C11.3348 10.5989 11.3774 10.5026 11.4376 10.4173C11.4977 10.332 11.5743 10.2596 11.6627 10.2043C11.7512 10.1489 11.8497 10.1117 11.9527 10.0948C12.1186 10.0596 12.3133 10.0335 12.5116 10.0047L13.0786 9.92532C13.4284 9.89107 13.7773 9.86492 14.1352 9.83518C14.4931 9.80543 14.8564 9.80904 15.1836 9.80904C15.5109 9.80904 15.8642 9.81715 16.2393 9.83518C16.5999 9.86132 16.947 9.88746 17.2877 9.92532L17.8547 10.0047C18.0648 10.0308 18.2478 10.0569 18.4227 10.0948C18.4672 10.102 18.511 10.1135 18.5534 10.1291C18.7509 10.2004 18.9123 10.3469 19.0023 10.5367C19.0923 10.7265 19.1037 10.9442 19.0339 11.1423C18.9635 11.3226 18.8941 11.5083 18.8238 11.6832C18.7535 11.8581 18.6841 12.033 18.6057 12.207C18.322 12.8494 18.0042 13.4763 17.6537 14.0848C17.3015 14.6977 16.9138 15.2894 16.4926 15.8571C16.3616 16.0308 16.2483 16.1792 16.1527 16.3024C16.004 16.4827 15.8904 16.6342 15.7921 16.7387C15.7614 16.7778 15.7259 16.8129 15.6867 16.8433C15.6074 16.9101 15.5156 16.9605 15.4166 16.9914C15.3177 17.0224 15.2136 17.0333 15.1103 17.0235C15.0071 17.0138 14.9068 16.9836 14.8154 16.9347C14.724 16.8858 14.6432 16.8192 14.5779 16.7387C14.4471 16.59 14.3335 16.4503 14.2173 16.3024L14.2191 16.2988Z" fill="#38CEC9"/>
</g>
<path d="M37.6217 11.6424C38.1802 10.7736 39.1629 10.3391 40.5696 10.3391V12.1855C40.4041 12.1544 40.2541 12.1389 40.1196 12.1389C39.3646 12.1389 38.775 12.3613 38.3509 12.8061C37.9268 13.2405 37.7148 13.8714 37.7148 14.6989V18.7174H35.7754V10.4322H37.6217V11.6424Z" fill="#1B1E59"/>
<path d="M49.9277 14.6213C49.9277 14.7558 49.9173 14.9472 49.8966 15.1954H43.3958C43.5096 15.8057 43.8043 16.2918 44.2801 16.6538C44.7663 17.0055 45.3662 17.1814 46.0799 17.1814C46.9901 17.1814 47.74 16.8814 48.3296 16.2815L49.3691 17.4761C48.9968 17.9209 48.5261 18.2571 47.9572 18.4846C47.3884 18.7122 46.7471 18.826 46.0334 18.826C45.1231 18.826 44.3215 18.645 43.6285 18.2829C42.9355 17.9209 42.3976 17.4193 42.0149 16.778C41.6426 16.1263 41.4564 15.3919 41.4564 14.5748C41.4564 13.768 41.6374 13.044 41.9994 12.4027C42.3718 11.751 42.8838 11.2442 43.5354 10.8822C44.1871 10.5202 44.9214 10.3391 45.7386 10.3391C46.5454 10.3391 47.2642 10.5202 47.8952 10.8822C48.5365 11.2339 49.033 11.7355 49.3846 12.3872C49.7467 13.0285 49.9277 13.7732 49.9277 14.6213ZM45.7386 11.8907C45.118 11.8907 44.5904 12.0769 44.156 12.4492C43.7319 12.8112 43.4734 13.2974 43.3803 13.9076H48.0814C47.9986 13.3077 47.7452 12.8216 47.3211 12.4492C46.897 12.0769 46.3695 11.8907 45.7386 11.8907Z" fill="#1B1E59"/>
<path d="M54.3506 18.826C53.6783 18.826 53.0215 18.738 52.3802 18.5622C51.7389 18.3864 51.2269 18.164 50.8442 17.8951L51.5889 16.4211C51.9613 16.6694 52.406 16.871 52.9232 17.0262C53.4507 17.171 53.9679 17.2434 54.4747 17.2434C55.6332 17.2434 56.2124 16.9383 56.2124 16.328C56.2124 16.0384 56.0624 15.8367 55.7625 15.7229C55.4729 15.6091 55.0022 15.5005 54.3506 15.3971C53.6679 15.2937 53.1094 15.1747 52.675 15.0403C52.2509 14.9058 51.8785 14.6731 51.5579 14.3421C51.2476 14.0007 51.0924 13.5301 51.0924 12.9302C51.0924 12.1441 51.4182 11.5183 52.0699 11.0528C52.7318 10.577 53.6214 10.3391 54.7385 10.3391C55.3074 10.3391 55.8763 10.4064 56.4452 10.5408C57.014 10.665 57.4795 10.8356 57.8415 11.0528L57.0968 12.5268C56.3934 12.1131 55.6022 11.9062 54.723 11.9062C54.1541 11.9062 53.7196 11.9941 53.4197 12.1699C53.1301 12.3354 52.9853 12.5578 52.9853 12.8371C52.9853 13.1474 53.1404 13.3698 53.4507 13.5042C53.7714 13.6284 54.2627 13.7473 54.9247 13.8611C55.5866 13.9645 56.1297 14.0835 56.5538 14.2179C56.9778 14.3524 57.3399 14.58 57.6398 14.9006C57.9501 15.2213 58.1053 15.6764 58.1053 16.266C58.1053 17.0417 57.7691 17.6623 57.0968 18.1278C56.4245 18.5932 55.5091 18.826 54.3506 18.826Z" fill="#1B1E59"/>
<path d="M67.5641 14.6213C67.5641 14.7558 67.5538 14.9472 67.5331 15.1954H61.0322C61.146 15.8057 61.4408 16.2918 61.9166 16.6538C62.4027 17.0055 63.0026 17.1814 63.7163 17.1814C64.6266 17.1814 65.3765 16.8814 65.966 16.2815L67.0056 17.4761C66.6332 17.9209 66.1626 18.2571 65.5937 18.4846C65.0248 18.7122 64.3835 18.826 63.6698 18.826C62.7596 18.826 61.9579 18.645 61.2649 18.2829C60.5719 17.9209 60.0341 17.4193 59.6513 16.778C59.279 16.1263 59.0928 15.3919 59.0928 14.5748C59.0928 13.768 59.2738 13.044 59.6358 12.4027C60.0082 11.751 60.5202 11.2442 61.1718 10.8822C61.8235 10.5202 62.5579 10.3391 63.375 10.3391C64.1818 10.3391 64.9007 10.5202 65.5316 10.8822C66.1729 11.2339 66.6694 11.7355 67.0211 12.3872C67.3831 13.0285 67.5641 13.7732 67.5641 14.6213ZM63.375 11.8907C62.7544 11.8907 62.2269 12.0769 61.7924 12.4492C61.3684 12.8112 61.1098 13.2974 61.0167 13.9076H65.7178C65.635 13.3077 65.3816 12.8216 64.9575 12.4492C64.5335 12.0769 64.0059 11.8907 63.375 11.8907Z" fill="#1B1E59"/>
<path d="M73.2282 18.826C72.3697 18.826 71.5991 18.645 70.9165 18.2829C70.2338 17.9209 69.7011 17.4193 69.3184 16.778C68.9357 16.1263 68.7443 15.3919 68.7443 14.5748C68.7443 13.7577 68.9357 13.0285 69.3184 12.3872C69.7011 11.7459 70.2286 11.2442 70.901 10.8822C71.5836 10.5202 72.3594 10.3391 73.2282 10.3391C74.0454 10.3391 74.7591 10.5046 75.3693 10.8356C75.9899 11.1666 76.4554 11.6424 76.7657 12.263L75.2762 13.1319C75.0383 12.7492 74.7384 12.4647 74.3764 12.2785C74.0247 12.082 73.6368 11.9838 73.2127 11.9838C72.4887 11.9838 71.8888 12.2217 71.413 12.6975C70.9372 13.1629 70.6993 13.7887 70.6993 14.5748C70.6993 15.3609 70.932 15.9919 71.3974 16.4677C71.8732 16.9331 72.4783 17.1658 73.2127 17.1658C73.6368 17.1658 74.0247 17.0727 74.3764 16.8866C74.7384 16.69 75.0383 16.4004 75.2762 16.0177L76.7657 16.8866C76.4451 17.5072 75.9744 17.9881 75.3538 18.3295C74.7436 18.6605 74.035 18.826 73.2282 18.826Z" fill="#1B1E59"/>
<path d="M86.4635 10.4322V18.7174H84.6172V17.6623C84.3069 18.0347 83.9191 18.3243 83.4536 18.5312C82.9881 18.7277 82.4865 18.826 81.9486 18.826C80.8419 18.826 79.9679 18.5208 79.3266 17.9106C78.6956 17.29 78.3801 16.3746 78.3801 15.1644V10.4322H80.3195V14.9006C80.3195 15.6453 80.485 16.2039 80.816 16.5763C81.1573 16.9383 81.6383 17.1193 82.2589 17.1193C82.9519 17.1193 83.5001 16.9073 83.9035 16.4832C84.3173 16.0487 84.5241 15.4281 84.5241 14.6213V10.4322H86.4635Z" fill="#1B1E59"/>
<path d="M90.8491 11.6424C91.4077 10.7736 92.3903 10.3391 93.797 10.3391V12.1855C93.6315 12.1544 93.4816 12.1389 93.3471 12.1389C92.592 12.1389 92.0024 12.3613 91.5784 12.8061C91.1543 13.2405 90.9422 13.8714 90.9422 14.6989V18.7174H89.0028V10.4322H90.8491V11.6424Z" fill="#1B1E59"/>
<path d="M100.035 10.3391C100.842 10.3391 101.56 10.515 102.191 10.8667C102.833 11.2183 103.334 11.7148 103.696 12.3561C104.058 12.9974 104.239 13.737 104.239 14.5748C104.239 15.4126 104.058 16.1573 103.696 16.809C103.334 17.4503 102.833 17.9468 102.191 18.2984C101.56 18.6501 100.842 18.826 100.035 18.826C99.4659 18.826 98.9435 18.7277 98.4677 18.5312C98.0023 18.3346 97.6092 18.0399 97.2886 17.6468V18.7174H95.4422V7.20508H97.3816V11.4407C97.7126 11.0787 98.1005 10.8046 98.5453 10.6184C99.0004 10.4322 99.4969 10.3391 100.035 10.3391ZM99.8175 17.1658C100.531 17.1658 101.116 16.9279 101.571 16.4521C102.036 15.9763 102.269 15.3506 102.269 14.5748C102.269 13.799 102.036 13.1733 101.571 12.6975C101.116 12.2217 100.531 11.9838 99.8175 11.9838C99.3521 11.9838 98.9332 12.0924 98.5608 12.3096C98.1884 12.5164 97.8936 12.8164 97.6764 13.2095C97.4592 13.6025 97.3506 14.0576 97.3506 14.5748C97.3506 15.092 97.4592 15.5471 97.6764 15.9401C97.8936 16.3332 98.1884 16.6383 98.5608 16.8555C98.9332 17.0624 99.3521 17.1658 99.8175 17.1658Z" fill="#1B1E59"/>
<defs>
<clipPath id="clip0_9073_6059">
<rect width="28.4445" height="25.8587" fill="white" transform="translate(0.886719 0.292969)"/>
</clipPath>
</defs>
</svg>
