<svg width="92" height="27" viewBox="0 0 92 27" fill="none" xmlns="http://www.w3.org/2000/svg">
<path d="M31.7026 8.91437C31.7026 13.5689 36.7063 14.1973 36.7063 17.5486C36.7063 18.7122 36.1943 19.1311 35.3797 19.1311C34.5652 19.1311 34.0532 18.7122 34.0532 17.5486V16.3849H31.6328V17.3857C31.6328 19.9922 32.9361 21.4817 35.4496 21.4817C37.963 21.4817 39.2663 19.9922 39.2663 17.3857C39.2663 12.7311 34.2626 12.1027 34.2626 8.75146C34.2626 7.58782 34.7281 7.14564 35.5426 7.14564C36.3572 7.14564 36.8226 7.58782 36.8226 8.75146V9.42637H39.243V8.91437C39.243 6.30782 37.963 4.81836 35.4728 4.81836C32.9826 4.81836 31.7026 6.30782 31.7026 8.91437Z" fill="#15003E"/>
<path d="M42.971 21.2955H45.531V15.8962L48.766 5.00454H46.3223L44.3674 12.4286L42.4125 5.00454H39.7361L42.971 15.8962V21.2955Z" fill="#15003E"/>
<path d="M53.3387 5.00454H49.778V21.2955H52.0121V9.77547L53.9205 21.2955H56.3409L58.1096 9.61256V21.2955H60.53V5.00454H56.9693L55.2238 16.5711L53.3387 5.00454Z" fill="#15003E"/>
<path d="M61.6475 7.33182H64.3238V21.2955H66.8838V7.33182H69.5602V5.00454H61.6475V7.33182Z" fill="#15003E"/>
<path d="M78.647 21.2955C78.391 20.6904 78.3677 20.1086 78.3677 19.3173V16.8039C78.3677 15.1049 77.9488 13.8715 76.6688 13.3362C77.8091 12.8009 78.3444 11.7071 78.3444 10.0315V8.75146C78.3444 6.238 77.204 5.00454 74.5509 5.00454H70.6877V21.2955H73.2477V14.6628H74.132C75.2957 14.6628 75.8077 15.2213 75.8077 16.734V19.294C75.8077 20.6206 75.9008 20.8766 76.0404 21.2955H78.647ZM74.4811 7.33182C75.3888 7.33182 75.7844 7.84382 75.7844 9.00746V10.6133C75.7844 11.9166 75.2026 12.3355 74.2484 12.3355H73.2477V7.33182H74.4811Z" fill="#15003E"/>
<path d="M80.0513 21.2955H82.6113V5.00454H80.0513V21.2955Z" fill="#15003E"/>
<path d="M89.4868 15.2213V17.5486C89.4868 18.7122 88.9748 19.1311 88.1603 19.1311C87.3457 19.1311 86.8337 18.7122 86.8337 17.5486V8.75146C86.8337 7.58782 87.3457 7.14564 88.1603 7.14564C88.9748 7.14564 89.4868 7.58782 89.4868 8.75146V10.4969H91.9072V8.91437C91.9072 6.30782 90.6039 4.81836 88.0904 4.81836C85.577 4.81836 84.2737 6.30782 84.2737 8.91437V17.3857C84.2737 19.9922 85.577 21.4817 88.0904 21.4817C90.6039 21.4817 91.9072 19.9922 91.9072 17.3857V15.2213H89.4868Z" fill="#15003E"/>
<g clip-path="url(#clip0_9073_6057)">
<path fill-rule="evenodd" clip-rule="evenodd" d="M9.39775 8.49132L7.99885 10.9098L6.66779 8.60093L8.05972 6.18244H17.7824L19.8468 2.6017H5.99357L3.26365 7.33688C5.31153 10.8747 7.35625 14.4125 9.39775 17.9504H13.5266C12.4896 16.1554 11.4531 14.3606 10.4173 12.5662L10.1302 12.0694H19.5928L23.6624 19.1161L19.5928 26.1515H4.66255L0.634653 19.0483L2.65731 15.5354L3.99704 17.8434L3.27235 19.1074L6.00228 23.8426H18.2539L20.9925 19.1074L18.2626 14.3722H14.1338C15.0096 15.8976 15.8859 17.4226 16.7628 18.9474L16.862 19.1048L16.1965 20.2593H8.06669C5.60586 16.004 3.14823 11.7519 0.693783 7.50303L0.601562 7.33427L4.66255 0.287598H23.8556L19.1239 8.49132H9.39775Z" fill="#7F46F0"/>
</g>
<defs>
<clipPath id="clip0_9073_6057">
<rect width="23.2549" height="25.8587" fill="white" transform="translate(0.601562 0.292969)"/>
</clipPath>
</defs>
</svg>
