<svg width="109" height="29" viewBox="0 0 109 29" fill="none" xmlns="http://www.w3.org/2000/svg">
<path d="M44.4781 17.2865C44.4781 18.638 44.1609 19.631 43.5265 20.2654C42.8921 20.8998 41.9129 21.217 40.5889 21.217C39.2787 21.217 37.8858 21.1481 36.4102 21.0102V18.2174C37.4859 18.2864 38.5892 18.3209 39.7201 18.3209C40.0373 18.3209 40.2855 18.2312 40.4648 18.0519C40.6579 17.8588 40.7544 17.6037 40.7544 17.2865V9.42547H38.0651V6.5293H44.4781V17.2865Z" fill="#110F14"/>
<path d="M53.7864 21.0102H46.3391V18.114H48.2009V9.42547H46.3391V6.5293H53.7864V9.42547H51.9245V18.114H53.7864V21.0102Z" fill="#110F14"/>
<path d="M68.0587 20.6998C64.8316 21.0446 61.8665 21.217 59.1634 21.217C57.8118 21.217 56.8188 20.8998 56.1844 20.2654C55.55 19.631 55.2328 18.638 55.2328 17.2865V10.6667C55.2328 9.2186 55.5569 8.17046 56.2051 7.52227C56.8671 6.86029 57.9221 6.5293 59.3702 6.5293H66.8175V9.42547H60.1977C59.3702 9.42547 58.9565 9.83921 58.9565 10.6667V17.2865C58.9565 17.6037 59.0461 17.8588 59.2254 18.0519C59.4185 18.2312 59.6736 18.3209 59.9908 18.3209C61.5768 18.3209 63.0249 18.2864 64.3351 18.2174V15.2178H61.6458V12.7354H68.0587V20.6998Z" fill="#110F14"/>
<path d="M82.5436 20.6998C79.3165 21.0446 76.3513 21.217 73.6483 21.217C72.2967 21.217 71.3037 20.8998 70.6693 20.2654C70.0349 19.631 69.7177 18.638 69.7177 17.2865V10.6667C69.7177 9.2186 70.0418 8.17046 70.69 7.52227C71.352 6.86029 72.407 6.5293 73.8551 6.5293H81.3024V9.42547H74.6826C73.8551 9.42547 73.4414 9.83921 73.4414 10.6667V17.2865C73.4414 17.6037 73.531 17.8588 73.7103 18.0519C73.9034 18.2312 74.1585 18.3209 74.4757 18.3209C76.0617 18.3209 77.5098 18.2864 78.82 18.2174V15.2178H76.1307V12.7354H82.5436V20.6998Z" fill="#110F14"/>
<path d="M88.34 18.114H95.8907V21.0102H84.6164V6.5293H88.34V18.114Z" fill="#110F14"/>
<path d="M108.825 21.0102H97.3437V6.5293H108.825V9.42547H101.067V12.2182H107.17V15.1144H101.067V18.114H108.825V21.0102Z" fill="#110F14"/>
<g clip-path="url(#clip0_9073_6056)">
<path fill-rule="evenodd" clip-rule="evenodd" d="M1.57396 4.93639C1.9939 4.93821 2.3961 5.10585 2.69305 5.40279C2.99 5.69974 3.15765 6.10195 3.15947 6.52189C3.17059 6.93363 3.34199 7.32477 3.63715 7.61206C3.9323 7.89934 4.32791 8.0601 4.73979 8.0601C5.15168 8.0601 5.54729 7.89934 5.84244 7.61206C6.13759 7.32477 6.30899 6.93363 6.32012 6.52189V1.5855C6.32194 1.16556 6.48953 0.763336 6.78648 0.46639C7.08342 0.169443 7.48568 0.00182058 7.90562 0V0C8.32395 0.00394207 8.72384 0.172576 9.01868 0.46936C9.31353 0.766143 9.47952 1.16716 9.48071 1.5855V11.9495C9.47501 12.1606 9.51168 12.3708 9.58853 12.5675C9.66539 12.7642 9.7809 12.9435 9.92821 13.0949C10.0755 13.2462 10.2516 13.3665 10.4462 13.4486C10.6408 13.5308 10.8498 13.5731 11.061 13.5731C11.2722 13.5731 11.4813 13.5308 11.6759 13.4486C11.8704 13.3665 12.0466 13.2462 12.1939 13.0949C12.3412 12.9435 12.4567 12.7642 12.5335 12.5675C12.6104 12.3708 12.6471 12.1606 12.6414 11.9495V6.52189C12.6432 6.10195 12.8108 5.69974 13.1078 5.40279C13.4047 5.10585 13.8069 4.93821 14.2269 4.93639V4.93639C14.6452 4.94033 15.0451 5.10898 15.3399 5.40576C15.6348 5.70255 15.8008 6.10355 15.802 6.52189V11.9495C15.802 12.3685 15.9685 12.7703 16.2647 13.0666C16.561 13.3628 16.9627 13.5293 17.3817 13.5293C17.8007 13.5293 18.2025 13.3628 18.4988 13.0666C18.795 12.7703 18.9615 12.3685 18.9615 11.9495V1.5855C18.9633 1.16536 19.1311 0.76296 19.4283 0.465981C19.7255 0.169003 20.128 0.00151721 20.5481 0V0C20.9669 0.00213567 21.3678 0.170223 21.6628 0.467431C21.9579 0.764639 22.123 1.16672 22.1221 1.5855V6.52189C22.1333 6.93363 22.3046 7.32477 22.5997 7.61206C22.8949 7.89934 23.2905 8.0601 23.7024 8.0601C24.1143 8.0601 24.5099 7.89934 24.8051 7.61206C25.1003 7.32477 25.2716 6.93363 25.2827 6.52189C25.2845 6.10175 25.4523 5.69936 25.7495 5.40239C26.0467 5.10541 26.4493 4.93791 26.8694 4.93639V4.93639C27.2882 4.93853 27.6891 5.10663 27.9841 5.40384C28.2791 5.70104 28.4443 6.10311 28.4434 6.52189V21.9342C28.4419 22.3511 28.2755 22.7506 27.9807 23.0454C27.6858 23.3403 27.2864 23.5066 26.8694 23.5081V23.5081C26.4511 23.5072 26.0499 23.3415 25.7529 23.0469C25.4559 22.7523 25.287 22.3525 25.2827 21.9342C25.2884 21.723 25.2518 21.5129 25.175 21.3162C25.0981 21.1195 24.9826 20.9401 24.8353 20.7888C24.688 20.6375 24.5118 20.5172 24.3172 20.435C24.1227 20.3529 23.9136 20.3106 23.7024 20.3106C23.4912 20.3106 23.2822 20.3529 23.0876 20.435C22.893 20.5172 22.7169 20.6375 22.5696 20.7888C22.4223 20.9401 22.3067 21.1195 22.2299 21.3162C22.153 21.5129 22.1164 21.723 22.1221 21.9342V26.8648C22.1224 27.0716 22.0819 27.2765 22.0029 27.4677C21.924 27.6588 21.808 27.8325 21.6618 27.9788C21.5156 28.1251 21.342 28.2412 21.1509 28.3203C20.9598 28.3994 20.7549 28.4401 20.5481 28.4399C20.1292 28.4405 19.7272 28.2751 19.43 27.9799C19.1328 27.6847 18.9647 27.2837 18.9626 26.8648V16.4869C18.9626 16.068 18.7962 15.6662 18.5 15.3699C18.2037 15.0736 17.8019 14.9072 17.3829 14.9072C16.9639 14.9072 16.5621 15.0736 16.2658 15.3699C15.9696 15.6662 15.8031 16.068 15.8031 16.4869V21.9261C15.7995 22.3426 15.6324 22.741 15.3377 23.0355C15.0431 23.3299 14.6446 23.4967 14.228 23.5001V23.5001C13.8099 23.4989 13.409 23.333 13.1123 23.0384C12.8155 22.7438 12.6468 22.3442 12.6425 21.9261V16.4869C12.6314 16.0752 12.46 15.6841 12.1649 15.3968C11.8697 15.1095 11.4741 14.9487 11.0622 14.9487C10.6503 14.9487 10.2547 15.1095 9.95952 15.3968C9.66436 15.6841 9.49302 16.0752 9.48189 16.4869V26.8648C9.48068 27.2822 9.31432 27.6821 9.01919 27.9772C8.72406 28.2724 8.32412 28.4387 7.90675 28.4399V28.4399C7.48776 28.4408 7.08552 28.2755 6.78828 27.9802C6.49104 27.6849 6.32307 27.2838 6.32124 26.8648V21.9295C6.32695 21.7184 6.29028 21.5083 6.21342 21.3116C6.13657 21.1149 6.02111 20.9355 5.8738 20.7842C5.72649 20.6328 5.55032 20.5126 5.35575 20.4304C5.16118 20.3483 4.95212 20.306 4.74092 20.306C4.52972 20.306 4.32066 20.3483 4.12608 20.4304C3.93151 20.5126 3.7554 20.6328 3.60809 20.7842C3.46078 20.9355 3.34527 21.1149 3.26841 21.3116C3.19156 21.5083 3.15489 21.7184 3.16059 21.9295C3.15635 22.3477 2.9876 22.7473 2.69085 23.0419C2.3941 23.3365 1.99323 23.5023 1.57509 23.5035C1.15856 23.5002 0.76005 23.3333 0.465404 23.0389C0.170759 22.7445 0.00361681 22.3461 0 21.9295V6.52189C0.00119489 6.10355 0.167186 5.70255 0.462026 5.40576C0.756866 5.10898 1.15676 4.94033 1.57509 4.93639H1.57396ZM6.32012 11.0674C6.32582 10.8563 6.28915 10.6461 6.2123 10.4494C6.13544 10.2527 6.01993 10.0734 5.87262 9.92205C5.72531 9.7707 5.5492 9.65041 5.35463 9.56828C5.16005 9.48614 4.95099 9.44382 4.73979 9.44382C4.52859 9.44382 4.31953 9.48614 4.12496 9.56828C3.93039 9.65041 3.75422 9.7707 3.60691 9.92205C3.4596 10.0734 3.34414 10.2527 3.26729 10.4494C3.19043 10.6461 3.15376 10.8563 3.15947 11.0674V17.3887C3.17059 17.8004 3.34199 18.1915 3.63715 18.4788C3.9323 18.7661 4.32791 18.9269 4.73979 18.9269C5.15168 18.9269 5.54729 18.7661 5.84244 18.4788C6.13759 18.1915 6.30899 17.8004 6.32012 17.3887V11.0674ZM22.1175 17.3887V11.0674C22.1118 10.8563 22.1484 10.6461 22.2253 10.4494C22.3021 10.2527 22.4176 10.0734 22.565 9.92205C22.7123 9.7707 22.8884 9.65041 23.083 9.56828C23.2776 9.48614 23.4866 9.44382 23.6978 9.44382C23.909 9.44382 24.118 9.48614 24.3126 9.56828C24.5072 9.65041 24.6834 9.7707 24.8307 9.92205C24.978 10.0734 25.0935 10.2527 25.1703 10.4494C25.2472 10.6461 25.2838 10.8563 25.2781 11.0674V17.3887C25.267 17.8004 25.0956 18.1915 24.8005 18.4788C24.5053 18.7661 24.1097 18.9269 23.6978 18.9269C23.2859 18.9269 22.8903 18.7661 22.5951 18.4788C22.3 18.1915 22.1286 17.8004 22.1175 17.3887Z" fill="#E15539"/>
</g>
<defs>
<clipPath id="clip0_9073_6056">
<rect width="28.4445" height="28.4445" fill="white"/>
</clipPath>
</defs>
</svg>
