<svg width="25" height="25" viewBox="0 0 25 25" fill="none" xmlns="http://www.w3.org/2000/svg">
<path d="M12.1124 21.9761H5.31738C4.78695 21.9761 4.27824 21.7654 3.90317 21.3903C3.5281 21.0152 3.31738 20.5065 3.31738 19.9761V7.97607C3.31738 7.44564 3.5281 6.93693 3.90317 6.56186C4.27824 6.18679 4.78695 5.97607 5.31738 5.97607H17.3174C17.8478 5.97607 18.3565 6.18679 18.7316 6.56186C19.1067 6.93693 19.3174 7.44564 19.3174 7.97607V11.9761" stroke="#083A50" stroke-width="2" stroke-linecap="round" stroke-linejoin="round"/>
<path d="M15.3174 3.97607V7.97607M7.31738 3.97607V7.97607M3.31738 11.9761H19.3174M14.3174 18.9761C14.3174 20.0369 14.7388 21.0544 15.489 21.8045C16.2391 22.5546 17.2565 22.9761 18.3174 22.9761C19.3782 22.9761 20.3957 22.5546 21.1458 21.8045C21.896 21.0544 22.3174 20.0369 22.3174 18.9761C22.3174 17.9152 21.896 16.8978 21.1458 16.1476C20.3957 15.3975 19.3782 14.9761 18.3174 14.9761C17.2565 14.9761 16.2391 15.3975 15.489 16.1476C14.7388 16.8978 14.3174 17.9152 14.3174 18.9761Z" stroke="#083A50" stroke-width="2" stroke-linecap="round" stroke-linejoin="round"/>
<path d="M18.3174 17.4722V18.9762L19.3174 19.9762" stroke="#083A50" stroke-width="2" stroke-linecap="round" stroke-linejoin="round"/>
</svg>
