<svg width="19" height="19" viewBox="0 0 19 19" fill="none" xmlns="http://www.w3.org/2000/svg">
<path d="M1.81445 15.3235C1.81445 14.2626 2.23588 13.2452 2.98603 12.4951C3.73617 11.7449 4.75359 11.3235 5.81445 11.3235H13.8145C14.8753 11.3235 15.8927 11.7449 16.6429 12.4951C17.393 13.2452 17.8145 14.2626 17.8145 15.3235C17.8145 15.8539 17.6037 16.3626 17.2287 16.7377C16.8536 17.1128 16.3449 17.3235 15.8145 17.3235H3.81445C3.28402 17.3235 2.77531 17.1128 2.40024 16.7377C2.02517 16.3626 1.81445 15.8539 1.81445 15.3235Z" stroke="#CACED8" stroke-width="2" stroke-linejoin="round"/>
<path d="M9.81445 7.32349C11.4713 7.32349 12.8145 5.98034 12.8145 4.32349C12.8145 2.66663 11.4713 1.32349 9.81445 1.32349C8.1576 1.32349 6.81445 2.66663 6.81445 4.32349C6.81445 5.98034 8.1576 7.32349 9.81445 7.32349Z" stroke="#CACED8" stroke-width="2"/>
</svg>
